<?xml version="1.0" encoding="utf-8"?>
<!-- Generator: Adobe Illustrator 16.0.0, SVG Export Plug-In . SVG Version: 6.00 Build 0)  -->
<!DOCTYPE svg PUBLIC "-//W3C//DTD SVG 1.1//EN" "http://www.w3.org/Graphics/SVG/1.1/DTD/svg11.dtd">
<svg version="1.1" id="Layer_1" xmlns="http://www.w3.org/2000/svg" xmlns:xlink="http://www.w3.org/1999/xlink" x="0px" y="0px"
	 width="1920px" height="1007px" viewBox="0 0 1920 1007" enable-background="new 0 0 1920 1007" xml:space="preserve">
<image overflow="visible" width="480" height="360" xlink:href="2436349B.jpg"  transform="matrix(1 0 0 1 371.936 -441.5)">
</image>
<g>
	<linearGradient id="SVGID_1_" gradientUnits="userSpaceOnUse" x1="331.1621" y1="370.918" x2="331.1621" y2="582.7153">
		<stop  offset="0" style="stop-color:#5DB4BD"/>
		<stop  offset="0.1368" style="stop-color:#54B0C1"/>
		<stop  offset="0.3634" style="stop-color:#3AA7CB"/>
		<stop  offset="0.5674" style="stop-color:#1E9CD7"/>
		<stop  offset="0.8652" style="stop-color:#0075BE"/>
		<stop  offset="0.9944" style="stop-color:#0287EC"/>
	</linearGradient>
	
		<path fill="#FFFFFF" stroke="url(#SVGID_1_)" stroke-width="20" stroke-linecap="round" stroke-linejoin="round" stroke-miterlimit="10" d="
		M241.563,490.195l3.027-0.879c-0.391-2.539-0.781-4.492-1.172-5.859h-2.539c0.259-1.367,0.586-4.102,0.977-8.203l0.879-2.734
		c1.367-5.859,2.083-8.887,2.148-9.082c0.391-1.172,1.041-2.798,1.953-4.883h4.297l0.684-3.418c-2.148,0-3.223-0.586-3.223-1.758
		c0-1.236,1.985-5.044,5.957-11.426l1.66-2.637l3.906-4.785l2.539-4.199c0.259-0.325,0.943-0.977,2.051-1.953
		c1.041,0.717,1.855,1.074,2.441,1.074c0.455,0,1.138-0.259,2.051-0.781l-0.684-4.395c2.669-2.539,4.395-4.199,5.176-4.98
		c2.083-2.148,4.458-4.166,7.129-6.055l2.441-2.344l2.441-1.66l1.66-1.855l8.105-5.176c2.994-2.539,5.142-4.231,6.445-5.078
		c1.236,1.237,2.212,1.987,2.93,2.246c1.497-0.716,2.31-1.27,2.441-1.66c0.195-0.064,0.391-0.813,0.586-2.246
		c1.692-0.977,3.841-1.985,6.445-3.027l3.613-1.758l5.859-1.953l2.832-1.074c2.474-0.13,4.458-0.455,5.957-0.977
		c3.841-1.106,8.008-2.115,12.5-3.027l2.441-0.781l2.832-0.293l1.953-0.098l3.613-0.098c0.064,0,1.27-0.423,3.613-1.27
		c0.325-0.13,0.586-0.195,0.781-0.195c0.259,0,3.091,1.499,8.496,4.492c2.017-2.734,3.287-4.102,3.809-4.102h0.098
		c0.911,0.195,3.157,0.327,6.738,0.391c0.195,0,3.06,0.131,8.594,0.391c2.798,0.717,5.273,1.074,7.422,1.074l1.27,1.367h0.488
		c0.911-0.716,1.563-1.074,1.953-1.074c0.586,0,1.399,0.554,2.441,1.66c-0.195,0.847-0.554,1.433-1.074,1.758
		c-0.261,0.195-1.108,0.651-2.539,1.367c-1.108,0.586-2.148,1.27-3.125,2.051c-2.148,1.694-3.581,2.539-4.297,2.539
		c-0.847,0-2.8-0.325-5.859-0.977l-4.297-1.563l-6.25-0.586c-2.475-1.431-4.069-2.148-4.785-2.148c-0.327,0-0.62,0.131-0.879,0.391
		c-0.913,0.847-1.465,1.237-1.66,1.172l-1.074-0.488l-4.59-0.879l-3.125-3.027l-3.613,3.809c-0.651,0.586-1.401,0.879-2.246,0.879
		c-0.065,0-1.14-0.13-3.223-0.391l-6.543,2.148c-2.084-0.911-3.418-1.367-4.004-1.367c-0.717,0-2.475,0.781-5.273,2.344
		c-0.586,0.261-2.409,0.424-5.469,0.488c-0.131,1.172-0.424,1.889-0.879,2.148c-2.734,0.913-5.502,1.953-8.301,3.125
		c-1.563,0.651-3.711,1.921-6.445,3.809l-5.176,3.125c-0.327,0.195-0.913,0.944-1.758,2.246c-1.433-0.391-2.539-0.586-3.32-0.586
		c-0.261,0-0.684,0.034-1.27,0.098c-0.586,2.214-1.367,3.711-2.344,4.492c-0.391,0.327-1.367,1.074-2.93,2.246
		c-0.456,0.327-1.206,0.62-2.246,0.879c-0.195,0-0.554,0.424-1.074,1.27c-0.456,0.847-1.694,2.084-3.711,3.711l-2.441-0.781
		l0.488,2.637c-1.367,1.042-2.344,1.823-2.93,2.344c-0.195,0.195-1.108,1.465-2.734,3.809c-1.367,1.694-2.734,3.613-4.102,5.762
		c-1.367,2.344-2.734,4.492-4.102,6.445l-2.344,0.293c-0.456,1.237-1.042,2.246-1.758,3.027l-0.195-0.293l-0.879-0.098l-0.293,1.074
		l1.172,0.098c-0.065,1.042-0.131,1.645-0.195,1.807c-0.065,0.163-0.586,1.123-1.563,2.881c-2.475,6.25-3.76,9.458-3.857,9.619
		c-0.098,0.163-0.603,0.766-1.514,1.807c0.259,2.019,0.391,3.809,0.391,5.371c0,0.847-0.62,2.702-1.855,5.566
		c-0.717,1.628-1.206,3.842-1.465,6.641c-1.953,0.456-3.093,1.27-3.418,2.441c2.148,1.303,3.223,2.409,3.223,3.32v0.195
		c-0.456,4.038-0.684,6.445-0.684,7.227c0,0.586,0.195,2.116,0.586,4.59c-1.889,1.108-2.832,2.377-2.832,3.809
		c0,0.913,0.455,1.889,1.367,2.93l1.953-0.293c0.195,1.367,0.586,2.963,1.172,4.785c0.259,0.977,0.423,1.791,0.488,2.441
		c-2.409,0.651-5.6,1.465-9.57,2.441l-0.586,0.098c0,0.326,2.701,0.717,8.105,1.172l2.93,0.684c0.064,3.842,0.716,6.999,1.953,9.473
		l0.098,0.195c-0.781,4.232-1.172,6.381-1.172,6.445c0,0.717,0.357,1.074,1.074,1.074c0.716,0,1.529-0.391,2.441-1.172
		c0.977,1.628,1.66,2.67,2.051,3.125c1.367,2.084,2.115,3.516,2.246,4.297l0.781,3.613c0.13,0.586,0.813,1.27,2.051,2.051
		c1.758,1.041,3.255,2.344,4.492,3.906c1.106,1.367,2.669,2.93,4.688,4.688c0.845,0.716,1.431,1.236,1.758,1.563
		c0.977,0.977,1.546,1.514,1.709,1.611c0.162,0.098,0.992,0.406,2.49,0.928c1.172,0.325,1.919,0.684,2.246,1.074l0.879,1.367
		l0.684-0.781c2.474,2.734,5.469,5.045,8.984,6.934c1.041,0.521,2.701,1.302,4.98,2.344c2.278,1.041,3.516,1.563,3.711,1.563
		c1.563,0,3.58-1.66,6.055-4.98c2.017,1.692,4.59,2.539,7.715,2.539c0.977,0,1.79-0.131,2.441-0.391
		c1.431-0.586,2.181-0.879,2.246-0.879l1.66,0.391c0.325,0.064,0.716,0.098,1.172,0.098c0.455,0,4.297-0.131,11.523-0.391
		c2.017-0.131,3.255-0.195,3.711-0.195c0.455,0,1.79,0.064,4.004,0.195c0.455,0.064,0.977,0.098,1.563,0.098
		c1.172,0,3.027-0.163,5.566-0.488c0.586-0.847,1.138-1.433,1.66-1.758c0.13-0.065,3.157-0.424,9.082-1.074
		c3.906-0.781,6.021-1.172,6.348-1.172c0.325,0,1.399,0.423,3.223,1.27c0.13,0.064,0.325,0.098,0.586,0.098
		c1.236,0,2.083-1.107,2.539-3.32c1.431,0.195,2.539,0.293,3.32,0.293s3.157-0.456,7.129-1.367l4.98-0.586
		c3.711-1.172,6.25-1.889,7.617-2.148c-0.131-0.521-0.195-0.879-0.195-1.074c0-1.107,0.357-1.758,1.074-1.953l8.203-2.344
		l-8.301-5.078l8.105-4.59l-8.398-9.961l0.195-0.586c0.586-1.497,0.879-3.385,0.879-5.664c0-0.65-0.358-3.027-1.074-7.129
		l-0.195-10.742v-0.977c0-2.083,0.586-3.353,1.758-3.809l6.055-2.441c0.195-0.064,0.293-0.162,0.293-0.293
		c0-0.064-0.131-0.162-0.391-0.293c-2.084-1.172-4.362-1.758-6.836-1.758c-0.327,0-0.879,0-1.66,0
		c-0.456-3.32-1.628-5.696-3.516-7.129c-0.586-0.391-1.172-0.586-1.758-0.586c-0.651,0-1.401,0.065-2.246,0.195l-1.465-0.977h-0.098
		c-0.065,0-0.913,0.229-2.539,0.684c-0.586,0.195-3.972,0.293-10.156,0.293c-0.327,0-1.237-0.195-2.734-0.586
		c-0.717,0.586-1.367,0.879-1.953,0.879c-1.042,0-1.563-0.488-1.563-1.465s1.009-2.246,3.027-3.809
		c1.106-0.911,2.051-1.497,2.832-1.758c0.195-0.064,1.172-0.098,2.93-0.098c2.278,0,3.613,0.065,4.004,0.195l5.078,1.758
		c0.13,0.065,0.357,0.098,0.684,0.098c0.911,0,2.051-0.618,3.418-1.855c2.603,0.522,4.492,0.781,5.664,0.781
		c0.455,0,0.943-0.032,1.465-0.098c1.563-0.195,2.474-0.293,2.734-0.293l3.711,0.488h0.098c2.212-0.391,4.361-0.748,6.445-1.074
		c1.302,2.148,1.953,3.516,1.953,4.102v0.195c-0.456,3.516-0.684,5.339-0.684,5.469c0,0.327,0.032,0.815,0.098,1.465
		c0.391,2.475,0.586,4.883,0.586,7.227c0,1.172-0.065,3.94-0.195,8.301c-0.065,1.237-0.358,3.093-0.879,5.566
		c-0.261,1.107-0.488,2.344-0.684,3.711h-2.246c-0.977,2.604-1.465,4.199-1.465,4.785s0.162,1.758,0.488,3.516
		c1.563-0.65,2.441-1.139,2.637-1.465c0.325-0.195,0.781-0.977,1.367-2.344c0.586,0.065,1.106,0.424,1.563,1.074l-8.203,3.223
		l8.105,6.738l-0.391,0.684c-0.261,0.521-0.488,1.335-0.684,2.441l-2.051,0.879c0.911,1.823,1.595,2.865,2.051,3.125
		c0.195,0.131,0.618,0.195,1.27,0.195c0.65,1.172,1.009,1.953,1.074,2.344c0,0.065-0.065,1.399-0.195,4.004c0,0.195,0,0.423,0,0.684
		c0,1.627,0.162,2.767,0.488,3.418c0.586,1.172,0.879,1.79,0.879,1.855l-0.684,2.148c-0.131,0.391-0.195,0.813-0.195,1.27
		c0,0.455,0.032,0.977,0.098,1.563l-2.93,0.684c-0.847,1.432-1.53,2.278-2.051,2.539c-0.195,0.064-2.93,0.13-8.203,0.195
		c-4.753,1.302-7.617,1.953-8.594,1.953s-2.28-0.195-3.906-0.586l-1.27,1.172c-1.758,0.13-5.893,0.748-12.402,1.855
		c-0.065,0-0.131,0-0.195,0c-0.327,0-0.717-0.033-1.172-0.098c-0.651-0.131-1.172-0.195-1.563-0.195
		c-0.913,0-2.832,0.65-5.762,1.953c-0.847,0.26-3.418,0.391-7.715,0.391l-5.273,1.27c-1.303,0.325-2.963,0.521-4.98,0.586
		l-7.91,1.855l-3.613,0.195c-6.055,0.977-11.557,1.692-16.504,2.148c-1.042-1.107-1.823-1.628-2.344-1.563l-1.855,0.195
		l-3.027,0.293l-1.465,1.074c-0.195,0.064-3.842,0.098-10.938,0.098c-0.065,0-1.074-0.098-3.027-0.293
		c-1.628-0.195-4.038-0.326-7.227-0.391c-1.237-1.237-2.214-1.986-2.93-2.246c-0.781-0.195-1.921-0.358-3.418-0.488l-0.586,1.66
		c-6.772-1.953-11.133-4.004-13.086-6.152c-2.28-2.344-4.038-3.972-5.273-4.883c-0.391-1.758-1.108-3.158-2.148-4.199
		c-0.913,0.064-1.66,0.098-2.246,0.098c-1.108,0-1.987-0.229-2.637-0.684c-1.108-0.847-2.963-2.963-5.566-6.348
		c-0.847-0.977-2.182-2.377-4.004-4.199c0.65-2.214,0.977-3.809,0.977-4.785c0-1.822-0.815-2.734-2.441-2.734
		c-0.717,0-1.53,0.098-2.441,0.293c-0.456-1.172-1.303-2.734-2.539-4.688l-0.488-1.66l-4.297-12.012
		c-0.913-2.669-1.367-4.817-1.367-6.445c0-0.064,0-0.195,0-0.391c0.195-1.367,0.293-2.083,0.293-2.148
		c0-0.26-0.261-1.465-0.781-3.613c0-0.195-0.131-2.994-0.391-8.398c-0.065-1.302-0.229-2.539-0.488-3.711
		c-0.131-0.845-0.195-1.497-0.195-1.953C240.781,491.889,241.041,491.172,241.563,490.195z"/>
	<linearGradient id="SVGID_2_" gradientUnits="userSpaceOnUse" x1="571.5527" y1="375.3125" x2="571.5527" y2="585.2544">
		<stop  offset="0" style="stop-color:#5DB4BD"/>
		<stop  offset="0.1368" style="stop-color:#54B0C1"/>
		<stop  offset="0.3634" style="stop-color:#3AA7CB"/>
		<stop  offset="0.5674" style="stop-color:#1E9CD7"/>
		<stop  offset="0.8652" style="stop-color:#0075BE"/>
		<stop  offset="0.9944" style="stop-color:#0287EC"/>
	</linearGradient>
	
		<path fill="#FFFFFF" stroke="url(#SVGID_2_)" stroke-width="20" stroke-linecap="round" stroke-linejoin="round" stroke-miterlimit="10" d="
		M473.945,568.809c0.455-0.847,0.748-1.335,0.879-1.465l2.832-1.758c0.716-0.521,2.017-2.084,3.906-4.688
		c0.195-0.261,0.943-0.879,2.246-1.855c0.716-0.521,1.333-1.27,1.855-2.246c-0.065-0.586-0.098-1.107-0.098-1.563
		c0-1.367,0.879-2.832,2.637-4.395c2.474-2.344,3.97-3.906,4.492-4.688l5.371-9.766c0.064-0.064,0.684-0.26,1.855-0.586l0.391-0.391
		c-0.065-0.716-0.098-1.334-0.098-1.855c0-0.781,0.064-1.27,0.195-1.465l2.441-3.223l9.668-15.039l0.195-0.977
		c-0.522-0.391-0.913-0.586-1.172-0.586c-0.131,0-0.488,0.065-1.074,0.195c-0.261,0.065-0.586,0.098-0.977,0.098
		c-0.522,0-1.14-0.032-1.855-0.098c-0.391-1.236-0.586-2.148-0.586-2.734c0-0.325,0.423-1.074,1.27-2.246
		c0.521-1.692,1.074-2.994,1.66-3.906c0.977-1.367,1.758-2.474,2.344-3.32c1.302,0,2.212,0.098,2.734,0.293l4.297,1.465l0.293-0.195
		c0.195-0.716,0.293-1.236,0.293-1.563c0-0.521-0.163-1.27-0.488-2.246c1.172-0.781,1.822-1.333,1.953-1.66l1.953-3.711
		c0.455-0.911,1.724-2.31,3.809-4.199c0.195-1.563,0.406-2.505,0.635-2.832c0.228-0.325,1.48-1.497,3.76-3.516
		c0.195-0.259,0.943-2.017,2.246-5.273c0.391-0.845,2.181-3.646,5.371-8.398l6.445-12.5l2.637-2.832
		c0.13-1.172,0.259-1.855,0.391-2.051c0.13-0.195,1.041-1.529,2.734-4.004c0.13-0.195,0.195-0.423,0.195-0.684
		c0-0.455-0.065-0.977-0.195-1.563c0.586-0.521,1.204-1.431,1.855-2.734c0.586-1.236,1.204-2.344,1.855-3.32l1.953,2.832
		c0.325-0.781,0.488-1.333,0.488-1.66c0-0.521-0.261-1.302-0.781-2.344c0.65-1.563,1.138-2.539,1.465-2.93
		c1.236-1.822,1.855-2.896,1.855-3.223c0.064-0.064,0.098-0.781,0.098-2.148c0-0.195,0.357-0.911,1.074-2.148
		c0.259-0.391,0.911-1.985,1.953-4.785c0.13-0.391,0.488-1.27,1.074-2.637l4.199-0.391l-0.391-1.27l-2.539-1.172v-1.563
		c0.977-0.781,1.692-1.66,2.148-2.637l-1.074-0.977v-0.391c0.977-0.911,1.919-2.181,2.832-3.809
		c0.845-1.563,1.595-2.864,2.246-3.906c-0.522-0.911-0.781-1.66-0.781-2.246v-0.684v-0.977v-2.051l7.91-5.469l1.855,1.367
		c0.65-1.236,1.041-2.051,1.172-2.441c0.455-1.106,0.911-1.66,1.367-1.66c0.455,0,0.977,0.131,1.563,0.391
		c0.325-1.367,0.977-2.376,1.953-3.027c1.302-0.977,2.474-1.465,3.516-1.465c1.953,0,3.027,2.377,3.223,7.129
		c0.716,3.125,1.106,5.273,1.172,6.445c0.259,2.019,1.106,4.297,2.539,6.836c0.845,3.386,1.27,5.6,1.27,6.641
		c0,0.717,0,1.499,0,2.344l-3.906,2.051c0.586,1.303,1.138,2.116,1.66,2.441c0.325,0.131,1.79,0.586,4.395,1.367
		c1.236,0.391,2.539,2.312,3.906,5.762c0.977,2.409,1.465,3.874,1.465,4.395c0,0.391-0.391,1.206-1.172,2.441
		c1.041,1.042,1.724,1.694,2.051,1.953c1.626,1.433,2.505,2.312,2.637,2.637l1.172,3.027l1.953,4.883
		c0.195,0.391,0.357,1.465,0.488,3.223c2.017,2.084,3.157,4.233,3.418,6.445c0.195,1.758,0.293,2.67,0.293,2.734l2.148,3.32
		c0.259,0.522,1.626,3.256,4.102,8.203l-2.246,1.367c0.391,1.237,0.911,2.148,1.563,2.734l1.465,0.293l-0.293,2.148
		c6.641,6.315,10.059,12.468,10.254,18.457c0.259,1.433,1.66,4.46,4.199,9.082c3.516,6.641,5.469,10.515,5.859,11.621
		c0.521,1.433,1.236,2.832,2.148,4.199l6.055,13.379l-0.195,2.832c3.906,2.084,5.859,4.069,5.859,5.957
		c0,0.911-0.944,1.822-2.832,2.734c0.521,1.106,1.041,1.79,1.563,2.051c0.13,0.13,0.781,0.391,1.953,0.781
		c0.911,0.325,1.888,1.529,2.93,3.613c0.521,0.977,1.367,3.32,2.539,7.031c2.798,4.297,4.556,7.096,5.273,8.398
		c-1.237,0.977-1.855,2.018-1.855,3.125c0,0.391,0.032,0.879,0.098,1.465c-2.214,0.977-3.776,1.563-4.688,1.758
		c-0.327,0.13-1.465,0.228-3.418,0.293c-0.913,0.064-3.19,0.846-6.836,2.344c-1.694-3.842-2.702-6.576-3.027-8.203
		c-0.261-1.367-0.879-2.832-1.855-4.395c-1.758-4.818-2.637-7.52-2.637-8.105c0-0.456,0.032-0.977,0.098-1.563
		c-1.172-1.107-1.855-2.084-2.051-2.93c-0.065-0.195-0.131-1.205-0.195-3.027c-0.131-0.717-0.195-1.205-0.195-1.465
		c0-0.781,0.325-1.855,0.977-3.223l-2.93-2.637c0.781-0.977,1.333-1.627,1.66-1.953c0.65-0.521,0.977-0.977,0.977-1.367
		s-0.065-0.846-0.195-1.367l-4.688,0.391c-1.563-2.083-2.637-3.743-3.223-4.98c-0.327-0.781-0.847-2.832-1.563-6.152l-1.465-3.418
		c-0.781-4.166-1.367-6.641-1.758-7.422c-1.108-2.344-2.93-3.516-5.469-3.516c-2.28,0-3.549,2.441-3.809,7.324
		c-0.522,0.195-0.847,0.293-0.977,0.293c-0.717,0-1.628-0.455-2.734-1.367c-1.889-1.302-3.842-2.148-5.859-2.539
		c-0.977-0.13-2.344-0.618-4.102-1.465c-2.344-1.106-4.233-1.66-5.664-1.66c-0.586,0-2.377,0.326-5.371,0.977l-2.832-0.488
		l-3.125,0.293h-2.637l-2.637,0.391l-4.59,0.098c-1.953,0.065-3.256,0.098-3.906,0.098l-1.465,0.098l-6.055-1.367l-2.93,0.586
		c-2.084-0.586-3.223-0.879-3.418-0.879c-0.391,0-1.953,0.358-4.688,1.074c-2.019,0.456-3.809,0.749-5.371,0.879l-2.734-3.125
		c-2.084,0.391-4.167,1.14-6.25,2.246c-0.195,0.131-1.628,0.391-4.297,0.781c-0.977,0.131-1.499,0.195-1.563,0.195
		c-0.781,0-1.758-0.098-2.93-0.293c-1.628-0.325-3.061-0.488-4.297-0.488c-0.913,0-2.539,0.293-4.883,0.879
		c-1.367,0.391-2.8,0.651-4.297,0.781c-0.717,1.172-1.172,1.953-1.367,2.344c-0.977,2.019-2.246,3.972-3.809,5.859
		c-1.108,1.758-2.637,4.33-4.59,7.715l-1.758-0.391c-0.522,0.521-0.781,1.01-0.781,1.465c0,0.391,0.098,1.074,0.293,2.051
		c0.064,0.391,0.13,0.944,0.195,1.66c-1.237,1.433-1.921,2.312-2.051,2.637l-4.688,9.473c-0.847,1.367-1.758,2.864-2.734,4.492
		l-0.879,1.367l-5.371,3.418c-0.261,0.195-0.391,0.553-0.391,1.074c0,0.716,0.748,1.692,2.246,2.93l-1.465,4.59
		c-1.563,0.586-2.637,1.106-3.223,1.563c-0.913,0.65-1.855,2.083-2.832,4.297c-1.889,0.781-3.093,1.367-3.613,1.758
		c-0.913,0.65-1.596,0.977-2.051,0.977c-0.195,0-0.847-0.326-1.953-0.977c-0.261-0.195-0.684-0.293-1.27-0.293
		c-0.391,0-0.847,0.032-1.367,0.098C476.81,570.11,475.442,569.264,473.945,568.809z M527.852,501.23
		c1.431-0.781,2.31-1.172,2.637-1.172c0.455,0,1.138,0.424,2.051,1.27l3.027-0.391l1.172,2.051c1.367-0.455,3.223-0.684,5.566-0.684
		h8.691c1.626,0.065,3.809,0.554,6.543,1.465c2.864,0.195,4.98,0.424,6.348,0.684c1.367,2.019,2.962,3.027,4.785,3.027l6.152-3.027
		l3.32,0.684h5.566l2.148,0.586l2.832-0.391l2.637,0.293l2.637-0.195l2.441,0.684l5.762-0.977l4.492-0.293l8.691-0.879l7.227,0.586
		c1.041,0,1.563-0.391,1.563-1.172c0-0.325-0.293-1.431-0.879-3.32c-0.131-0.521-0.229-1.302-0.293-2.344
		c-1.237-0.845-2.148-1.822-2.734-2.93c-2.28-4.622-3.581-6.934-3.906-6.934c-0.651-0.911-1.14-1.985-1.465-3.223
		c-0.261-1.106-0.781-2.278-1.563-3.516c0.325-1.692,0.488-3.125,0.488-4.297c0-0.65-0.261-1.724-0.781-3.223l-3.418,0.488
		c-0.717-1.497-1.14-2.474-1.27-2.93l-0.684-2.441l-2.148-3.027l-2.441-4.297l-1.074-1.855c-0.456-2.669-1.303-5.078-2.539-7.227
		c-0.913-1.626-1.335-3.06-1.27-4.297l1.953-0.879c-0.651-1.041-1.465-1.563-2.441-1.563c-0.391,0-0.847,0.034-1.367,0.098
		c-0.651-1.367-1.108-2.246-1.367-2.637c-1.499-2.212-2.28-3.418-2.344-3.613l-0.586-3.809l-1.465-2.539l-1.465-3.418l-3.223-4.004
		l-1.758-5.664l-1.66-2.93c-0.847-1.758-1.792-3.384-2.832-4.883c-1.628,0.977-2.734,2.019-3.32,3.125
		c-1.108,2.148-1.628,4.102-1.563,5.859h-0.586c-1.108,1.889-2.539,4.069-4.297,6.543l-5.664,10.742
		c-1.042,1.823-1.726,3.386-2.051,4.688c-1.172,0.717-1.921,1.628-2.246,2.734c-1.237,2.8-2.995,4.59-5.273,5.371l0.488,2.734
		l-1.465,0.684h-0.098c-1.237-0.13-2.312-0.228-3.223-0.293l-0.781,1.27l2.539,1.563c-0.781,2.539-1.921,5.112-3.418,7.715
		c-3.061,5.859-5.957,9.636-8.691,11.328c-0.651,0.391-1.042,1.433-1.172,3.125c-0.065,1.237-0.358,2.409-0.879,3.516l-2.637,4.883
		l-2.246,2.441l-1.172,2.734c-1.499,2.409-2.409,4.038-2.734,4.883C528.73,498.984,528.306,500.124,527.852,501.23z"/>
	<linearGradient id="SVGID_3_" gradientUnits="userSpaceOnUse" x1="790.166" y1="372.0898" x2="790.166" y2="584.6685">
		<stop  offset="0" style="stop-color:#5DB4BD"/>
		<stop  offset="0.1368" style="stop-color:#54B0C1"/>
		<stop  offset="0.3634" style="stop-color:#3AA7CB"/>
		<stop  offset="0.5674" style="stop-color:#1E9CD7"/>
		<stop  offset="0.8652" style="stop-color:#0075BE"/>
		<stop  offset="0.9944" style="stop-color:#0287EC"/>
	</linearGradient>
	
		<path fill="#FFFFFF" stroke="url(#SVGID_3_)" stroke-width="20" stroke-linecap="round" stroke-linejoin="round" stroke-miterlimit="10" d="
		M722.539,572.422c0.586-0.847,1.399-1.66,2.441-2.441c0.911-0.651,2.441-1.855,4.59-3.613c-0.131-0.586-0.195-1.14-0.195-1.66
		c0-0.326,0.195-0.684,0.586-1.074c2.148-2.93,4.361-5.859,6.641-8.789c0.586-0.977,1.953-2.441,4.102-4.395l-8.203-1.953
		l8.398-5.371l-8.203-8.008l0.293-3.32l0.195-2.832c0.977-2.408,1.465-4.102,1.465-5.078v-0.195v-2.93
		c0-1.041,0.618-1.855,1.855-2.441l0.977-0.586l1.66,0.293l0.293-0.098c0.195-0.391,0.293-0.716,0.293-0.977
		c0-0.521-0.781-1.465-2.344-2.832v-2.637l-2.832,0.684l-0.781-0.781c0.455-1.563,0.684-2.539,0.684-2.93l-0.293-4.492l0.488-8.594
		c0-0.325-0.293-1.919-0.879-4.785c0.455-1.563,0.716-2.962,0.781-4.199h1.367c0-1.626,0.391-3.32,1.172-5.078
		c-2.148-0.325-3.223-0.943-3.223-1.855c0-0.391,0.13-1.074,0.391-2.051c0.13-0.716,0.195-2.083,0.195-4.102
		c0-0.845,0-1.855,0-3.027c0.064-1.041,0.098-1.822,0.098-2.344c0-0.716-0.065-1.333-0.195-1.855
		c-0.261-0.716-0.391-1.204-0.391-1.465c0-0.259,0.195-0.716,0.586-1.367h1.758l0.391-1.563l-1.563-0.391v-0.684
		c0.064-0.845,0.325-1.626,0.781-2.344l1.27-1.758c0-0.13,0.391-0.293,1.172-0.488l0.293-1.27l-2.246-0.977l0.781-2.734
		c-0.913,0.586-1.726,0.879-2.441,0.879c-0.913,0-1.367-0.684-1.367-2.051c0-0.13,0.13-1.497,0.391-4.102v-0.098l-0.488-7.813
		v-4.102c0-0.781-0.034-1.724-0.098-2.832c0-0.65,0-1.106,0-1.367c0-1.431,0.293-3.287,0.879-5.566l-1.172-1.27v-8.496
		c0.391-0.13,0.601-0.244,0.635-0.342c0.032-0.098,0.081-0.894,0.146-2.393c-0.913-1.626-1.367-2.767-1.367-3.418
		c0-0.325,0-0.716,0-1.172c-0.913-1.106-1.367-1.822-1.367-2.148l-0.098-3.809c-0.195-1.888-0.327-3.125-0.391-3.711
		c-0.065-0.845-0.586-1.888-1.563-3.125l-1.758-0.391l-0.977-2.93c1.431-0.716,2.376-1.204,2.832-1.465
		c1.563-0.781,3.125-1.236,4.688-1.367l1.66-0.781l1.855-0.879l1.563-1.563l1.172-0.488c3.32-1.431,5.826-2.148,7.52-2.148
		c1.431,0,2.148,0.62,2.148,1.855v2.93l0.586,2.441c-0.847,1.172-1.27,2.182-1.27,3.027c0,0.717,0.064,1.66,0.195,2.832
		c0.064,1.172,0.162,2.897,0.293,5.176h0.293v0.684c-0.913,0.261-1.596,0.391-2.051,0.391c-0.391,0-0.944-0.064-1.66-0.195
		l-0.391,0.391c-0.131,1.172-0.879,2.116-2.246,2.832l2.148,3.32l2.441-0.391l1.465,2.539h0.977l0.293,0.195
		c-0.913,1.563-2.441,3.386-4.59,5.469l-1.172,6.445l-4.59,5.078l1.367,3.809l0.879,12.891c0.195,0.456,1.302,1.108,3.32,1.953
		c1.888,0.781,2.832,1.596,2.832,2.441l-0.098,0.195c-0.065,0.327-0.229,0.847-0.488,1.563l-1.465,0.293
		c1.497,1.367,2.246,3.776,2.246,7.227c0,1.303-1.01,2.539-3.027,3.711c0.716,1.433,1.236,2.377,1.563,2.832
		c0.977,1.823,1.465,3.288,1.465,4.395c0,0.065-0.293,1.14-0.879,3.223l0.098,0.781v0.098c-0.065,0.195-0.098,0.749-0.098,1.66
		c0.064,5.534,0.032,9.213-0.098,11.035c0,0.586,0,1.367,0,2.344c0,1.758,0.032,3.483,0.098,5.176
		c0.064,0.586,0.098,1.108,0.098,1.563c0,0.327-0.098,0.717-0.293,1.172l-0.098-0.391l-2.051,1.465
		c0.259,2.019,1.106,3.711,2.539,5.078l-0.293,1.074l0.391,13.867l0.098,1.563c0,0.717,0,1.303,0,1.758
		c0,0.781-0.488,3.354-1.465,7.715l-0.293,5.176l-0.977,1.465c-0.065,0.131-0.131,0.749-0.195,1.855
		c-0.327,1.823-0.554,3.32-0.684,4.492l2.246-0.293c0.65,1.888,0.977,2.962,0.977,3.223l-0.195,15.332
		c0,1.367,0.716,2.246,2.148,2.637c1.106,0.26,2.083,0.748,2.93,1.465c0.65-0.065,1.204-0.098,1.66-0.098
		c0.455,0,1.497,0.228,3.125,0.684l3.809,0.391l6.543,1.465h5.762l3.125,4.395l8.105-3.906l3.418,0.586l2.637,0.293l2.637,0.879
		c0.064,0,1.27-0.195,3.613-0.586c0.391-0.065,0.748-0.098,1.074-0.098c0.521,0,1.985,0.293,4.395,0.879
		c3.125-0.521,4.785-0.781,4.98-0.781c0.911,0,2.539,0.13,4.883,0.391c0.845,0.064,1.626,0.098,2.344,0.098
		c0.845,0,2.31-0.229,4.395-0.684l4.785-0.391c3.06-0.586,6.314-1.01,9.766-1.27c1.431-0.065,2.408-0.229,2.93-0.488
		c0.911-0.326,1.595-0.488,2.051-0.488c0.195,0,1.106,1.529,2.734,4.59c0.064,0.064,0.162,0.098,0.293,0.098
		c0.911,0,1.822-0.847,2.734-2.539c0.455-0.847,0.684-2.312,0.684-4.395c2.212-0.586,3.677-1.042,4.395-1.367
		c4.036-1.823,6.543-2.734,7.52-2.734l0.488,0.098c-0.065,1.953-0.293,3.189-0.684,3.711l-1.563,2.051l-3.418,4.98
		c-1.367,1.302-2.475,2.506-3.32,3.613h-2.344l-1.074,1.953l-6.152-4.688l-13.086,4.785l-0.781-0.293
		c-1.108-0.326-3.32-0.488-6.641-0.488h-0.293c-0.522,0-5.827,0.357-15.918,1.074l-6.445-0.879
		c-2.344,0.391-3.549,0.586-3.613,0.586c-1.433,0-2.768-0.586-4.004-1.758c-2.148-1.953-3.256-2.93-3.32-2.93l-10.156,3.906
		l-2.441-0.488l-2.344-0.195l-2.441-0.293c-4.297-0.131-6.934-0.261-7.91-0.391l1.074-0.684h-4.102l-0.586,2.051
		c-1.237-0.651-2.051-1.14-2.441-1.465c-0.977-0.586-2.116-0.977-3.418-1.172c-2.084,1.758-4.428,2.637-7.031,2.637
		c-1.499,0-3.32-0.195-5.469-0.586c-1.628,1.106-3.354,1.66-5.176,1.66c-0.522,0-1.628-0.229-3.32-0.684
		C726.705,573.528,724.427,573.008,722.539,572.422z"/>
	<linearGradient id="SVGID_4_" gradientUnits="userSpaceOnUse" x1="979.1895" y1="372.0898" x2="979.1895" y2="584.6685">
		<stop  offset="0" style="stop-color:#5DB4BD"/>
		<stop  offset="0.1368" style="stop-color:#54B0C1"/>
		<stop  offset="0.3634" style="stop-color:#3AA7CB"/>
		<stop  offset="0.5674" style="stop-color:#1E9CD7"/>
		<stop  offset="0.8652" style="stop-color:#0075BE"/>
		<stop  offset="0.9944" style="stop-color:#0287EC"/>
	</linearGradient>
	
		<path fill="#FFFFFF" stroke="url(#SVGID_4_)" stroke-width="20" stroke-linecap="round" stroke-linejoin="round" stroke-miterlimit="10" d="
		M911.563,572.422c0.586-0.847,1.399-1.66,2.441-2.441c0.911-0.651,2.441-1.855,4.59-3.613c-0.131-0.586-0.195-1.14-0.195-1.66
		c0-0.326,0.195-0.684,0.586-1.074c2.148-2.93,4.361-5.859,6.641-8.789c0.586-0.977,1.953-2.441,4.102-4.395l-8.203-1.953
		l8.398-5.371l-8.203-8.008l0.293-3.32l0.195-2.832c0.977-2.408,1.465-4.102,1.465-5.078v-0.195v-2.93
		c0-1.041,0.618-1.855,1.855-2.441l0.977-0.586l1.66,0.293l0.293-0.098c0.195-0.391,0.293-0.716,0.293-0.977
		c0-0.521-0.781-1.465-2.344-2.832v-2.637l-2.832,0.684l-0.781-0.781c0.455-1.563,0.684-2.539,0.684-2.93l-0.293-4.492l0.488-8.594
		c0-0.325-0.293-1.919-0.879-4.785c0.455-1.563,0.716-2.962,0.781-4.199h1.367c0-1.626,0.391-3.32,1.172-5.078
		c-2.148-0.325-3.223-0.943-3.223-1.855c0-0.391,0.13-1.074,0.391-2.051c0.13-0.716,0.195-2.083,0.195-4.102
		c0-0.845,0-1.855,0-3.027c0.064-1.041,0.098-1.822,0.098-2.344c0-0.716-0.065-1.333-0.195-1.855
		c-0.261-0.716-0.391-1.204-0.391-1.465c0-0.259,0.195-0.716,0.586-1.367h1.758l0.391-1.563l-1.563-0.391v-0.684
		c0.064-0.845,0.325-1.626,0.781-2.344l1.27-1.758c0-0.13,0.391-0.293,1.172-0.488l0.293-1.27l-2.246-0.977l0.781-2.734
		c-0.913,0.586-1.726,0.879-2.441,0.879c-0.913,0-1.367-0.684-1.367-2.051c0-0.13,0.13-1.497,0.391-4.102v-0.098l-0.488-7.813
		v-4.102c0-0.781-0.034-1.724-0.098-2.832c0-0.65,0-1.106,0-1.367c0-1.431,0.293-3.287,0.879-5.566l-1.172-1.27v-8.496
		c0.391-0.13,0.601-0.244,0.635-0.342c0.032-0.098,0.081-0.894,0.146-2.393c-0.913-1.626-1.367-2.767-1.367-3.418
		c0-0.325,0-0.716,0-1.172c-0.913-1.106-1.367-1.822-1.367-2.148l-0.098-3.809c-0.195-1.888-0.327-3.125-0.391-3.711
		c-0.065-0.845-0.586-1.888-1.563-3.125l-1.758-0.391l-0.977-2.93c1.431-0.716,2.376-1.204,2.832-1.465
		c1.563-0.781,3.125-1.236,4.688-1.367l1.66-0.781l1.855-0.879l1.563-1.563l1.172-0.488c3.32-1.431,5.826-2.148,7.52-2.148
		c1.431,0,2.148,0.62,2.148,1.855v2.93l0.586,2.441c-0.847,1.172-1.27,2.182-1.27,3.027c0,0.717,0.064,1.66,0.195,2.832
		c0.064,1.172,0.162,2.897,0.293,5.176h0.293v0.684c-0.913,0.261-1.596,0.391-2.051,0.391c-0.391,0-0.944-0.064-1.66-0.195
		l-0.391,0.391c-0.131,1.172-0.879,2.116-2.246,2.832l2.148,3.32l2.441-0.391l1.465,2.539h0.977l0.293,0.195
		c-0.913,1.563-2.441,3.386-4.59,5.469l-1.172,6.445l-4.59,5.078l1.367,3.809l0.879,12.891c0.195,0.456,1.302,1.108,3.32,1.953
		c1.888,0.781,2.832,1.596,2.832,2.441l-0.098,0.195c-0.065,0.327-0.229,0.847-0.488,1.563l-1.465,0.293
		c1.497,1.367,2.246,3.776,2.246,7.227c0,1.303-1.01,2.539-3.027,3.711c0.716,1.433,1.236,2.377,1.563,2.832
		c0.977,1.823,1.465,3.288,1.465,4.395c0,0.065-0.293,1.14-0.879,3.223l0.098,0.781v0.098c-0.065,0.195-0.098,0.749-0.098,1.66
		c0.064,5.534,0.032,9.213-0.098,11.035c0,0.586,0,1.367,0,2.344c0,1.758,0.032,3.483,0.098,5.176
		c0.064,0.586,0.098,1.108,0.098,1.563c0,0.327-0.098,0.717-0.293,1.172l-0.098-0.391l-2.051,1.465
		c0.259,2.019,1.106,3.711,2.539,5.078l-0.293,1.074l0.391,13.867l0.098,1.563c0,0.717,0,1.303,0,1.758
		c0,0.781-0.488,3.354-1.465,7.715l-0.293,5.176l-0.977,1.465c-0.065,0.131-0.131,0.749-0.195,1.855
		c-0.327,1.823-0.554,3.32-0.684,4.492l2.246-0.293c0.65,1.888,0.977,2.962,0.977,3.223l-0.195,15.332
		c0,1.367,0.716,2.246,2.148,2.637c1.106,0.26,2.083,0.748,2.93,1.465c0.65-0.065,1.204-0.098,1.66-0.098
		c0.455,0,1.497,0.228,3.125,0.684l3.809,0.391l6.543,1.465h5.762l3.125,4.395l8.105-3.906l3.418,0.586l2.637,0.293l2.637,0.879
		c0.064,0,1.27-0.195,3.613-0.586c0.391-0.065,0.748-0.098,1.074-0.098c0.521,0,1.985,0.293,4.395,0.879
		c3.125-0.521,4.785-0.781,4.98-0.781c0.911,0,2.539,0.13,4.883,0.391c0.846,0.064,1.627,0.098,2.344,0.098
		c0.846,0,2.311-0.229,4.395-0.684l4.785-0.391c3.06-0.586,6.314-1.01,9.766-1.27c1.432-0.065,2.408-0.229,2.93-0.488
		c0.911-0.326,1.595-0.488,2.051-0.488c0.195,0,1.106,1.529,2.734,4.59c0.064,0.064,0.162,0.098,0.293,0.098
		c0.911,0,1.822-0.847,2.734-2.539c0.455-0.847,0.684-2.312,0.684-4.395c2.213-0.586,3.678-1.042,4.395-1.367
		c4.036-1.823,6.543-2.734,7.52-2.734l0.488,0.098c-0.065,1.953-0.293,3.189-0.684,3.711l-1.563,2.051l-3.418,4.98
		c-1.367,1.302-2.475,2.506-3.32,3.613h-2.344l-1.074,1.953l-6.152-4.688l-13.086,4.785l-0.781-0.293
		c-1.107-0.326-3.32-0.488-6.641-0.488h-0.293c-0.521,0-5.827,0.357-15.918,1.074l-6.445-0.879
		c-2.344,0.391-3.549,0.586-3.613,0.586c-1.433,0-2.768-0.586-4.004-1.758c-2.148-1.953-3.256-2.93-3.32-2.93l-10.156,3.906
		l-2.441-0.488l-2.344-0.195l-2.441-0.293c-4.297-0.131-6.934-0.261-7.91-0.391l1.074-0.684h-4.102l-0.586,2.051
		c-1.237-0.651-2.051-1.14-2.441-1.465c-0.977-0.586-2.116-0.977-3.418-1.172c-2.084,1.758-4.428,2.637-7.031,2.637
		c-1.499,0-3.32-0.195-5.469-0.586c-1.628,1.106-3.354,1.66-5.176,1.66c-0.522,0-1.628-0.229-3.32-0.684
		C915.728,573.528,913.45,573.008,911.563,572.422z"/>
	<linearGradient id="SVGID_5_" gradientUnits="userSpaceOnUse" x1="1191.4063" y1="377.4609" x2="1191.4063" y2="583.6919">
		<stop  offset="0" style="stop-color:#5DB4BD"/>
		<stop  offset="0.1368" style="stop-color:#54B0C1"/>
		<stop  offset="0.3634" style="stop-color:#3AA7CB"/>
		<stop  offset="0.5674" style="stop-color:#1E9CD7"/>
		<stop  offset="0.8652" style="stop-color:#0075BE"/>
		<stop  offset="0.9944" style="stop-color:#0287EC"/>
	</linearGradient>
	
		<path fill="#FFFFFF" stroke="url(#SVGID_5_)" stroke-width="20" stroke-linecap="round" stroke-linejoin="round" stroke-miterlimit="10" d="
		M1100.586,397.129c0.195-1.758,0.684-3.125,1.465-4.102h1.855c0.846-1.302,1.79-2.278,2.832-2.93
		c0.977-0.586,2.083-1.399,3.32-2.441c1.041,0.391,1.822,0.586,2.344,0.586c0.26,0,1.041-0.162,2.344-0.488
		c0.391-0.13,0.879-0.195,1.465-0.195c0.521,0,3.775,0.293,9.766,0.879c0.911,0.065,1.953,0.098,3.125,0.098
		c0.586,0,1.302-0.13,2.148-0.391c2.213,1.563,3.678,2.377,4.395,2.441h1.27l2.051,0.293c1.822-1.106,3.482-1.66,4.98-1.66
		c0.65,0,2.604,0.586,5.859,1.758l4.102,0.684l4.297,1.074c0.13,0,0.65-0.162,1.563-0.488c0.846-0.325,1.595-0.455,2.246-0.391
		l20.117,0.195l0.781,1.172l5.371,0.391l1.465-1.758c4.231-0.13,8.301-0.423,12.207-0.879c0.781-0.13,1.563-0.195,2.344-0.195
		s1.627,0.065,2.539,0.195c2.083,0.261,3.385,0.391,3.906,0.391c0.455,0,5.045-0.879,13.77-2.637l5.566-0.684
		c2.799-0.391,4.264-0.586,4.395-0.586c0.455,0,1.725,0.229,3.809,0.684c-0.065,1.108-0.586,2.246-1.563,3.418l-1.074,1.172
		l-4.883,2.637c-0.456,0.261-1.367,0.977-2.734,2.148c-1.498,1.237-2.604,1.823-3.32,1.758h-0.195
		c-1.693-0.13-3.256-0.259-4.688-0.391c-0.586-0.064-1.823-0.521-3.711-1.367h-0.879h-0.684h-4.785
		c-0.847,0-2.865-0.195-6.055-0.586l-5.566,0.488h-4.004l-6.055,1.172l-7.129-0.684l-3.613-0.098l-2.148-0.195l-5.957,0.586
		l-5.078-0.195l-2.344,0.879l-11.035-0.586l-3.125,0.488c-0.065,0-0.847-0.228-2.344-0.684c-0.912-0.325-3.711-0.488-8.398-0.488
		h-1.855c-0.586,0-1.855,0.098-3.809,0.293l-3.125-0.684c-0.456,0-1.172,0.554-2.148,1.66c0.977,1.823,1.497,3.711,1.563,5.664
		c0.064,1.694,0.13,3.061,0.195,4.102c-1.303,1.433-2.409,2.148-3.32,2.148c-0.195,0-0.619-0.13-1.27-0.391
		c-0.195,1.303-0.293,2.148-0.293,2.539s0.098,0.717,0.293,0.977c0.325,0.391,0.846,0.847,1.563,1.367
		c0.586,0.391,1.399,1.01,2.441,1.855c-0.456,2.019-0.684,3.288-0.684,3.809c0,0.391,0.357,2.441,1.074,6.152
		c1.367,0.327,3.841,0.651,7.422,0.977l6.445,1.172l4.59,0.195l3.809,0.488c2.474,0,5.045,0.195,7.715,0.586
		c1.106,0.131,2.181,0.195,3.223,0.195c1.106,0,2.083-0.098,2.93-0.293c1.953-0.325,3.255-0.488,3.906-0.488
		c0.064,0,1.334,0.261,3.809,0.781c0.195,0.065,0.423,0.098,0.684,0.098c0.521,0,2.213-0.098,5.078-0.293
		c0.716-0.064,1.563-0.098,2.539-0.098c1.692,0,4.102-0.064,7.227-0.195c4.817-0.13,8.496-0.455,11.035-0.977
		c0.195-0.064,0.423-0.098,0.684-0.098c0.586,0,1.627,0.065,3.125,0.195c0.716,0.065,1.79,0.131,3.223,0.195v-1.367
		c1.822-0.064,2.93-0.325,3.32-0.781l0.488-0.391l4.102,5.371c1.041-1.822,1.741-2.945,2.1-3.369c0.357-0.423,1.058-0.992,2.1-1.709
		c1.627-1.106,2.734-1.66,3.32-1.66c0.781,0,1.692,0.098,2.734,0.293c-0.131,2.148-0.391,3.32-0.781,3.516
		c-0.065,0.456-0.944,1.172-2.637,2.148v2.637c-1.433,0.781-2.539,1.726-3.32,2.832c-1.693,0.456-2.8,0.684-3.32,0.684
		c-0.977,0-1.855-0.423-2.637-1.27c-2.475-2.734-3.874-4.102-4.199-4.102c-0.065,0-1.237,1.596-3.516,4.785
		c-0.065,0.065-0.195,0.098-0.391,0.098c-0.131,0-0.326-0.064-0.586-0.195c-0.651-0.259-1.596-0.552-2.832-0.879
		c-0.717,0.391-2.475,0.717-5.273,0.977c-3.125-0.391-4.883-0.586-5.273-0.586s-2.409,0.229-6.055,0.684l-3.516-0.781l-4.102-0.195
		l-2.148-0.098l-7.129,0.977l-6.934-1.074l-8.887,0.195l-2.93-0.684l-3.516,0.098l-2.93-0.098l-2.441,0.684l-3.809,0.195
		c-2.214,0.261-4.33,0.391-6.348,0.391c0.716,1.758,1.139,3.711,1.27,5.859l0.391,2.93l-0.098,8.594l0.586,5.469
		c-0.065,0.456-0.488,1.237-1.27,2.344l-1.66,0.488l-0.293-0.293c-0.521,1.303-0.781,2.312-0.781,3.027
		c0,0.327,0.098,0.847,0.293,1.563l0.781-0.391c1.236,0.913,1.985,1.66,2.246,2.246c0.13,0.261,0.195,1.303,0.195,3.125
		c0,0.977-0.619,1.921-1.855,2.832c0.195,1.433,0.748,3.452,1.66,6.055c0.195,0.522,0.293,1.53,0.293,3.027c0,0.456,0,1.074,0,1.855
		l-2.148,1.074c-0.131,0.781-0.195,1.499-0.195,2.148c0,1.237,1.009,2.409,3.027,3.516c-0.586,0.977-0.847,1.563-0.781,1.758
		l0.879,4.395l0.195,3.809l0.391,2.344l-0.391,2.93l0.098,3.613l-0.488,2.148l-0.293,6.25c-0.065,1.628-0.098,2.475-0.098,2.539
		c0,0.521,0.162,1.27,0.488,2.246l-3.613,2.148c0,1.172,0.357,2.572,1.074,4.199h0.586c0.781-0.586,1.334-0.879,1.66-0.879
		c0.521,0,1.204,0.391,2.051,1.172c-0.847,2.344-1.27,3.906-1.27,4.688c0,0.261,0.293,1.303,0.879,3.125l0.098,6.934l0.586,8.105
		c0,2.604-1.726,5.24-5.176,7.91c0,1.822,0.228,3.125,0.684,3.906c0.13,0.325,0.618,0.684,1.465,1.074
		c0.455,0.195,1.236,0.716,2.344,1.563l3.809-3.418h4.297l7.617-1.465l3.418,0.293c3.385,0,5.159,0.016,5.322,0.049
		c0.162,0.032,1.318,0.602,3.467,1.709c0.13,0.064,0.357,0.098,0.684,0.098c1.041,0,2.344-0.619,3.906-1.855l0.293-0.098
		l0.293-0.195l2.637,3.809l3.711-3.125c0.521-0.781,0.977-1.205,1.367-1.27h0.488l11.035,0.781l3.711,0.098c1.692,0,2.832,0,3.418,0
		c0.846,0.064,1.302,0.098,1.367,0.098c0.195,0,1.302-0.195,3.32-0.586c0.13-0.065,0.391-0.098,0.781-0.098
		c0.325,0,0.684,0.032,1.074,0.098c3.906,0.325,5.957,0.488,6.152,0.488c0.064,0,1.367-0.163,3.906-0.488h1.563l17.48-0.293
		l1.367,0.098c0.064,0.064,0.455,0,1.172-0.195c0.391-0.065,0.716-0.098,0.977-0.098c0.13,0,1.074,0.228,2.832,0.684
		c0.325,0.064,1.302,0.098,2.93,0.098l1.172,3.418l2.832,0.488v-3.32l0.195-0.293l0.977-0.488c1.888,3.189,2.962,4.785,3.223,4.785
		c0.195,0,2.051-1.433,5.566-4.297c0.781-0.651,1.595-0.977,2.441-0.977c0.716,0,1.595,0.488,2.637,1.465
		c1.497-0.391,2.539-0.586,3.125-0.586c1.106-0.195,1.92-0.456,2.441-0.781c0.13-0.912,0.423-1.498,0.879-1.758
		c0.846-0.456,1.66-0.781,2.441-0.977c1.497-0.065,2.832-0.098,4.004-0.098c5.729-1.237,9.049-1.986,9.961-2.246
		c1.497-0.912,2.474-1.367,2.93-1.367c1.041,0,1.563,0.748,1.563,2.246c0,0.521-0.293,1.399-0.879,2.637
		c-0.586,1.172-1.042,2.344-1.367,3.516c-1.042,0.521-1.596,0.943-1.66,1.27l-0.684,2.051c-1.693,2.148-5.046,3.189-10.059,3.125
		l-3.125,0.586l-5.273-4.59l-6.934,5.273l-3.906-0.781l-5.078-0.195l-3.516-0.586h-4.59l-5.371-0.488
		c-0.131,0-0.586,0.098-1.367,0.293l-1.367-0.977c-1.693,0.977-3.027,1.465-4.004,1.465c-0.326,0-2.637-0.391-6.934-1.172
		c-0.847-0.131-2.897-0.195-6.152-0.195c-1.953,0-3.549,0.064-4.785,0.195c-1.889,0.26-3.158,0.391-3.809,0.391
		c-0.065,0-2.897-0.456-8.496-1.367c-1.107,0.13-1.693,0.195-1.758,0.195c-0.521,0-1.14-0.065-1.855-0.195l-1.563,1.66
		c-1.433-0.261-2.246-0.391-2.441-0.391L1175,570.664h-4.102l-5.859,0.391c-0.326,0-1.042-0.163-2.148-0.488l0.684-1.66
		c-1.628,0-3.288,0.26-4.98,0.781l-0.293,2.637h-1.758h-0.391l-0.195,0.098h-0.195c-0.131,0-0.261-0.033-0.391-0.098
		c-1.433-0.651-2.865-0.977-4.297-0.977c-1.172,0-2.019,0.098-2.539,0.293l-0.195,0.098c-0.131,0-1.14-1.14-3.027-3.418
		c-0.586-0.717-1.205-1.074-1.855-1.074c-0.521,0-2.865,1.302-7.031,3.906c-0.977,0.65-2.084,0.977-3.32,0.977
		c-0.456,0-1.986-0.326-4.59-0.977c-0.195-0.065-0.521-0.098-0.977-0.098c-0.391,0-2.475,0.293-6.25,0.879l-5.176,0.195
		c-4.558,1.041-7.031,1.563-7.422,1.563c-0.651,0-1.726-0.195-3.223-0.586c-0.065-0.651-0.098-1.205-0.098-1.66
		c0-0.717,0.26-1.66,0.781-2.832c0.325,0.064,0.553,0.098,0.684,0.098c0.781,0,1.497-0.326,2.148-0.977
		c0.521-0.586,1.725-2.897,3.613-6.934l-0.098-5.469c0-0.065,0.098-0.195,0.293-0.391c0.911-1.237,1.367-1.889,1.367-1.953
		c-0.391-1.237-0.586-1.986-0.586-2.246c0-0.261,0.032-0.554,0.098-0.879c0.325-3.842,0.488-8.333,0.488-13.477
		c0.064-1.627,0.488-3.971,1.27-7.031c0.195-0.521,0.716-1.074,1.563-1.66c0.586-0.325,0.879-0.911,0.879-1.758
		c0.13-1.432,0.293-2.474,0.488-3.125l-1.27,2.441h-0.781c-0.261-0.911-0.749-1.855-1.465-2.832c0-1.041,0-1.855,0-2.441
		l-0.098-4.199v-0.098l2.148-2.832l1.66-5.273c0.195-0.455,1.595-1.27,4.199-2.441l0.488-0.195
		c-0.065-0.521-2.604-1.399-7.617-2.637l3.223-1.465v-1.27l-2.051-0.977c-0.326-1.172-0.912-2.083-1.758-2.734
		c0-1.563,0.162-3.125,0.488-4.688l-1.172-8.789l7.813-5.762l-7.813-10.059l5.957-2.539l-6.152-2.344l2.344-1.27
		c0-1.822,0.228-3.58,0.684-5.273c-0.717-0.391-1.433-0.943-2.148-1.66c-0.391-0.455-0.781-0.781-1.172-0.977
		c-0.261-2.148-0.391-3.548-0.391-4.199c-0.131-2.603-0.229-4.068-0.293-4.395c-0.065-0.455-0.098-0.813-0.098-1.074
		c0-0.716,0.488-1.626,1.465-2.734c-0.326-0.716-0.814-1.074-1.465-1.074c-0.195,0-0.456,0.034-0.781,0.098
		c-0.195-1.172-0.293-2.212-0.293-3.125c0-1.041,0.553-2.148,1.66-3.32c-1.498-1.302-2.246-2.571-2.246-3.809v-12.109
		c0-1.497-0.195-4.036-0.586-7.617c-0.391-3.646-0.619-5.566-0.684-5.762c-0.131-0.13-0.586-0.455-1.367-0.977v-4.492l-3.32,0.391
		v-0.488l-0.488-0.293c-0.912,0-1.498,0-1.758,0C1102.311,397.52,1101.432,397.39,1100.586,397.129z"/>
	<linearGradient id="SVGID_6_" gradientUnits="userSpaceOnUse" x1="1411.3867" y1="381.1719" x2="1411.3867" y2="584.3755">
		<stop  offset="0" style="stop-color:#5DB4BD"/>
		<stop  offset="0.1368" style="stop-color:#54B0C1"/>
		<stop  offset="0.3634" style="stop-color:#3AA7CB"/>
		<stop  offset="0.5674" style="stop-color:#1E9CD7"/>
		<stop  offset="0.8652" style="stop-color:#0075BE"/>
		<stop  offset="0.9944" style="stop-color:#0287EC"/>
	</linearGradient>
	
		<path fill="#FFFFFF" stroke="url(#SVGID_6_)" stroke-width="20" stroke-linecap="round" stroke-linejoin="round" stroke-miterlimit="10" d="
		M1339.805,573.398l0.488-0.879c2.018-4.037,3.092-6.25,3.223-6.641c0.13-0.391,0.26-1.986,0.391-4.785
		c1.236-6.641,1.953-11.361,2.148-14.16l-1.465-0.879l-0.293-0.586c4.557-2.148,7.242-3.499,8.057-4.053
		c0.813-0.553,1.221-1.221,1.221-2.002c0-1.692-2.832-4.102-8.496-7.227l2.246-0.781c0-1.758,0.098-2.93,0.293-3.516v-0.195
		c0-0.26-0.261-0.977-0.781-2.148c-0.521-1.302-0.781-2.896-0.781-4.785l1.465-12.695V494.59c0-0.65,0.423-1.529,1.27-2.637
		c0.781-0.845,1.399-1.919,1.855-3.223l-3.223-1.465c-0.456-3.06-0.684-5.403-0.684-7.031c0-0.65,0.032-1.302,0.098-1.953
		c0.325-4.297,0.488-6.641,0.488-7.031c0-0.064,0-0.195,0-0.391l-1.074-8.789c0-0.13,0.325-0.455,0.977-0.977
		c0.455-0.391,1.139-0.977,2.051-1.758v-1.367l-2.637-1.953c0.13-1.367,0.195-2.539,0.195-3.516c0-2.083-0.131-4.492-0.391-7.227
		l1.953-2.344c-0.977-1.302-1.465-2.278-1.465-2.93c0-0.586,0.098-1.236,0.293-1.953l-1.758-0.195
		c-0.131-0.259-0.195-0.423-0.195-0.488l5.273-8.496l0.391-8.008l2.637-3.125l-8.496-8.203l0.195-6.543
		c0-1.692-0.684-2.539-2.051-2.539c-0.651,0-1.4,0.163-2.246,0.488c-0.651-0.521-0.977-1.041-0.977-1.563
		c0-1.172,0.455-2.115,1.367-2.832c0.455-0.391,1.041-0.586,1.758-0.586c0.586,0,1.334,0.065,2.246,0.195
		c1.367-1.106,2.832-2.051,4.395-2.832c3.06-1.431,4.785-2.148,5.176-2.148c0.65,0,1.432,0.717,2.344,2.148
		c0.455-0.064,0.813-0.098,1.074-0.098c0.716,0,1.725,0.261,3.027,0.781l2.051-1.758c2.604,0.195,4.329,0.358,5.176,0.488
		c1.692,0.195,2.93,0.293,3.711,0.293c0.13,0,3.385-0.357,9.766-1.074h0.098c0.195,0,0.813,0.098,1.855,0.293
		c2.539,0.391,8.756,0.717,18.652,0.977l2.441,0.391l4.59,0.293c0.781,0.065,1.27,0.098,1.465,0.098c0.716,0,1.692-0.488,2.93-1.465
		c1.627,0.391,3.906,0.684,6.836,0.879l5.078,0.781l3.516,0.391l2.441,0.684h3.613l3.125,0.488c2.539,0.327,5.273,1.074,8.203,2.246
		c1.497,0.586,2.376,1.563,2.637,2.93l-0.391,0.488h-1.465v2.539c0.586,0.522,1.236,0.815,1.953,0.879l0.488-0.391
		c-0.065-0.455-0.098-0.845-0.098-1.172c0-0.586,0.391-1.27,1.172-2.051c0.521,0.131,1.041,0.456,1.563,0.977
		c0.325,0.261,0.65,0.488,0.977,0.684c1.953,1.303,2.93,2.441,2.93,3.418c0,2.019-0.293,4.492-0.879,7.422
		c1.432,0.065,2.148,0.522,2.148,1.367c0,0.456-0.619,1.66-1.855,3.613c-1.172,1.758-2.475,3.061-3.906,3.906
		c-0.131,0.065-0.521,0.522-1.172,1.367c-0.586,0.586-2.963,2.866-7.129,6.836c-2.93,2.019-4.492,3.125-4.688,3.32
		c-0.456,0.456-0.912,1.335-1.367,2.637l-3.32,2.148l-1.758-0.391c-0.847,0.717-1.693,1.27-2.539,1.66
		c-1.367,0.522-2.637,1.499-3.809,2.93c-1.563,1.758-2.604,2.8-3.125,3.125c-0.456,0.261-1.433,0.488-2.93,0.684l-1.66,1.465
		l-2.637-0.781c-0.391,1.172-0.814,2.148-1.27,2.93c-2.344,0.522-4.199,1.27-5.566,2.246l0.391,0.391
		c-1.433,1.758-2.768,2.995-4.004,3.711c-0.781,0.391-2.148,0.781-4.102,1.172c-0.651,0.131-1.205,0.717-1.66,1.758
		c-2.279,1.433-3.972,2.573-5.078,3.418c1.432,0.261,2.181,0.488,2.246,0.684l3.711,7.422l3.516,3.711
		c0.325,0.327,0.781,1.108,1.367,2.344l-1.66,0.781l1.367,1.367c0.455,0,0.813,0,1.074,0c1.172,0,2.506,0.684,4.004,2.051
		c0.391,0.391,1.041,1.237,1.953,2.539c0.716,0.977,1.465,1.987,2.246,3.027c-1.172,1.042-1.855,1.987-2.051,2.832l1.074,0.977
		l4.004,0.391c0.455,0.522,0.943,1.303,1.465,2.344c0,0.131,0.781,0.977,2.344,2.539c0.26,0.327,1.399,2.441,3.418,6.348
		c0.977,1.694,3.775,5.273,8.398,10.742l3.125,4.395c2.213,2.604,3.45,4.232,3.711,4.883c0.846,1.823,1.27,3.061,1.27,3.711
		l-0.098,1.367v0.195c0,0.586,0.13,1.107,0.391,1.563c0.195,0.391,1.888,1.465,5.078,3.223c1.497,0.912,3.027,2.344,4.59,4.297
		c4.752,6.055,7.259,9.375,7.52,9.961c0.521,1.106,0.781,2.539,0.781,4.297c0.977,0.977,2.506,1.953,4.59,2.93l1.367-0.293h0.098
		c0.455,0,0.781,0.098,0.977,0.293c0.13,0.064,0.65,1.041,1.563,2.93c0.325,0.391,1.529,1.172,3.613,2.344
		c0.977,1.172,1.66,1.758,2.051,1.758s1.563-0.456,3.516-1.367l3.223,0.293c0.26,0,0.748-0.163,1.465-0.488
		c0.586,0.521,0.879,1.041,0.879,1.563c0,0.521-0.195,1.009-0.586,1.465c-0.131,0.13-1.53,0.813-4.199,2.051l-3.32,1.855
		c-0.391,0.195-1.4,0.455-3.027,0.781c-1.303,0.195-3.32,0.813-6.055,1.855l-2.93,1.074c-1.628,1.106-2.475,1.66-2.539,1.66
		c-0.261,0-1.042-0.619-2.344-1.855c-0.586-0.521-1.498-1.042-2.734-1.563c-0.717-1.563-2.279-4.167-4.688-7.813
		c-0.391-0.586-0.619-1.855-0.684-3.809l-5.957-3.613l1.66-3.613c-1.367-1.628-2.768-2.897-4.199-3.809
		c-1.237-1.303-3.19-4.004-5.859-8.105l0.293-2.441c-1.889-0.846-3.483-1.953-4.785-3.32c-3.386-3.255-5.307-6.9-5.762-10.938
		c-0.781-1.497-2.312-2.767-4.59-3.809c-1.367-0.846-3.32-3.385-5.859-7.617c-1.367-0.391-2.409-1.041-3.125-1.953
		c-1.042-1.367-2.246-2.734-3.613-4.102c0.064-1.822-0.229-3.157-0.879-4.004c-1.433-2.017-2.539-3.027-3.32-3.027
		c-0.586,0-1.237,0.065-1.953,0.195c-0.586-0.716-1.628-2.376-3.125-4.98l-6.934-8.984c-2.019-2.798-3.972-5.078-5.859-6.836
		c-4.232-3.841-6.967-5.762-8.203-5.762c-0.131,0-4.33,1.563-12.598,4.688h-0.391c-0.717,0-1.596-0.064-2.637-0.195
		c-0.195,1.042-0.586,2.28-1.172,3.711c-0.195,0.522-0.293,0.879-0.293,1.074l0.195,2.441v2.637l0.586,4.395
		c0,0.391-0.163,1.401-0.488,3.027c-0.131,0.651-0.195,1.433-0.195,2.344c0,1.303,0.064,2.67,0.195,4.102
		c0.064,1.108,0.13,3.906,0.195,8.398l0.684,2.734v7.91c0.26,2.734,0.391,4.199,0.391,4.395c0,0.586-0.229,1.27-0.684,2.051
		c-0.521,0.847-0.814,1.791-0.879,2.832l-2.539,0.977l0.684,4.785c0.977,0.065,1.79,0.326,2.441,0.781
		c-0.391,1.107-0.586,2.019-0.586,2.734c0,0.195,0.26,1.205,0.781,3.027c0.064,0.195,0.098,0.488,0.098,0.879
		s-0.033,1.14-0.098,2.246c0,0.455,0,0.977,0,1.563c0,1.236,0.032,2.539,0.098,3.906c-1.563,0.846-2.344,1.985-2.344,3.418
		c0,1.302,0.879,2.051,2.637,2.246c-0.261,0.846-0.391,1.367-0.391,1.563l0.195,5.957c0,0.977-0.456,2.246-1.367,3.809
		c-0.456,0.846-1.367,1.627-2.734,2.344c-1.498,0.846-2.312,1.367-2.441,1.563c-0.456,0.455-0.944,1.106-1.465,1.953l-3.418-0.488
		c-2.019,2.93-4.558,4.395-7.617,4.395C1342.051,574.375,1341.106,574.049,1339.805,573.398z M1356.309,438.535l1.855-0.977
		l2.246,2.246c0,2.67,0.098,5.6,0.293,8.789v3.809l0.293,4.98c-0.391,1.953-0.586,4.492-0.586,7.617l-1.66,0.586v1.66
		c0.195,0,0.325,0,0.391,0c0.65,0.065,1.465,0.261,2.441,0.586c1.041-0.845,1.953-1.367,2.734-1.563
		c0.455-0.13,1.563-0.391,3.32-0.781c0.846,0.456,1.465,0.684,1.855,0.684s1.009-0.195,1.855-0.586l0.488-0.879
		c1.432-0.13,3.841-0.813,7.227-2.051l2.637-0.488l5.469-3.418c1.888-0.911,3.938-2.083,6.152-3.516l19.434-10.449
		c3.775-1.692,6.38-2.994,7.813-3.906c0.977-0.716,2.408-2.083,4.297-4.102l3.906-2.93c1.758-1.758,2.896-2.864,3.418-3.32
		c0.391-0.195,1.334-0.586,2.832-1.172c0.455-0.259,1.497-1.595,3.125-4.004c1.367-0.977,2.181-1.692,2.441-2.148
		c0.586-1.172,0.879-2.31,0.879-3.418c0-0.455-0.065-0.943-0.195-1.465c-0.326-0.977-0.488-1.626-0.488-1.953
		c0-0.13,0.064-0.455,0.195-0.977l1.953-1.27v-0.488l-3.516-1.27c-0.781-1.367-1.335-2.31-1.66-2.832v-1.27
		c0-0.064-0.098-0.228-0.293-0.488c-0.391-0.455-0.586-0.977-0.586-1.563c0-0.325,0.032-0.716,0.098-1.172l-3.027-0.879
		l-0.195,1.465c-1.563-0.455-2.572-0.781-3.027-0.977c-1.693-0.65-3.354-1.172-4.98-1.563c-1.237-0.259-2.312-0.813-3.223-1.66
		c-1.107,0.327-1.791,0.488-2.051,0.488l-5.469-1.758h-7.52c-0.717,0-1.66-0.455-2.832-1.367c-1.107,0.327-3.19,0.522-6.25,0.586
		c-2.019,0.586-3.125,0.879-3.32,0.879c-0.326,0-1.791-0.521-4.395-1.563c-0.131-0.064-1.4-0.325-3.809-0.781
		c-1.823,0-4.59,1.01-8.301,3.027c-1.172,0.651-2.279,0.977-3.32,0.977c-0.456,0-0.749-0.098-0.879-0.293l-3.32-4.785l-3.418,1.367
		c-3.061,0.195-4.818,0.424-5.273,0.684c-1.107,0.717-1.791,1.596-2.051,2.637c-0.065,0.195-0.163,2.702-0.293,7.52
		c0,0.586-0.456,1.987-1.367,4.199l-1.367-0.488l-0.488,1.563v0.098c-0.065,0.651,0.228,1.367,0.879,2.148
		c1.692,1.758,2.669,2.897,2.93,3.418c0,3.061,0,4.917,0,5.566c0.064,0.717,0.098,1.27,0.098,1.66c0,0.456-0.195,1.074-0.586,1.855
		c-0.456,0.847-0.684,1.921-0.684,3.223l-1.953,1.855c0,1.563-0.488,2.897-1.465,4.004L1356.309,438.535z"/>
	<linearGradient id="SVGID_7_" gradientUnits="userSpaceOnUse" x1="1606.2207" y1="369.7461" x2="1606.2207" y2="584.1802">
		<stop  offset="0" style="stop-color:#5DB4BD"/>
		<stop  offset="0.1368" style="stop-color:#54B0C1"/>
		<stop  offset="0.3634" style="stop-color:#3AA7CB"/>
		<stop  offset="0.5674" style="stop-color:#1E9CD7"/>
		<stop  offset="0.8652" style="stop-color:#0075BE"/>
		<stop  offset="0.9944" style="stop-color:#0287EC"/>
	</linearGradient>
	
		<path fill="#FFFFFF" stroke="url(#SVGID_7_)" stroke-width="20" stroke-linecap="round" stroke-linejoin="round" stroke-miterlimit="10" d="
		M1525.02,391.172c1.236-0.845,2.539-1.595,3.906-2.246c1.041-0.65,2.441-2.115,4.199-4.395c3.385-1.953,5.859-3.548,7.422-4.785
		c0.846,0.195,1.66,0.781,2.441,1.758c0.977,1.108,1.465,1.823,1.465,2.148c0,0.065-0.163,0.456-0.488,1.172
		c-0.131,0.327-0.229,0.781-0.293,1.367c1.106,0.781,1.985,1.792,2.637,3.027c2.604,3.711,4.004,5.729,4.199,6.055
		c0.391,0.847,0.586,1.66,0.586,2.441s-0.098,1.726-0.293,2.832c0.977,0.781,2.115,1.66,3.418,2.637
		c1.172,0.847,2.246,2.312,3.223,4.395c0.195,0.522,0.293,0.879,0.293,1.074c0,0.065-0.033,0.229-0.098,0.488
		c-0.977,2.214-1.465,3.354-1.465,3.418c0,0.327,0.423,0.879,1.27,1.66h1.074l1.855-1.074l1.855,4.395h2.539
		c0.455,1.367,1.432,3.061,2.93,5.078c2.083,3.776,3.418,6.088,4.004,6.934c2.799,3.452,4.199,5.534,4.199,6.25
		c0,0.781-0.488,1.953-1.465,3.516l4.297,2.051l0.684-0.586h0.488c0.911,1.237,1.497,2.116,1.758,2.637
		c0.781,1.694,1.302,2.573,1.563,2.637l2.734,1.074c0.391,0.065,1.627,1.465,3.711,4.199c2.474,3.19,4.264,5.664,5.371,7.422
		c1.432,2.475,2.604,4.038,3.516,4.688c0.064,0.065,1.139,0.651,3.223,1.758c3.125,3.256,6.282,6.706,9.473,10.352
		c-0.131,0.522-0.195,0.944-0.195,1.27c0,0.327,0.162,0.781,0.488,1.367c0.391,0.131,0.716,0.195,0.977,0.195
		c0.521,0,1.627-0.716,3.32-2.148c1.692-1.431,3.06-2.603,4.102-3.516c0.391-0.391,1.009-1.465,1.855-3.223l2.246-2.051
		c1.041-2.344,2.051-4.134,3.027-5.371c1.302-1.692,4.068-4.915,8.301-9.668c0.325-0.391,0.846-1.595,1.563-3.613
		c0.13-0.455,0.846-1.367,2.148-2.734c1.172-1.302,2.115-2.603,2.832-3.906c1.367-2.539,2.604-4.492,3.711-5.859l1.172-3.027
		l4.785-6.934l2.637-5.859c3.189-4.751,4.85-7.259,4.98-7.52c0.064-0.13,0.13-1.236,0.195-3.32c0.13-0.391,0.879-1.855,2.246-4.395
		c2.148-2.474,3.548-4.492,4.199-6.055c0.391-0.911,1.302-3.353,2.734-7.324c0.65-1.626,1.334-2.994,2.051-4.102l1.563,0.293
		c0.65-1.563,1.497-2.344,2.539-2.344c0.65,0,1.465,0.163,2.441,0.488v0.488c2.799-1.692,6.217-2.896,10.254-3.613v4.395
		l-0.488,0.586c-0.781,0.195-1.367,0.424-1.758,0.684c-0.847,0.586-2.637,3.125-5.371,7.617c-1.628,2.604-3.613,4.624-5.957,6.055
		c-0.326,1.237-0.912,2.344-1.758,3.32l0.684,3.125c-1.563,1.628-2.604,2.702-3.125,3.223c-1.367,1.367-2.8,3.223-4.297,5.566
		l-1.855,2.344c-2.93,4.428-4.411,6.657-4.443,6.689c-0.033,0.034-0.863,0.732-2.49,2.1c-0.977,0.847-1.791,1.953-2.441,3.32
		l-0.098,0.195c0.391,1.172,0.586,1.792,0.586,1.855c0,0.195-0.586,1.237-1.758,3.125l-0.195,0.293l-1.855,0.781l-1.465,2.051
		l-1.172,1.172c-0.065,0.131-0.098,1.172-0.098,3.125c-0.065,1.042-1.66,4.004-4.785,8.887l-2.148,3.809
		c-0.391,0.522-1.596,1.726-3.613,3.613c-1.042,0.977-1.823,1.855-2.344,2.637c-1.367,1.889-2.377,2.866-3.027,2.93
		c-0.326,0.065-0.847,0.098-1.563,0.098c-1.237,1.563-1.855,2.866-1.855,3.906c0,0.781,0.098,1.66,0.293,2.637
		c-1.237,0.913-2.116,1.628-2.637,2.148c-0.195,0.131-1.074,1.367-2.637,3.711c-1.303,1.758-2.019,2.8-2.148,3.125
		c-0.261,0.456-0.391,3.647-0.391,9.57c0,0.651-0.163,2.409-0.488,5.273c-0.065,0.913-0.098,1.726-0.098,2.441
		c0,0.717,0.13,1.855,0.391,3.418c-1.367,0.781-2.279,1.465-2.734,2.051c-0.521,0.651-1.01,1.855-1.465,3.613
		c0.716,0.651,1.595,1.335,2.637,2.051c0.977,0.651,1.465,1.53,1.465,2.637c0,4.623-0.033,6.967-0.098,7.031l-0.391,1.563
		l0.781,4.98l-0.586,2.637c-0.131,2.084-0.229,3.451-0.293,4.102c-0.065,0.456-0.163,2.8-0.293,7.031
		c-0.065,0.847-0.098,1.66-0.098,2.441c0,0.65,0.521,2.051,1.563,4.199c0.064,0.064,0.098,0.228,0.098,0.488
		c0.064,0.391,0.13,0.879,0.195,1.465c0.195,0.716,0.13,2.051-0.195,4.004c-0.131,0.911-0.195,1.399-0.195,1.465
		c0.521,5.143,0.781,7.813,0.781,8.008c0,0.716-0.326,1.92-0.977,3.613c-0.717,0-1.335,0.032-1.855,0.098
		c-0.456,0-1.986,0.879-4.59,2.637c-4.558,1.497-6.967,2.344-7.227,2.539c-0.781,0.455-1.758,1.334-2.93,2.637
		c-0.977,0-1.953-0.488-2.93-1.465l1.465-2.637c-0.651-1.237-0.977-2.182-0.977-2.832c0-2.279,0.488-5.273,1.465-8.984
		c0.391-1.498,0.586-2.377,0.586-2.637l-0.391-7.617c0-0.261,0.26-1.107,0.781-2.539l1.465-0.488l0.391-3.223
		c2.864-0.195,4.297-0.879,4.297-2.051c0-0.455-0.131-0.977-0.391-1.563l-2.344,0.586l-0.781-1.465l-2.637-1.172
		c0.13-2.864,0.195-4.752,0.195-5.664c0-2.539,0.195-5.045,0.586-7.52c1.172-0.65,1.985-1.692,2.441-3.125l-0.391-0.293h-2.344
		c-0.261-0.846-0.424-2.571-0.488-5.176c0-0.13-0.098-1.236-0.293-3.32c-0.065-0.846-0.098-1.627-0.098-2.344
		c0-0.911,0.064-1.725,0.195-2.441c0.325-2.798,0.488-4.492,0.488-5.078c0-0.064-0.261-1.333-0.781-3.809
		c-0.195-1.692-0.977-2.962-2.344-3.809c-1.433-0.781-2.182-1.302-2.246-1.563l-0.586-1.66l-0.977-2.051l-1.074-2.637
		c-0.195-0.455-0.912-1.106-2.148-1.953c0.65-1.367,0.977-2.376,0.977-3.027c0-0.781-0.358-1.855-1.074-3.223
		c-0.065-0.13-0.554-0.259-1.465-0.391l-4.98-0.781l-0.293,1.27c-0.717-2.017-1.27-3.287-1.66-3.809l-3.125-4.395
		c-0.391-0.521-0.944-1.919-1.66-4.199c-1.303-0.13-2.116-0.276-2.441-0.439c-0.326-0.162-0.749-0.601-1.27-1.318
		c-1.172-1.626-1.823-3.06-1.953-4.297l-2.051,0.586c-0.651-1.106-2.084-3.06-4.297-5.859l-1.66-3.32l-2.93-3.32
		c-1.758-2.734-2.768-4.297-3.027-4.688c-0.261-0.455-0.521-1.27-0.781-2.441l-1.367-1.855c-0.391-0.259-0.619-1.367-0.684-3.32
		c-2.214-0.325-3.939-1.367-5.176-3.125c-2.084-3.125-3.223-4.785-3.418-4.98c-1.563-1.563-2.441-2.505-2.637-2.832
		c-0.261-0.455-0.391-1.204-0.391-2.246c0-0.781,0.032-1.626,0.098-2.539c-1.889-0.586-3.061-1.106-3.516-1.563
		c-0.195-0.195-0.912-1.431-2.148-3.711l-2.051-2.246l-3.223-4.004c-1.823-2.017-2.832-3.384-3.027-4.102v-0.293v-0.586
		c1.367-1.106,2.083-2.148,2.148-3.125c-1.433-1.302-2.539-1.953-3.32-1.953c-0.456,0-1.237,0.358-2.344,1.074
		c-2.409-2.344-4.069-4.492-4.98-6.445V391.172z"/>
</g>
</svg>
