<?xml version="1.0" encoding="utf-8"?>
<!-- Generator: Adobe Illustrator 16.0.0, SVG Export Plug-In . SVG Version: 6.00 Build 0)  -->
<!DOCTYPE svg PUBLIC "-//W3C//DTD SVG 1.1//EN" "http://www.w3.org/Graphics/SVG/1.1/DTD/svg11.dtd">
<svg version="1.1" id="Layer_1" xmlns="http://www.w3.org/2000/svg" xmlns:xlink="http://www.w3.org/1999/xlink" x="0px" y="0px"
	 width="1920px" height="1007px" viewBox="0 0 1920 1007" enable-background="new 0 0 1920 1007" xml:space="preserve">
<g>
	<g>
		
			<linearGradient id="SVGID_1_" gradientUnits="userSpaceOnUse" x1="691.4409" y1="323.3594" x2="691.4409" y2="89.6597" gradientTransform="matrix(1 0 0 -1 -345.96 735.3398)">
			<stop  offset="0" style="stop-color:#CBE0F4"/>
			<stop  offset="0.5" style="stop-color:#2BA1D9"/>
			<stop  offset="1" style="stop-color:#005E9B"/>
		</linearGradient>
		<path fill="url(#SVGID_1_)" d="M278.88,526.279c0,14.002,1.997,26.953,6,38.851c3.999,11.901,9.548,22.152,16.65,30.75
			c7.097,8.603,15.549,15.353,25.35,20.25c9.797,4.902,20.499,7.351,32.1,7.351c4.599,0,10.397-0.75,17.4-2.25
			c6.999-1.5,13.097-3.449,18.3-5.851v-52.2c0-9.6-3.553-16.05-10.65-19.35c-7.102-3.301-18.553-5.049-34.35-5.25v-9
			c4.396,0.402,9.15,0.75,14.25,1.05c5.1,0.3,10.247,0.553,15.45,0.75c5.199,0.201,10.298,0.3,15.3,0.3c4.997,0,9.497,0,13.5,0
			c4.2,0,8.1,0,11.7,0c3.601,0,7.2-0.099,10.8-0.3c3.601-0.197,7.247-0.45,10.95-0.75c3.699-0.3,7.749-0.646,12.15-1.05v9
			c-4.2,0-7.604,0.402-10.2,1.199c-2.603,0.802-4.604,2.101-6,3.899c-1.402,1.8-2.354,4.252-2.851,7.351
			c-0.501,3.104-0.75,6.952-0.75,11.551v83.1h-7.8c0-2.398-0.553-4.949-1.649-7.648c-1.103-2.701-2.451-5.147-4.05-7.352
			c-1.603-2.197-3.352-3.999-5.25-5.398c-1.903-1.397-3.75-1.801-5.55-1.201l-42.9,14.101c-6.801,2.203-11.953,3.703-15.45,4.5
			c-3.501,0.803-5.85,1.2-7.05,1.2c-13.8,0-27.15-2.349-40.05-7.051c-12.9-4.696-24.3-11.596-34.2-20.699
			c-9.9-9.099-17.85-20.297-23.85-33.6c-6-13.299-9-28.449-9-45.45c0-15.601,2.048-29.297,6.15-41.101
			c4.097-11.799,9.3-21.9,15.6-30.301c6.3-8.399,13.247-15.3,20.85-20.699c7.599-5.4,15-9.601,22.2-12.601l16.8-6.899
			c6-2.598,12.549-4.95,19.65-7.051c7.097-2.1,14.146-3.149,21.15-3.149c11.198,0,21.3,0.952,30.3,2.85
			c9,1.903,15.9,3.951,20.7,6.15c2.198-0.601,4.298-1.997,6.3-4.2c1.997-2.198,3.398-4.898,4.2-8.1h9
			c-1.003,4.003-1.65,7.852-1.95,11.55c-0.3,3.703-0.45,7.453-0.45,11.25c0,6.801,0.601,13.753,1.8,20.85
			c1.2,7.103,3,14.953,5.4,23.55h-9.3c-7.603-15.797-18.501-27.249-32.7-34.35c-14.203-7.097-30-10.65-47.4-10.65
			c-6,0-12.3,0.601-18.9,1.801c-6.6,1.199-13.102,3.201-19.5,6c-8.803,9-15.703,20.151-20.7,33.449
			C281.379,488.733,278.88,505.683,278.88,526.279z"/>
		
			<linearGradient id="SVGID_2_" gradientUnits="userSpaceOnUse" x1="942.6895" y1="323.6602" x2="942.6895" y2="93.5571" gradientTransform="matrix(1 0 0 -1 -345.96 735.3398)">
			<stop  offset="0" style="stop-color:#CBE0F4"/>
			<stop  offset="0.5" style="stop-color:#2BA1D9"/>
			<stop  offset="1" style="stop-color:#005E9B"/>
		</linearGradient>
		<path fill="url(#SVGID_2_)" d="M592.379,411.68l85.5,196.5c3.797,8.805,9.197,15.104,16.2,18.899
			c6.998,3.803,15.6,5.701,25.8,5.701v9c-8.803-0.797-17.602-1.352-26.399-1.65c-8.804-0.301-17.303-0.45-25.5-0.45
			c-8.4,0-16.853,0.149-25.351,0.45c-8.503,0.3-17.053,0.854-25.649,1.65v-9c8.597-0.197,14.55-0.999,17.85-2.4
			c3.3-1.396,4.95-3.699,4.95-6.9c0-2.197-0.45-4.447-1.351-6.75c-0.899-2.297-1.852-5.049-2.85-8.25l-14.7-36.899h-74.399
			l-13.801,36.601c-1.603,4.401-2.399,8.102-2.399,11.102c0,4.603,2.399,8.001,7.2,10.198c4.8,2.203,12.899,3.302,24.3,3.302v9
			c-8.603-0.797-16.5-1.352-23.7-1.65c-7.2-0.301-14.1-0.45-20.7-0.45c-6.403,0-13.102,0.149-20.1,0.45
			c-7.003,0.3-14.901,0.854-23.7,1.65v-9c5.798,0,10.748-0.451,14.85-1.352c4.098-0.898,7.65-2.349,10.65-4.351
			c3-1.996,5.597-4.547,7.8-7.649c2.198-3.099,4.2-6.849,6-11.25L592.379,411.68z M552.779,554.779h61.5l-31.5-79.5L552.779,554.779
			z"/>
		
			<linearGradient id="SVGID_3_" gradientUnits="userSpaceOnUse" x1="1166.9375" y1="318.5605" x2="1166.9375" y2="85.4604" gradientTransform="matrix(1 0 0 -1 -345.96 735.3398)">
			<stop  offset="0" style="stop-color:#CBE0F4"/>
			<stop  offset="0.5" style="stop-color:#2BA1D9"/>
			<stop  offset="1" style="stop-color:#005E9B"/>
		</linearGradient>
		<path fill="url(#SVGID_3_)" d="M806.278,622.28h39c14.597,0,25.748-4.697,33.449-14.102c7.697-9.397,13.247-23.798,16.65-43.2h8.4
			c-2.203,9.403-4.153,19.351-5.851,29.851c-1.702,10.5-2.452,20.551-2.25,30.149c0,3,0.249,6.75,0.75,11.25
			c0.497,4.5,1.247,9.053,2.25,13.65h-8.399c-0.803-3.6-3.104-6.301-6.9-8.1c-3.801-1.801-9.801-2.701-18-2.701h-78
			c-8.203,0-16.251,0.254-24.15,0.75c-7.902,0.502-16.25,1.154-25.05,1.951v-9c10.397-0.197,17.798-1.998,22.2-5.4
			c4.397-3.397,6.6-9.797,6.6-19.2v-158.1c0-9.398-2.053-15.75-6.149-19.05c-4.103-3.3-11.354-5.048-21.75-5.25v-9
			c8.798,1.003,16.847,1.702,24.149,2.1c7.299,0.403,14.949,0.601,22.95,0.601c16.599,0,33.601-0.9,51-2.7v9
			c-6.802,0-12.253,0.402-16.35,1.2c-4.103,0.802-7.2,2.1-9.3,3.899c-2.101,1.8-3.502,4.251-4.2,7.351
			c-0.703,3.104-1.05,6.951-1.05,11.55V622.28L806.278,622.28z"/>
		
			<linearGradient id="SVGID_4_" gradientUnits="userSpaceOnUse" x1="1358.3359" y1="318.5605" x2="1358.3359" y2="85.4604" gradientTransform="matrix(1 0 0 -1 -345.96 735.3398)">
			<stop  offset="0" style="stop-color:#CBE0F4"/>
			<stop  offset="0.5" style="stop-color:#2BA1D9"/>
			<stop  offset="1" style="stop-color:#005E9B"/>
		</linearGradient>
		<path fill="url(#SVGID_4_)" d="M997.677,622.28h39c14.598,0,25.748-4.697,33.45-14.102c7.696-9.397,13.246-23.798,16.649-43.2
			h8.399c-2.203,9.403-4.152,19.351-5.851,29.851c-1.701,10.5-2.451,20.551-2.25,30.149c0,3,0.249,6.75,0.75,11.25
			c0.497,4.5,1.247,9.053,2.25,13.65h-8.399c-0.802-3.6-3.104-6.301-6.899-8.1c-3.803-1.801-9.803-2.701-18-2.701h-78
			c-8.203,0-16.251,0.254-24.15,0.75c-7.903,0.502-16.251,1.154-25.05,1.951v-9c10.396-0.197,17.798-1.998,22.2-5.4
			c4.396-3.397,6.6-9.797,6.6-19.2v-158.1c0-9.398-2.053-15.75-6.15-19.05c-4.102-3.3-11.353-5.048-21.75-5.25v-9
			c8.799,1.003,16.848,1.702,24.15,2.1c7.298,0.403,14.949,0.601,22.95,0.601c16.599,0,33.601-0.9,51-2.7v9
			c-6.802,0-12.253,0.402-16.351,1.2c-4.102,0.802-7.199,2.1-9.3,3.899s-3.502,4.251-4.2,7.351c-0.703,3.104-1.05,6.951-1.05,11.55
			L997.677,622.28L997.677,622.28z"/>
		
			<linearGradient id="SVGID_5_" gradientUnits="userSpaceOnUse" x1="1550.1846" y1="326.6611" x2="1550.1846" y2="85.4604" gradientTransform="matrix(1 0 0 -1 -345.96 735.3398)">
			<stop  offset="0" style="stop-color:#CBE0F4"/>
			<stop  offset="0.5" style="stop-color:#2BA1D9"/>
			<stop  offset="1" style="stop-color:#005E9B"/>
		</linearGradient>
		<path fill="url(#SVGID_5_)" d="M1189.076,516.979h23.399c9.398,0,16.299-1.996,20.699-6c4.396-3.997,6.9-11.798,7.5-23.399h8.101
			c-0.402,3.6-0.75,6.75-1.05,9.45c-0.301,2.7-0.601,5.399-0.899,8.1c-0.301,2.7-0.502,5.55-0.601,8.55
			c-0.104,3-0.149,6.601-0.149,10.8c0,4.004,0.047,7.702,0.149,11.102c0.099,3.402,0.3,6.703,0.601,9.898
			c0.3,3.202,0.6,6.353,0.899,9.45c0.3,3.104,0.646,6.45,1.05,10.05h-8.101c-0.6-12.195-3.051-20.699-7.35-25.5
			c-4.303-4.8-11.152-7.199-20.551-7.199h-23.699v91.199h40.199c26.198,0,42.698-17.497,49.5-52.5h8.701
			c-2.4,9.403-4.352,19.853-5.852,31.351c-1.5,11.504-2.054,22.051-1.648,31.649c0,6,0.495,11.303,1.5,15.9h-8.4
			c-0.802-2.799-3.254-5.297-7.35-7.5c-4.103-2.199-9.75-3.301-16.951-3.301h-78.601c-8.203,0-16.252,0.254-24.149,0.75
			c-7.902,0.502-16.251,1.154-25.049,1.951v-9c10.396-0.197,17.798-1.998,22.198-5.4c4.396-3.398,6.601-9.797,6.601-19.2v-158.1
			c0-9.398-2.054-15.75-6.149-19.05c-4.103-3.301-11.353-5.049-21.75-5.25v-9c8.798,1.003,16.847,1.701,24.149,2.1
			c7.299,0.403,15.047,0.6,23.25,0.6h73.201c7.799,0,13.446-0.946,16.948-2.85c3.497-1.898,5.747-4.547,6.75-7.95h8.101
			c-0.601,3.403-1.152,6.952-1.649,10.65c-0.501,3.703-0.75,7.649-0.75,11.85c-0.202,6.802,0.099,13.95,0.899,21.45
			c0.797,7.5,2.198,15.051,4.201,22.65h-8.4c-2.002-8.598-4.402-15.549-7.2-20.851c-2.804-5.297-6.149-9.347-10.05-12.149
			c-3.9-2.799-8.451-4.697-13.65-5.7c-5.203-0.999-11.1-1.5-17.699-1.5h-30.899V516.979z"/>
		
			<linearGradient id="SVGID_6_" gradientUnits="userSpaceOnUse" x1="1766.9307" y1="318.8613" x2="1766.9307" y2="93.5581" gradientTransform="matrix(1 0 0 -1 -345.96 735.3398)">
			<stop  offset="0" style="stop-color:#CBE0F4"/>
			<stop  offset="0.5" style="stop-color:#2BA1D9"/>
			<stop  offset="1" style="stop-color:#005E9B"/>
		</linearGradient>
		<path fill="url(#SVGID_6_)" d="M1401.475,540.979c-2.399,0.202-4.852,0.403-7.351,0.602c-2.503,0.201-4.95,0.3-7.35,0.3v66.601
			c0,4.604,0.397,8.45,1.199,11.551c0.797,3.103,2.146,5.602,4.051,7.5c1.897,1.901,4.547,3.252,7.949,4.049
			c3.398,0.803,7.696,1.201,12.899,1.201v9c-4.401-0.398-8.399-0.75-12-1.051c-3.6-0.301-7.103-0.496-10.5-0.601
			c-3.403-0.099-6.853-0.197-10.35-0.301c-3.502-0.099-7.252-0.149-11.25-0.149c-8.4,0-16.65,0.149-24.75,0.45
			c-8.102,0.3-16.553,0.854-25.352,1.65v-9c5.799,0,10.547-0.398,14.25-1.201c3.699-0.797,6.647-2.146,8.852-4.049
			c2.197-1.898,3.697-4.397,4.5-7.5c0.797-3.101,1.199-7.052,1.199-11.852v-158.1c0-4.8-0.352-8.747-1.051-11.851
			c-0.703-3.098-2.1-5.55-4.199-7.35c-2.101-1.8-4.949-3.099-8.551-3.9c-3.6-0.797-8.301-1.199-14.1-1.199v-9
			c8.799,1.003,16.847,1.8,24.149,2.399c7.299,0.601,15.047,0.703,23.25,0.3l51.301-3c9,0.601,17.55,2.054,25.648,4.351
			c8.102,2.302,15.197,5.602,21.301,9.899c6.099,4.304,10.898,9.75,14.399,16.351c3.497,6.6,5.25,14.503,5.25,23.7
			c0,8.399-1.153,15.853-3.45,22.35c-2.301,6.501-5.503,12.3-9.6,17.399c-4.102,5.101-8.953,9.502-14.55,13.199
			c-5.603,3.703-11.7,6.75-18.3,9.15l40.8,66.9c2.398,4.002,5.1,7.948,8.1,11.85s6.3,7.401,9.9,10.5c3.6,3.104,7.5,5.652,11.7,7.65
			c4.198,2.001,8.798,3,13.8,3v9c-7.003-0.797-14.7-1.352-23.102-1.65c-8.398-0.301-15.801-0.45-22.198-0.45
			c-6.602,0-13.103,0.149-19.5,0.45c-6.403,0.3-14.002,0.854-22.802,1.65v-9c6,0,9.75-0.699,11.25-2.102
			c1.5-1.396,2.25-3.195,2.25-5.398c0-2.8-0.853-5.748-2.55-8.852c-1.701-3.099-3.352-6.047-4.95-8.851L1401.475,540.979z
			 M1386.774,433.28v93.6c19.996-0.999,34.246-5.799,42.75-14.399c8.498-8.598,12.75-22.2,12.75-40.801
			c0-10.8-1.903-19.599-5.7-26.399c-3.802-6.797-9.201-12.197-16.2-16.2L1386.774,433.28z"/>
		
			<linearGradient id="SVGID_7_" gradientUnits="userSpaceOnUse" x1="1972.2871" y1="318.5596" x2="1972.2871" y2="93.5581" gradientTransform="matrix(1 0 0 -1 -345.96 735.3398)">
			<stop  offset="0" style="stop-color:#CBE0F4"/>
			<stop  offset="0.5" style="stop-color:#2BA1D9"/>
			<stop  offset="1" style="stop-color:#005E9B"/>
		</linearGradient>
		<path fill="url(#SVGID_7_)" d="M1648.978,541.88v66.601c0,4.604,0.397,8.45,1.199,11.551c0.797,3.103,2.297,5.602,4.5,7.5
			c2.198,1.901,5.399,3.252,9.601,4.049c4.199,0.803,9.797,1.201,16.8,1.201v9c-8.803-0.797-17.603-1.352-26.399-1.65
			c-8.804-0.301-17.399-0.45-25.801-0.45c-8.203,0-16.649,0.149-25.35,0.45c-8.7,0.3-17.451,0.854-26.25,1.65v-9
			c6.6,0,12-0.398,16.199-1.201c4.2-0.797,7.448-2.146,9.75-4.049c2.298-1.898,3.899-4.397,4.801-7.5
			c0.899-3.101,1.35-7.051,1.35-11.852V543.98l-55.5-93.9c-2.399-3.999-4.649-7.547-6.75-10.65c-2.1-3.099-4.401-5.647-6.899-7.649
			c-2.503-1.997-5.451-3.497-8.851-4.5c-3.402-0.999-7.603-1.5-12.6-1.5v-9c17.399,1.8,34.396,2.7,51,2.7
			c4.199,0,8.049-0.048,11.55-0.15c3.497-0.098,6.999-0.249,10.5-0.45c3.497-0.197,7.097-0.497,10.8-0.899
			c3.699-0.398,7.65-0.798,11.851-1.2v9c-8.602,0.202-14.851,1.003-18.75,2.399c-3.899,1.401-5.851,3.601-5.851,6.601
			c0,2.399,0.45,4.8,1.351,7.2c0.899,2.399,2.146,5.002,3.75,7.8l42.301,75l37.8-74.7c0.999-1.997,1.847-4.148,2.55-6.45
			c0.699-2.297,1.051-4.247,1.051-5.85c0-4.397-2.054-7.5-6.149-9.3c-4.103-1.801-10.65-2.7-19.65-2.7v-9
			c4.397,0.402,8.25,0.801,11.552,1.2c3.3,0.402,6.347,0.702,9.148,0.899c2.799,0.201,5.598,0.353,8.4,0.45
			c2.798,0.103,5.798,0.15,9,0.15c6.6,0,13.199-0.197,19.8-0.601c6.6-0.397,14.297-1.097,23.1-2.1v9c-6,0-11.001,0.501-15,1.5
			c-4.003,1.003-7.35,2.503-10.05,4.5c-2.7,2.001-5.1,4.5-7.2,7.5c-2.1,3-4.151,6.6-6.148,10.8L1648.978,541.88z"/>
	</g>
	<g>
		
			<radialGradient id="SVGID_8_" cx="-13949.5625" cy="12.4561" r="188.7588" gradientTransform="matrix(0.0184 -0.0362 -0.8867 -0.4516 554.3986 -45.3949)" gradientUnits="userSpaceOnUse">
			<stop  offset="0" style="stop-color:#CBE0F4"/>
			<stop  offset="1" style="stop-color:#FFFFFF;stop-opacity:0"/>
		</radialGradient>
		<path fill="url(#SVGID_8_)" d="M289.847,446.82c92.438,47.076,165.817,88.297,163.896,92.068
			c-1.92,3.771-78.414-31.334-170.852-78.409c-92.44-47.077-165.819-88.299-163.898-92.069
			C120.914,364.638,197.407,399.743,289.847,446.82z"/>
		
			<radialGradient id="SVGID_9_" cx="34375.4883" cy="845.4844" r="188.7601" gradientTransform="matrix(0.0355 0.0181 0.4516 -0.8867 -1314.272 582.9113)" gradientUnits="userSpaceOnUse">
			<stop  offset="0" style="stop-color:#CBE0F4"/>
			<stop  offset="1" style="stop-color:#FFFFFF;stop-opacity:0"/>
		</radialGradient>
		<path fill="url(#SVGID_9_)" d="M293.064,457.058c-47.077,92.438-88.238,165.849-91.935,163.966
			c-3.697-1.884,31.468-78.349,78.545-170.785c47.076-92.439,88.237-165.849,91.935-163.966
			C375.307,288.155,340.141,364.619,293.064,457.058z"/>
		
			<radialGradient id="SVGID_10_" cx="632.3291" cy="281.6919" r="99.0288" gradientTransform="matrix(1 0 0 -1 -345.96 735.3398)" gradientUnits="userSpaceOnUse">
			<stop  offset="0" style="stop-color:#CBE0F4"/>
			<stop  offset="1" style="stop-color:#FFFFFF;stop-opacity:0"/>
		</radialGradient>
		<circle fill="url(#SVGID_10_)" cx="286.369" cy="453.648" r="99.029"/>
	</g>
</g>
</svg>
