<?xml version="1.0" encoding="utf-8"?>
<!-- Generator: Adobe Illustrator 16.0.0, SVG Export Plug-In . SVG Version: 6.00 Build 0)  -->
<!DOCTYPE svg PUBLIC "-//W3C//DTD SVG 1.1//EN" "http://www.w3.org/Graphics/SVG/1.1/DTD/svg11.dtd">
<svg version="1.1" id="Layer_1" xmlns="http://www.w3.org/2000/svg" xmlns:xlink="http://www.w3.org/1999/xlink" x="0px" y="0px"
	 width="1920px" height="1007px" viewBox="0 0 1920 1007" enable-background="new 0 0 1920 1007" xml:space="preserve">
<g>
	<linearGradient id="SVGID_1_" gradientUnits="userSpaceOnUse" x1="345.4805" y1="411.9795" x2="345.4805" y2="645.6802">
		<stop  offset="0" style="stop-color:#CBE0F4"/>
		<stop  offset="0.5" style="stop-color:#2BA1D9"/>
		<stop  offset="1" style="stop-color:#005E9B"/>
	</linearGradient>
	<path fill="url(#SVGID_1_)" d="M278.88,526.279c0,14.002,1.997,26.953,6,38.851c3.999,11.901,9.548,22.152,16.65,30.75
		c7.097,8.602,15.549,15.352,25.35,20.25c9.797,4.902,20.499,7.35,32.1,7.35c4.599,0,10.397-0.75,17.4-2.25
		c6.999-1.5,13.097-3.449,18.3-5.85v-52.2c0-9.6-3.553-16.05-10.65-19.35c-7.102-3.301-18.553-5.049-34.35-5.25v-9
		c4.396,0.402,9.15,0.75,14.25,1.05c5.1,0.3,10.247,0.553,15.45,0.75c5.199,0.201,10.298,0.3,15.3,0.3c4.997,0,9.497,0,13.5,0
		c4.2,0,8.1,0,11.7,0s7.2-0.099,10.8-0.3c3.6-0.197,7.247-0.45,10.95-0.75c3.699-0.3,7.749-0.647,12.15-1.05v9
		c-4.2,0-7.603,0.402-10.2,1.199c-2.602,0.802-4.603,2.101-6,3.9c-1.402,1.8-2.353,4.252-2.85,7.35
		c-0.501,3.104-0.75,6.952-0.75,11.551v83.1h-7.8c0-2.399-0.553-4.95-1.65-7.649c-1.102-2.701-2.451-5.147-4.05-7.351
		c-1.603-2.198-3.352-3.999-5.25-5.399c-1.903-1.397-3.75-1.801-5.55-1.201l-42.9,14.101c-6.801,2.203-11.953,3.703-15.45,4.5
		c-3.501,0.802-5.85,1.2-7.05,1.2c-13.8,0-27.15-2.349-40.05-7.051c-12.9-4.696-24.3-11.596-34.2-20.699
		c-9.9-9.099-17.85-20.297-23.85-33.6c-6-13.299-9-28.449-9-45.45c0-15.601,2.048-29.297,6.15-41.101
		c4.097-11.798,9.3-21.9,15.6-30.3c6.3-8.4,13.247-15.3,20.85-20.7c7.599-5.4,15-9.6,22.2-12.6l16.8-6.9
		c6-2.597,12.549-4.95,19.65-7.05c7.097-2.1,14.146-3.15,21.15-3.15c11.198,0,21.3,0.952,30.3,2.85c9,1.903,15.9,3.951,20.7,6.15
		c2.198-0.6,4.298-1.997,6.3-4.2c1.997-2.198,3.398-4.898,4.2-8.1h9c-1.003,4.003-1.65,7.852-1.95,11.55
		c-0.3,3.703-0.45,7.453-0.45,11.25c0,6.801,0.6,13.753,1.8,20.85c1.2,7.102,3,14.953,5.4,23.55h-9.3
		c-7.603-15.797-18.501-27.249-32.7-34.35c-14.203-7.097-30-10.65-47.4-10.65c-6,0-12.3,0.6-18.9,1.8c-6.6,1.2-13.102,3.202-19.5,6
		c-8.803,9-15.703,20.152-20.7,33.45C281.379,488.733,278.88,505.683,278.88,526.279z"/>
	<linearGradient id="SVGID_2_" gradientUnits="userSpaceOnUse" x1="596.729" y1="411.6797" x2="596.729" y2="641.7808">
		<stop  offset="0" style="stop-color:#CBE0F4"/>
		<stop  offset="0.5" style="stop-color:#2BA1D9"/>
		<stop  offset="1" style="stop-color:#005E9B"/>
	</linearGradient>
	<path fill="url(#SVGID_2_)" d="M592.379,411.68l85.5,196.5c3.797,8.804,9.197,15.103,16.2,18.899
		c6.998,3.803,15.6,5.701,25.8,5.701v9c-8.803-0.797-17.602-1.351-26.4-1.65c-8.803-0.301-17.302-0.45-25.5-0.45
		c-8.4,0-16.852,0.149-25.35,0.45c-8.503,0.3-17.053,0.854-25.65,1.65v-9c8.597-0.197,14.55-0.999,17.85-2.4
		c3.3-1.396,4.95-3.699,4.95-6.9c0-2.198-0.45-4.448-1.35-6.75c-0.9-2.297-1.852-5.049-2.85-8.25l-14.7-36.9h-74.4l-13.8,36.601
		c-1.603,4.401-2.4,8.101-2.4,11.101c0,4.603,2.4,8.001,7.2,10.199c4.8,2.203,12.9,3.301,24.3,3.301v9
		c-8.602-0.797-16.5-1.351-23.7-1.65c-7.2-0.301-14.1-0.45-20.7-0.45c-6.403,0-13.102,0.149-20.1,0.45
		c-7.003,0.3-14.901,0.854-23.7,1.65v-9c5.798,0,10.748-0.451,14.85-1.351c4.097-0.899,7.65-2.349,10.65-4.351
		c3-1.996,5.597-4.547,7.8-7.649c2.198-3.099,4.2-6.849,6-11.25L592.379,411.68z M552.779,554.779h61.5l-31.5-79.5L552.779,554.779z
		"/>
	<linearGradient id="SVGID_3_" gradientUnits="userSpaceOnUse" x1="820.978" y1="416.7798" x2="820.978" y2="649.8804">
		<stop  offset="0" style="stop-color:#CBE0F4"/>
		<stop  offset="0.5" style="stop-color:#2BA1D9"/>
		<stop  offset="1" style="stop-color:#005E9B"/>
	</linearGradient>
	<path fill="url(#SVGID_3_)" d="M806.278,622.28h39c14.597,0,25.748-4.697,33.45-14.101c7.697-9.398,13.247-23.798,16.65-43.2h8.4
		c-2.203,9.403-4.153,19.35-5.85,29.85c-1.702,10.5-2.452,20.551-2.25,30.15c0,3,0.249,6.75,0.75,11.25
		c0.497,4.5,1.247,9.052,2.25,13.65h-8.4c-0.802-3.6-3.104-6.301-6.9-8.1c-3.801-1.801-9.801-2.701-18-2.701h-78
		c-8.203,0-16.251,0.254-24.15,0.75c-7.903,0.502-16.251,1.154-25.05,1.951v-9c10.397-0.197,17.798-1.998,22.2-5.4
		c4.397-3.398,6.6-9.797,6.6-19.2v-158.1c0-9.398-2.053-15.75-6.15-19.05c-4.102-3.3-11.353-5.048-21.75-5.25v-9
		c8.798,1.003,16.847,1.702,24.15,2.1c7.298,0.403,14.949,0.6,22.95,0.6c16.598,0,33.6-0.9,51-2.7v9
		c-6.802,0-12.253,0.403-16.35,1.2c-4.102,0.802-7.2,2.1-9.3,3.9c-2.1,1.8-3.502,4.251-4.2,7.35c-0.703,3.104-1.05,6.952-1.05,11.55
		V622.28z"/>
	<linearGradient id="SVGID_4_" gradientUnits="userSpaceOnUse" x1="1012.377" y1="416.7798" x2="1012.377" y2="649.8804">
		<stop  offset="0" style="stop-color:#CBE0F4"/>
		<stop  offset="0.5" style="stop-color:#2BA1D9"/>
		<stop  offset="1" style="stop-color:#005E9B"/>
	</linearGradient>
	<path fill="url(#SVGID_4_)" d="M997.677,622.28h39c14.597,0,25.748-4.697,33.45-14.101c7.696-9.398,13.246-23.798,16.649-43.2h8.4
		c-2.203,9.403-4.153,19.35-5.851,29.85c-1.701,10.5-2.451,20.551-2.25,30.15c0,3,0.249,6.75,0.75,11.25
		c0.497,4.5,1.247,9.052,2.25,13.65h-8.399c-0.802-3.6-3.104-6.301-6.9-8.1c-3.802-1.801-9.802-2.701-18-2.701h-78
		c-8.203,0-16.251,0.254-24.15,0.75c-7.903,0.502-16.251,1.154-25.05,1.951v-9c10.397-0.197,17.798-1.998,22.2-5.4
		c4.397-3.398,6.6-9.797,6.6-19.2v-158.1c0-9.398-2.053-15.75-6.15-19.05c-4.102-3.3-11.353-5.048-21.75-5.25v-9
		c8.798,1.003,16.847,1.702,24.15,2.1c7.298,0.403,14.949,0.6,22.95,0.6c16.599,0,33.601-0.9,51-2.7v9
		c-6.801,0-12.253,0.403-16.35,1.2c-4.102,0.802-7.2,2.1-9.3,3.9c-2.101,1.8-3.502,4.251-4.2,7.35
		c-0.703,3.104-1.05,6.952-1.05,11.55V622.28z"/>
	<linearGradient id="SVGID_5_" gradientUnits="userSpaceOnUse" x1="1204.2266" y1="408.6797" x2="1204.2266" y2="649.8804">
		<stop  offset="0" style="stop-color:#CBE0F4"/>
		<stop  offset="0.5" style="stop-color:#2BA1D9"/>
		<stop  offset="1" style="stop-color:#005E9B"/>
	</linearGradient>
	<path fill="url(#SVGID_5_)" d="M1189.076,516.979h23.4c9.398,0,16.298-1.997,20.699-6c4.396-3.998,6.9-11.798,7.5-23.4h8.1
		c-0.402,3.6-0.75,6.75-1.049,9.45c-0.301,2.7-0.601,5.4-0.9,8.1c-0.301,2.7-0.502,5.55-0.6,8.55c-0.104,3-0.15,6.6-0.15,10.8
		c0,4.003,0.047,7.702,0.15,11.101c0.098,3.402,0.299,6.703,0.6,9.899c0.3,3.202,0.6,6.352,0.9,9.45
		c0.299,3.104,0.646,6.45,1.049,10.05h-8.1c-0.6-12.196-3.051-20.7-7.35-25.5c-4.303-4.8-11.152-7.2-20.551-7.2h-23.699v91.2h40.199
		c26.199,0,42.699-17.498,49.5-52.5h8.701c-2.4,9.403-4.351,19.852-5.851,31.35c-1.5,11.504-2.054,22.051-1.649,31.65
		c0,6,0.496,11.302,1.5,15.9h-8.4c-0.802-2.799-3.254-5.297-7.35-7.5c-4.102-2.199-9.75-3.301-16.951-3.301h-78.6
		c-8.203,0-16.252,0.254-24.15,0.75c-7.902,0.502-16.251,1.154-25.049,1.951v-9c10.396-0.197,17.798-1.998,22.199-5.4
		c4.396-3.398,6.6-9.797,6.6-19.2v-158.1c0-9.398-2.053-15.75-6.149-19.05c-4.102-3.3-11.353-5.048-21.75-5.25v-9
		c8.798,1.003,16.847,1.702,24.149,2.1c7.299,0.403,15.047,0.6,23.25,0.6h73.201c7.799,0,13.447-0.947,16.949-2.85
		c3.497-1.898,5.747-4.547,6.75-7.95h8.1c-0.6,3.403-1.152,6.952-1.649,10.65c-0.501,3.703-0.75,7.65-0.75,11.85
		c-0.202,6.802,0.099,13.95,0.899,21.45c0.797,7.5,2.199,15.051,4.201,22.65h-8.4c-2.002-8.597-4.402-15.548-7.2-20.85
		c-2.804-5.297-6.149-9.347-10.05-12.15c-3.9-2.798-8.451-4.697-13.65-5.7c-5.203-0.999-11.1-1.5-17.699-1.5h-30.9V516.979z"/>
	<linearGradient id="SVGID_6_" gradientUnits="userSpaceOnUse" x1="1420.9746" y1="416.4795" x2="1420.9746" y2="641.7808">
		<stop  offset="0" style="stop-color:#CBE0F4"/>
		<stop  offset="0.5" style="stop-color:#2BA1D9"/>
		<stop  offset="1" style="stop-color:#005E9B"/>
	</linearGradient>
	<path fill="url(#SVGID_6_)" d="M1401.475,540.979c-2.4,0.202-4.852,0.403-7.351,0.601c-2.503,0.201-4.95,0.3-7.35,0.3v66.6
		c0,4.604,0.398,8.451,1.2,11.551c0.797,3.103,2.146,5.602,4.05,7.5c1.898,1.902,4.547,3.252,7.95,4.049
		c3.398,0.803,7.696,1.201,12.899,1.201v9c-4.401-0.398-8.399-0.75-12-1.051c-3.6-0.3-7.102-0.496-10.5-0.6
		c-3.403-0.099-6.853-0.197-10.35-0.301c-3.502-0.098-7.252-0.149-11.25-0.149c-8.4,0-16.65,0.149-24.75,0.45
		c-8.101,0.3-16.552,0.854-25.351,1.65v-9c5.799,0,10.547-0.398,14.25-1.201c3.699-0.797,6.647-2.146,8.851-4.049
		c2.198-1.898,3.698-4.397,4.5-7.5c0.797-3.1,1.2-7.051,1.2-11.851v-158.1c0-4.8-0.352-8.747-1.051-11.85
		c-0.703-3.098-2.1-5.55-4.199-7.35c-2.101-1.8-4.95-3.099-8.551-3.9c-3.6-0.797-8.301-1.2-14.1-1.2v-9
		c8.799,1.003,16.847,1.8,24.15,2.4c7.298,0.6,15.047,0.703,23.25,0.3l51.3-3c9,0.6,17.55,2.053,25.649,4.35
		c8.101,2.302,15.197,5.602,21.301,9.9c6.098,4.303,10.898,9.75,14.399,16.35c3.497,6.6,5.25,14.503,5.25,23.7
		c0,8.4-1.153,15.853-3.45,22.35c-2.301,6.501-5.503,12.3-9.6,17.399c-4.102,5.101-8.953,9.502-14.55,13.2
		c-5.602,3.703-11.7,6.75-18.3,9.15l40.8,66.9c2.399,4.002,5.1,7.949,8.1,11.85s6.3,7.401,9.9,10.5c3.6,3.104,7.5,5.652,11.7,7.65
		c4.199,2.001,8.798,3,13.8,3v9c-7.003-0.797-14.7-1.351-23.101-1.65c-8.399-0.301-15.801-0.45-22.199-0.45
		c-6.601,0-13.102,0.149-19.5,0.45c-6.403,0.3-14.002,0.854-22.801,1.65v-9c6,0,9.75-0.699,11.25-2.101
		c1.5-1.397,2.25-3.196,2.25-5.399c0-2.799-0.853-5.748-2.55-8.851c-1.701-3.099-3.352-6.047-4.95-8.851L1401.475,540.979z
		 M1386.774,433.28v93.6c19.997-0.999,34.247-5.799,42.75-14.4c8.498-8.597,12.75-22.2,12.75-40.8c0-10.8-1.903-19.599-5.7-26.4
		c-3.802-6.797-9.201-12.197-16.2-16.2L1386.774,433.28z"/>
	<linearGradient id="SVGID_7_" gradientUnits="userSpaceOnUse" x1="1626.3262" y1="416.7798" x2="1626.3262" y2="641.7808">
		<stop  offset="0" style="stop-color:#CBE0F4"/>
		<stop  offset="0.5" style="stop-color:#2BA1D9"/>
		<stop  offset="1" style="stop-color:#005E9B"/>
	</linearGradient>
	<path fill="url(#SVGID_7_)" d="M1648.977,541.88v66.6c0,4.604,0.398,8.451,1.2,11.551c0.797,3.103,2.297,5.602,4.5,7.5
		c2.198,1.902,5.399,3.252,9.6,4.049c4.2,0.803,9.797,1.201,16.8,1.201v9c-8.803-0.797-17.602-1.351-26.399-1.65
		c-8.804-0.301-17.4-0.45-25.801-0.45c-8.203,0-16.649,0.149-25.35,0.45c-8.7,0.3-17.451,0.854-26.25,1.65v-9
		c6.6,0,12-0.398,16.2-1.201c4.2-0.797,7.448-2.146,9.75-4.049c2.297-1.898,3.899-4.397,4.8-7.5c0.9-3.1,1.35-7.051,1.35-11.851
		v-64.2l-55.5-93.9c-2.399-3.999-4.649-7.547-6.75-10.65c-2.1-3.099-4.401-5.648-6.899-7.65c-2.503-1.997-5.452-3.497-8.851-4.5
		c-3.402-0.999-7.603-1.5-12.6-1.5v-9c17.4,1.8,34.396,2.7,51,2.7c4.2,0,8.049-0.047,11.55-0.15c3.497-0.098,6.999-0.249,10.5-0.45
		c3.497-0.197,7.097-0.497,10.8-0.9c3.699-0.398,7.65-0.797,11.851-1.2v9c-8.602,0.202-14.851,1.003-18.75,2.4
		c-3.9,1.401-5.851,3.6-5.851,6.6c0,2.4,0.45,4.8,1.351,7.2c0.899,2.4,2.146,5.002,3.75,7.8l42.3,75l37.8-74.7
		c0.999-1.997,1.847-4.148,2.55-6.45c0.699-2.297,1.051-4.247,1.051-5.85c0-4.397-2.054-7.5-6.15-9.3
		c-4.102-1.8-10.65-2.7-19.65-2.7v-9c4.397,0.403,8.25,0.801,11.551,1.2c3.3,0.403,6.347,0.703,9.149,0.9
		c2.799,0.201,5.597,0.352,8.4,0.45c2.798,0.103,5.798,0.15,9,0.15c6.6,0,13.2-0.197,19.8-0.6c6.6-0.398,14.297-1.097,23.1-2.1v9
		c-6,0-11.001,0.501-15,1.5c-4.003,1.003-7.35,2.503-10.05,4.5c-2.7,2.001-5.1,4.5-7.2,7.5c-2.1,3-4.152,6.6-6.149,10.8
		L1648.977,541.88z"/>
</g>
<g>
	
		<radialGradient id="SVGID_8_" cx="-13333.0195" cy="1093.8555" r="188.7603" gradientTransform="matrix(0.0184 -0.0362 0.8867 0.4516 -437.9124 -522.6864)" gradientUnits="userSpaceOnUse">
		<stop  offset="0" style="stop-color:#CBE0F4"/>
		<stop  offset="1" style="stop-color:#FFFFFF;stop-opacity:0"/>
	</radialGradient>
	<path fill="url(#SVGID_8_)" d="M289.847,446.82c92.438,47.076,165.817,88.297,163.896,92.069
		c-1.92,3.771-78.414-31.334-170.852-78.41c-92.44-47.077-165.819-88.298-163.898-92.069
		C120.914,364.638,197.407,399.743,289.847,446.82z"/>
	
		<radialGradient id="SVGID_9_" cx="47905.2969" cy="-378.0347" r="188.762" gradientTransform="matrix(0.0355 0.0181 -0.4516 0.8867 -1583.4802 -76.4656)" gradientUnits="userSpaceOnUse">
		<stop  offset="0" style="stop-color:#CBE0F4"/>
		<stop  offset="1" style="stop-color:#FFFFFF;stop-opacity:0"/>
	</radialGradient>
	<path fill="url(#SVGID_9_)" d="M293.064,457.058c-47.077,92.438-88.238,165.848-91.935,163.965s31.468-78.348,78.545-170.785
		c47.076-92.439,88.237-165.849,91.935-163.966S340.141,364.619,293.064,457.058z"/>
	<radialGradient id="SVGID_10_" cx="286.3691" cy="453.6484" r="99.0293" gradientUnits="userSpaceOnUse">
		<stop  offset="0" style="stop-color:#CBE0F4"/>
		<stop  offset="1" style="stop-color:#FFFFFF;stop-opacity:0"/>
	</radialGradient>
	<circle fill="url(#SVGID_10_)" cx="286.369" cy="453.648" r="99.029"/>
</g>
</svg>
