<?xml version="1.0" encoding="utf-8"?>
<!-- Generator: Adobe Illustrator 16.0.0, SVG Export Plug-In . SVG Version: 6.00 Build 0)  -->
<!DOCTYPE svg PUBLIC "-//W3C//DTD SVG 1.1//EN" "http://www.w3.org/Graphics/SVG/1.1/DTD/svg11.dtd">
<svg version="1.1" id="Layer_1" xmlns="http://www.w3.org/2000/svg" xmlns:xlink="http://www.w3.org/1999/xlink" x="0px" y="0px"
	 width="100px" height="80px" viewBox="0 0 100 80" enable-background="new 0 0 100 80" xml:space="preserve">
<title>logo_20cs</title>
<g id="logo_20cs">
	<g id="Combined-Shape" transform="translate(0.000000, -0.000200)">
		<path fill="#FEFEFE" d="M-44.581,57.622c3.535,1.19,6.738,2.603,10.358,3.743c0.396,0.191,0.448-0.018,0.451-0.276l-0.003-0.216
			c-0.002-0.118,0.004-0.228,0.043-0.295c0.178-0.455,0.619-0.551,0.982-0.729c1.184-0.428,2.879-0.253,3.666,0.883l0,0
			l0.028,11.313l4.378,0.684v2.354l-75.828-8.616c-2.605-0.478-6.151-0.333-8.251,1.033c-1.699,1.116-2.898,3.033-2.488,5.156
			c0.274,1.537,1.653,2.798,3.006,3.401c0.713,0.359,1.104,0.561,2.048,0.914c0.511,0.354-0.568,0.302-0.944,0.454l0,0L-124.677,80
			v-1.74l4.924-0.708v-12.63c0.046-0.961,1.014-1.362,2.066-1.362c1.3,0,2.238,0.507,2.238,1.241l0,0v12.121l4.479-0.659
			c-1.6-1.611-2.558-3.862-2.013-6.214c0.586-2.55,3.167-4.598,5.559-5.023l0,0l16.461-1.996l44.552-5.303L-44.581,57.622z
			 M-45.301,60.301l-45.878,4.929l57.396,6.364v-7.398L-45.301,60.301z M-36.76,0l5.118,53.311c0.076,0.524,0.027,1.238-0.66,1.412
			c-0.54,0.205-0.889-0.174-1.061-0.53l0,0l-1.516-6.577l-10.234-4.064l-4.03,0.677c1.04,0.122,1.969,0.528,2.747,1.22l0,0
			l-1.473,2.564c-0.938-0.803-2.274-0.729-3.25-0.574c-0.935,0.149-1.295,0.674-1.297,1.264c-0.001,0.711,0.67,0.854,1.887,0.955
			c1.83,0.198,4.314,0.371,4.309,3.508c-0.002,1.172-0.289,2.209-0.841,3.049l0,0l-8.109,1.008c-0.153-0.133-0.299-0.271-0.437-0.42
			l0,0l1.343-2.558c0.772,0.866,2.099,1.162,3.595,0.965c0.977-0.128,1.578-0.722,1.579-1.38c0.002-0.782-0.714-0.99-1.888-1.133
			c-1.801-0.194-4.209-0.299-4.203-3.48c0.001-0.421,0.052-0.839,0.152-1.245l0,0l-5.277-1.589c2.092,0.645,3.523,2.754,3.52,5.785
			c-0.005,2.195-0.762,4.125-1.976,5.499l0,0l-7.722,0.96c-1.133-1.041-1.824-2.703-1.821-4.786
			c0.003-1.829,0.542-3.491,1.444-4.798l0,0l-3.393-1.273l-0.031,0.007l-0.02,11.324l-2.445,0.304l0.016-8.463l-4.906-1.475
			c1.73,0.591,2.857,2.435,2.852,5.297c-0.003,2.137-0.637,3.895-1.676,5.102l0,0l-6.936,0.861l0.016-9.656l-2.02-0.758
			l-0.021,0.003l-0.011,6.711c-0.003,1.534-0.325,2.984-1,4.077l0,0l-5.736,0.712c-0.64-0.901-0.94-2.219-0.937-3.677l0,0
			l0.009-5.655l-1.629-0.606h-0.002l0.279,2.67l-2.192,0.347l-0.013,7.479l-1.992,0.246l0.013-7.411l-2.13,0.336l0.137-1.342
			l-2.485-0.748c0.561,0.171,1.07,0.501,1.507,0.995l0,0l-0.972,2.048c-0.62-0.674-1.503-0.646-2.149-0.544
			c-0.621,0.099-0.86,0.518-0.861,0.998c-0.001,0.58,0.444,0.711,1.251,0.822c1.211,0.202,2.85,0.399,2.845,2.945
			c-0.001,0.885-0.166,1.668-0.481,2.314l0,0l-5.554,0.689c-0.064-0.076-0.127-0.152-0.186-0.232l0,0l0.894-2.061
			c0.515,0.722,1.395,0.99,2.387,0.859c0.647-0.084,1.045-0.556,1.046-1.092c0.001-0.635-0.472-0.819-1.25-0.96
			c-1.195-0.196-2.797-0.333-2.792-2.931c0.001-0.88,0.225-1.738,0.658-2.432l0,0l-1.8-0.677l-0.028-2.316l63.486-11.199
			l9.506,3.774l-3.244-14.077l-5.99-2.333l-4.543,8.778l-0.006,3.44l-2.705,0.48l0.006-3.406l-3.305-5.196l-3.006-0.905
			l-0.012,0.001c0.424,0.112,0.78,0.303,1.062,0.581c0.297,0.292,0.521,0.656,0.672,1.09c0.151,0.435,0.226,1.168,0.226,1.701
			c-0.002,0.954-0.207,2.017-0.613,2.688c-0.361,0.594-0.872,1.218-1.533,1.6l0,0l1.816,2.68l-3.064,0.545l-1.657-2.468
			l-0.005,2.764l-2.57,0.456l0.018-9.784l-1.695-0.635l-0.013,7.187c-0.003,1.451-0.187,2.697-0.744,3.665l0,0l-6.649,1.183
			c-0.531-0.754-0.705-1.896-0.703-3.281l0,0l0.013-6.286l-1.297-0.487l0.191,2.66l-2.523,0.513l-0.013,7.651l-2.283,0.406
			l0.013-7.592l-2.485,0.506l0.137-1.918l-1.214-0.455l-0.017,10.095l-2.848,0.506l-3.851-4.383l-0.009,5.068l-2.181,0.388
			l0.016-8.838l-1.726-0.647l0.404,2.409l-4.556,0.929l-0.003,1.857l3.727-0.737l-0.004,2.477l-3.727,0.71l-0.003,1.917l4.607-0.85
			l-0.169,1.029l-6.518,1.159l0.015-8.097l-2.453-0.724c0.605,0.192,1.119,0.537,1.497,0.917l0,0l-1.002,2.196
			c-0.538-0.634-1.299-0.697-1.96-0.563c-1.219,0.247-2.11,1.587-2.113,3.279c-0.003,1.69,0.939,2.625,2.159,2.397
			c0.724-0.134,1.452-0.68,1.907-1.305l0,0l0.995,1.809c-0.071,0.1-0.148,0.199-0.227,0.299l0,0l-5.616,0.999
			c-0.769-0.832-1.248-2.155-1.245-3.824c0.003-1.776,0.518-3.363,1.349-4.509l0,0l-1.802-0.678v-2.147l64.167-14.466l4.855,2.02
			l-1.777-7.628l-4.41-1.871v6.34l-2.284,0.455v-4.368c-0.005-0.161,0.007-0.339,0.021-0.518l0.017-0.213
			c0.038-0.562,0.024-1.053-0.583-0.911c-0.361,0-0.977,0.455-1.027,0.83l0,0v5.607l-2.537,0.554V15.106l-10.264-4.444l-0.688-0.154
			c0.91,1.387,1.474,2.934,1.795,4.57c0.617,5.835-2.338,10.606-7.014,13.868l0,0l-8.832,2.119c-2.935,0.28-5.74-0.81-7.738-3.11
			c-2.334-2.852-2.532-7.247-1.425-10.782l0,0l-1.97-0.954c2.831,7.091-6.225,12.421-7.131,14.947l0,0l7.625-1.646v3.993
			l-18.709,4.398v-2.577l9.974-11.348c1.473-1.662,3.348-3.074,2.775-4.738c-0.216-0.582-0.836-0.864-1.323-1.04
			c-1.554-0.298-2.84,0.357-3.943,1.31c-0.836,0.84-1.203,1.927-1.255,2.478l0,0l-6.074,1.387c0.222-1.584,0.493-2.725,1.03-3.984
			c1.674-3.613,5.34-6.37,9.083-6.893c4.088-0.689,6.872,2.07,10.436,3.307c1.622-2.883,4.36-5.913,7.209-7.481
			c3.749-2.32,9.234-2.19,13.221-0.505l0,0l12.237,5.278l1.054,0.382V9.923l2.439-1.107l6.598,3.184l-2.727-11.978L-36.76,0z
			 M-119.563,57.391l0.078,0.01c1.797,0.222,3.425,0.634,5.167,1.031c0.472,0.15,0.179,0.734,0.046,1.116
			c-0.441,1.083-1.517,1.817-2.633,1.839c-1.153,0.105-2.164-0.326-2.728-1.666c-0.395-0.985-0.512-2.471,0.148-2.32
			L-119.563,57.391z M-90.976,51.255l-0.011,6.269c-0.002,1.391,0.51,2.633,1.657,2.481c1.146-0.153,1.675-1.552,1.677-2.96l0,0
			l0.008-4.541L-90.976,51.255z M-77.142,55.104c0.004-1.914-0.901-3.148-2.542-2.891l0,0l-1.449,0.229l-0.011,6.505l1.435-0.19
			C-78.136,58.547-77.145,56.946-77.142,55.104z M-29.87,55.097c0.711-0.123,0.666,0.102,0.64,0.462
			c0.299,1.335-0.66,2.826-2.017,3.205c-1.922,0.402-3.176-0.635-3.639-2.123c-0.15-0.451,0.047-0.584,0.537-0.68
			C-32.872,55.737-31.349,55.408-29.87,55.097z M-104.973,0.022l-10.476,55.891c-0.173,0.557-0.833,0.83-1.351,0.705
			c-0.499-0.201-0.74-0.533-0.74-1.238l0,0l2.476-55.357H-104.973z M-59.743,52.595c0.004-2.159-1.145-3.411-2.908-3.132
			c-1.758,0.277-2.871,1.857-2.875,3.973c-0.004,2.097,1.105,3.373,2.863,3.141C-60.899,56.342-59.747,54.737-59.743,52.595z
			 M-90.42,37.645l-0.042,0.009l4.866,5.823l0.007-4.02L-90.42,37.645z M-71.489,33.675l-0.013,6.735
			c-0.002,1.412,0.228,2.388,1.642,2.126c1.412-0.262,1.58-1.32,1.582-2.745l0,0l0.009-4.909L-71.489,33.675z M-59.377,34.25
			c-0.278-0.236-0.557-0.213-1.373-0.046l0,0l-0.745,0.151l-0.005,2.642l0.745-0.146c0.831-0.164,1.066-0.258,1.329-0.566
			c0.207-0.244,0.403-0.649,0.405-1.146C-59.021,34.645-59.169,34.426-59.377,34.25z M-53.519,29.872l-0.016,0.003l2.779,4.331
			l1.436-2.759L-53.519,29.872z M-56.351,16.038v2.423l1.994-0.504v2.196l-1.994,0.437v5.577l-2.285,0.526V16.567L-56.351,16.038z
			 M-71.588,12.273c-2.639-0.403-4.896,0.708-6.817,2.372c-1.97,1.849-3.219,4.322-2.658,7.1c0.417,1.895,2.415,3.312,4.135,3.638
			c3.194,0.403,6.151-0.932,8.194-3.638c1.283-1.766,1.996-4.495,0.892-6.592C-68.659,13.663-69.987,12.55-71.588,12.273z
			 M-49.579,10.28v6.188c0.435-0.654,0.957-0.864,1.617-0.864c0.617-0.025,1.477,0.258,2.192,0.56l0,0l4.009,1.769l-1.002-4.393
			L-49.579,10.28z"/>
	</g>
</g>
<image overflow="visible" width="506" height="382" xlink:href="light_logo.png"  transform="matrix(1 0 0 1 -109.8496 -573.9844)">
</image>
<image overflow="visible" width="396" height="244" xlink:href="tsg_logo.png"  transform="matrix(1 0 0 1 173.4971 -139.9912)">
</image>
<g>
	<path fill="#FFFFFF" d="M70.815,17.979l11.136-3.712l-16.762,2.842l1.624,1.102l-6.206,1.218c-5.567-8.063-14.151-6.38-14.151-6.38
		c10.034,1.392,12.528,6.96,12.528,6.96l-2.379,0.348l2.379,1.856l-11.02,4.93l-1.566-4.176c-6.438,0.232-5.626,7.018-5.626,7.018
		l-4.35,1.218c1.392,3.306,10.382,8.004,10.382,8.004c-20.938,6.264-28.883,13.746-28.883,13.746
		c23.471-12.006,44.407-11.248,44.407-11.248l8.623,12.138l-6.196-18.057c-0.493-0.116-3.219,0.232-3.219,0.232
		c1.942-3.248,1.536-10.063,1.536-10.063c1.422-1.248,1.131-2.755,1.131-2.755L48.293,27.8l-0.097-0.251l17.689-5.162l-1.044-0.812
		l7.889-2.552L70.815,17.979z M52.459,30.709l8.98-5.133c1.005,7.579-1.324,10.556-1.324,10.556
		c-0.813,0.116-8.092,1.711-8.092,1.711C52.198,37.234,52.459,30.709,52.459,30.709z"/>
	<g>
		<path fill="#FFFFFF" d="M0,59.551h0.699v3.616h1.687v0.564H0V59.551z"/>
		<path fill="#FFFFFF" d="M9.269,59.551h0.779v4.181H9.269V59.551z"/>
		<path fill="#FFFFFF" d="M21.955,60.215l-0.469,0.417c-0.473-0.418-1.019-0.627-1.639-0.627c-0.542,0-0.994,0.158-1.355,0.473
			s-0.541,0.708-0.541,1.18c0,0.413,0.175,0.785,0.525,1.116c0.35,0.332,0.833,0.497,1.447,0.497c0.923,0,1.503-0.362,1.74-1.086
			h-1.25v-0.571h1.973c0,0.286-0.021,0.515-0.063,0.685c-0.043,0.171-0.13,0.358-0.264,0.563c-0.133,0.206-0.311,0.39-0.532,0.553
			s-0.459,0.278-0.712,0.349c-0.253,0.07-0.555,0.104-0.906,0.104c-0.799,0-1.437-0.227-1.913-0.68
			c-0.476-0.454-0.714-0.973-0.714-1.557c0-0.614,0.244-1.137,0.73-1.568c0.487-0.433,1.077-0.648,1.769-0.648
			c0.412,0,0.788,0.057,1.128,0.169C21.25,59.696,21.598,59.906,21.955,60.215z"/>
		<path fill="#FFFFFF" d="M29.579,59.551h0.734v1.607h2.571v-1.607h0.726v4.181h-0.726v-2.008h-2.571v2.008h-0.734V59.551z"/>
		<path fill="#FFFFFF" d="M40.526,59.551h3.401v0.57H42.6v3.61h-0.751v-3.61h-1.323V59.551z"/>
		<path fill="#FFFFFF" d="M60.797,59.551h3.4v0.57H62.87v3.61h-0.751v-3.61h-1.322V59.551z"/>
		<path fill="#FFFFFF" d="M54.11,60.068l-0.573,0.359c-0.151-0.123-0.289-0.215-0.412-0.275c-0.123-0.06-0.301-0.09-0.533-0.09
			c-0.254,0-0.461,0.045-0.619,0.134c-0.158,0.09-0.236,0.206-0.236,0.348c0,0.122,0.068,0.23,0.207,0.324
			c0.138,0.094,0.373,0.197,0.706,0.309c0.333,0.112,0.592,0.216,0.777,0.313c0.185,0.096,0.338,0.202,0.457,0.318
			c0.118,0.117,0.208,0.239,0.266,0.369c0.058,0.129,0.087,0.266,0.087,0.409c0,0.337-0.156,0.623-0.469,0.86
			c-0.314,0.237-0.693,0.355-1.138,0.355c-0.434,0-0.816-0.093-1.148-0.278c-0.333-0.185-0.588-0.463-0.767-0.834l0.707-0.155
			c0.258,0.455,0.652,0.684,1.184,0.684c0.258,0,0.473-0.061,0.643-0.181c0.171-0.121,0.256-0.272,0.256-0.457
			c0-0.109-0.044-0.22-0.134-0.33c-0.089-0.111-0.2-0.203-0.333-0.274c-0.133-0.072-0.346-0.154-0.635-0.247
			c-0.291-0.093-0.514-0.178-0.67-0.256c-0.157-0.077-0.293-0.169-0.406-0.276c-0.115-0.106-0.198-0.213-0.252-0.318
			c-0.053-0.106-0.078-0.22-0.078-0.34c0-0.29,0.148-0.537,0.446-0.741s0.661-0.307,1.087-0.307c0.281,0,0.566,0.048,0.857,0.143
			C53.677,59.729,53.918,59.873,54.11,60.068z"/>
		<path fill="#FFFFFF" d="M70.807,61.619c0-0.557,0.283-1.033,0.851-1.431c0.567-0.396,1.25-0.596,2.048-0.596
			c0.777,0,1.447,0.2,2.009,0.601c0.563,0.4,0.844,0.875,0.844,1.426c0,0.582-0.278,1.074-0.833,1.477s-1.237,0.604-2.045,0.604
			c-0.797,0-1.475-0.203-2.035-0.607C71.086,62.687,70.807,62.195,70.807,61.619z M75.801,61.643c0-0.425-0.208-0.783-0.623-1.074
			c-0.414-0.291-0.925-0.437-1.531-0.437c-0.576,0-1.068,0.148-1.479,0.444s-0.616,0.651-0.616,1.066
			c0,0.422,0.211,0.778,0.633,1.069s0.938,0.437,1.549,0.437c0.563,0,1.048-0.148,1.456-0.446
			C75.596,62.405,75.801,62.052,75.801,61.643z"/>
		<path fill="#FFFFFF" d="M83.801,59.551h1.153c0.574,0,1.042,0.112,1.402,0.336c0.36,0.225,0.542,0.512,0.542,0.861
			c0,0.28-0.117,0.527-0.352,0.741c-0.232,0.215-0.597,0.365-1.092,0.453l1.547,1.789h-0.834l-1.477-1.72h-0.164v1.72h-0.727V59.551
			z M84.527,60.056v1.458c1.073,0.017,1.609-0.227,1.609-0.732c0-0.177-0.063-0.322-0.188-0.435s-0.293-0.189-0.502-0.23
			C85.238,60.076,84.932,60.056,84.527,60.056z"/>
		<path fill="#FFFFFF" d="M98.545,59.377L100,63.731h-0.712l-0.88-2.661l-1.516,2.822l-1.521-2.845l-0.893,2.684h-0.707l1.455-4.354
			l1.665,3.115L98.545,59.377z"/>
	</g>
	<g>
		<path fill="#FFFFFF" d="M16.524,64.708h1.59v0.312h-1.203v0.57h1.203v0.308h-1.203v0.785h1.203v0.309h-1.59V64.708z"/>
		<path fill="#FFFFFF" d="M32.677,64.708h1.59v0.312h-1.203v0.57h1.203v0.308h-1.203v0.785h1.203v0.309h-1.59V64.708z"/>
		<path fill="#FFFFFF" d="M21.623,64.616l1.975,1.736v-1.645h0.365v2.389l-1.975-1.728v1.622h-0.365V64.616z"/>
		<path fill="#FFFFFF" d="M57.889,64.616l1.975,1.736v-1.645h0.365v2.389l-1.975-1.728v1.622h-0.365V64.616z"/>
		<path fill="#FFFFFF" d="M27.526,64.708h1.668v0.312h-0.651v1.972h-0.368V65.02h-0.649V64.708z"/>
		<path fill="#FFFFFF" d="M70.455,64.708h1.59v0.312h-1.202v0.57h1.202v0.308h-1.202v0.785h1.202v0.309h-1.59V64.708z"/>
		<path fill="#FFFFFF" d="M75.555,64.616l1.975,1.736v-1.645h0.364v2.389l-1.975-1.728v1.622h-0.364V64.616z"/>
		<path fill="#FFFFFF" d="M81.398,64.708h1.669v0.312h-0.651v1.972h-0.367V65.02h-0.65V64.708z"/>
		<path fill="#FFFFFF" d="M42.829,64.708h1.668v0.312h-0.651v1.972h-0.368V65.02h-0.649V64.708z"/>
		<path fill="#FFFFFF" d="M37.887,64.708h0.581c0.289,0,0.524,0.062,0.706,0.184c0.181,0.122,0.272,0.279,0.272,0.471
			c0,0.152-0.059,0.287-0.176,0.404c-0.118,0.117-0.3,0.2-0.549,0.247l0.778,0.978h-0.42l-0.744-0.939h-0.082v0.939h-0.366V64.708z
			 M38.253,64.984v0.796c0.54,0.009,0.81-0.124,0.81-0.4c0-0.097-0.032-0.176-0.095-0.237s-0.147-0.104-0.252-0.125
			C38.61,64.995,38.457,64.984,38.253,64.984z"/>
		<path fill="#FFFFFF" d="M49.059,64.62l1.286,2.371h-0.39l-0.315-0.584h-1.156l-0.313,0.584h-0.387L49.059,64.62z M49.058,65.333
			l-0.436,0.814h0.876L49.058,65.333z"/>
		<path fill="#FFFFFF" d="M53.719,64.708h0.518v2.283h-0.518V64.708z"/>
		<path fill="#FFFFFF" d="M66.192,64.613l0.737,2.378h-0.361l-0.445-1.453l-0.768,1.541l-0.77-1.554l-0.451,1.466h-0.359
			l0.737-2.378l0.843,1.702L66.192,64.613z"/>
	</g>
</g>
<text transform="matrix(1 0 0 1 -527.1665 -399.6665)" fill="#FFFFFF" font-family="'TwCenMT-Regular'" font-size="30" letter-spacing="27">LIGHTSTORM</text>
<text transform="matrix(1 0 0 1 -453.9165 -386.9165)" fill="#FFFFFF" font-family="'TwCenMT-Regular'" font-size="14" letter-spacing="14">ENTERTAINMENT</text>
</svg>
