<?xml version="1.0" encoding="utf-8"?>
<!-- Generator: Adobe Illustrator 16.0.0, SVG Export Plug-In . SVG Version: 6.00 Build 0)  -->
<!DOCTYPE svg PUBLIC "-//W3C//DTD SVG 1.1//EN" "http://www.w3.org/Graphics/SVG/1.1/DTD/svg11.dtd">
<svg version="1.1" id="Layer_1" xmlns="http://www.w3.org/2000/svg" xmlns:xlink="http://www.w3.org/1999/xlink" x="0px" y="0px"
	 width="150px" height="20px" viewBox="0 0 150 20" enable-background="new 0 0 150 20" xml:space="preserve">
<g>
	<path fill="#FFFFFF" d="M148.153,11.057c0.078-0.136,0.034-0.447-0.179-0.384l-0.15,0.527L148.153,11.057z"/>
	<path fill="#FFFFFF" d="M146.727,10.083c-0.25,0.255-0.537,0.704-0.376,1.187c0.247-0.505,0.307-0.294,0.572-0.897
		c0.213-0.061,0.371,0.169,0.336,0.364c0.074-0.135,0.329,0.115,0.444-0.216c-0.277-0.407-0.627-0.424-0.992-0.087
		C146.632,10.317,146.708,10.18,146.727,10.083z"/>
	<path fill="#FFFFFF" d="M125.976,9.261l0.134,0.063C126.072,9.289,126.027,9.27,125.976,9.261z"/>
	<path fill="#FFFFFF" d="M113.119,8.972c0.098-0.012,0.139-0.065,0.144-0.113C113.172,8.894,113.098,8.926,113.119,8.972z"/>
	<path fill="#FFFFFF" d="M110.923,8.391c0.049,0.017,0.087,0.024,0.131,0.036C111.004,8.378,110.954,8.352,110.923,8.391z"/>
	<path fill="#FFFFFF" d="M125.976,9.261l-0.343-0.166C125.607,9.267,125.809,9.223,125.976,9.261z"/>
	<path fill="#FFFFFF" d="M143.864,11.353c0.072-0.026,0.132-0.075,0.187-0.139c-0.06,0.022-0.115,0.042-0.175,0.056
		C143.873,11.298,143.87,11.322,143.864,11.353z"/>
	<path fill="#FFFFFF" d="M131.643,8.833h0.104c0.031-0.061,0.061-0.133,0.087-0.214L131.643,8.833z"/>
	<path fill="#FFFFFF" d="M135.993,8.752c-0.1-0.019-0.134,0.428-0.171,0.624c0.056-0.184,0.129-0.272,0.215-0.306
		C136.038,8.984,136.025,8.883,135.993,8.752z"/>
	<path fill="#FFFFFF" d="M142.89,9.54l0.122-0.062C142.981,9.497,142.927,9.516,142.89,9.54z"/>
	<path fill="#FFFFFF" d="M128.529,8.737c-0.006-0.067-0.021-0.125-0.038-0.16C128.491,8.633,128.507,8.687,128.529,8.737z"/>
	<path fill="#FFFFFF" d="M6.874,12.099c0.003-0.032-0.002-0.052-0.001-0.079C6.847,12.064,6.839,12.096,6.874,12.099z"/>
	<path fill="#FFFFFF" d="M1.832,9.883l0.07-0.024c0.007-0.085,0.015-0.168,0.015-0.25L1.832,9.883z"/>
	<path fill="#FFFFFF" d="M106.907,7.818c0.008,0.005,0.009,0.005,0.017,0.008C107.029,7.776,106.971,7.784,106.907,7.818z"/>
	<path fill="#FFFFFF" d="M70.027,8.148c0.417,0.399-0.681,0.513-0.051,0.958C69.917,8.931,70.548,8.408,70.027,8.148z"/>
	<path fill="#FFFFFF" d="M143.752,11.293c-0.059,0.006-0.118,0.01-0.179,0.005C143.655,11.313,143.71,11.311,143.752,11.293z"/>
	<path fill="#FFFFFF" d="M69.976,9.105c0,0.001,0,0.004,0,0.004l0.065,0.042C70.015,9.133,69.999,9.121,69.976,9.105z"/>
	<path fill="#FFFFFF" d="M97.649,8.087c0.02,0.079,0.057,0.138,0.096,0.196C97.741,8.237,97.72,8.181,97.649,8.087z"/>
	<path fill="#FFFFFF" d="M104.546,8.723l-0.171-0.059C104.443,8.705,104.498,8.718,104.546,8.723z"/>
	<path fill="#FFFFFF" d="M94.07,8.718c-0.093-0.034-0.124-0.096-0.252-0.036c0.013,0.022,0.023,0.039,0.039,0.055
		C93.904,8.676,93.965,8.647,94.07,8.718z"/>
	<path fill="#FFFFFF" d="M90.344,8.722c0.02,0.034,0.045,0.059,0.068,0.09c0.037-0.009,0.08-0.016,0.118-0.025L90.344,8.722z"/>
	<path fill="#FFFFFF" d="M18.198,11.883c-0.082-0.126-0.133-0.265-0.171-0.401C18.084,11.799,17.536,11.913,18.198,11.883z"/>
	<path fill="#FFFFFF" d="M143.862,11.101c-0.021,0.113-0.053,0.169-0.11,0.192c0.044-0.004,0.084-0.014,0.124-0.023
		C143.888,11.203,143.889,11.141,143.862,11.101z"/>
	<path fill="#FFFFFF" d="M93.918,12.248l-0.592-0.067C93.492,12.225,93.707,12.248,93.918,12.248z"/>
	<path fill="#FFFFFF" d="M44.934,11.819l-0.137,0.054C44.85,11.883,44.898,11.87,44.934,11.819z"/>
	<path fill="#FFFFFF" d="M91.569,12.248c-0.105-0.159-0.218-0.251-0.334-0.31c-0.023,0.034-0.051,0.063-0.068,0.115L91.569,12.248z"
		/>
	<path fill="#FFFFFF" d="M18.025,11.477c0.002,0.002,0.002,0.005,0.002,0.005S18.027,11.479,18.025,11.477z"/>
	<path fill="#FFFFFF" d="M14.125,12.539c0.564,0.014,0.264-0.576,0.384-0.913c0.674-0.167,0.313,0.433,0.541,0.733
		c0.421-0.155,0.743-0.694,1.057-0.672c0.023,0.097,0.084,0.132,0.013,0.253c0.444-0.467,1.319-0.022,1.838-0.61
		c0.038,0.053,0.058,0.102,0.067,0.146c-0.084-0.295-0.096-0.593-0.079-0.806c0.252-0.011,0.469-0.371,0.564,0.013
		c-0.155-0.011-0.167,0.144-0.241,0.265l0.266-0.168c0.238,0.552-0.362,0.191-0.362,0.599c0.517-0.179,1.119-0.636,1.515-0.48
		c0.083,0.541-0.926,0.181-0.398,0.662l-0.612-0.207c0.468,0.854-0.373-0.059,0.058,0.854c0.807,0.157,0.901-0.274,1.707-0.118
		c0.18-0.3-0.061-0.443,0.121-0.744c1.143-0.54,0.9,1.358,1.74,0.639c0.217-0.36,0.302-1.043,0.9-0.683L23,11.913
		c0.781,0.06,0.445-0.88,1.263-0.468c-0.145,0.239-0.613,0.203-0.495,0.275c0.529,0.481,0.375-0.347,0.782-0.347l0.085,0.541
		c0.831-0.086,1.746-0.476,2.667-0.575c-0.051,0.162-0.209,0.331,0.006,0.496c1.161-0.271,2.478,0.066,3.598,0.387l0.427-0.466
		c0.1,0.004,0.185,0.21,0.078,0.301c0.436,0.178,0.022-0.297,0.232-0.479c0.249-0.033,0.328,0.269,0.171,0.408
		c0.77-0.396,2.194-0.854,3.005-0.353l-0.158,0.139c0.631,0.189,0.713-0.958,1.299-0.522l-0.113,0.084
		c1.372,0.201,2.887-0.226,3.934,0.479c0.199-0.673,1.357,0.3,1.446-0.638c0.782,0.465,0.558,0.632,1.661,0.944
		c0.294,0.044,0.438-0.586,0.803-0.684l0.009,0.49l0.494-0.515l0.264,0.587l0.341-0.126c-0.135-0.029-0.289-0.221-0.268-0.362
		c0.534-0.222,1.3,0.342,1.314,0.594l1.262-0.415c-0.028,0.197-0.239,0.266-0.407,0.392c0.675-0.501,0.123,0.517,0.74,0.058
		c-0.082-0.111,0.045-0.292,0.059-0.392c0.308,0.297,1.009,0.3,1.526,0.174l-0.1,0.339c0.937,0.086,1.974-0.163,3.025-0.156
		c-0.377-0.157-0.291-0.743,0.018-0.801l0.124,0.52c0.199-0.32-0.321-0.196,0.086-0.588c0.393,0.059,0.264,0.589,0.038,0.758
		l0.477-0.18c0.028,0.154-0.084,0.236-0.112,0.434c0.196-0.321,0.824,0.521,1.105-0.039l0.026,0.154
		c1.051,0.005,1.528-0.174,2.383-0.2c0.017-0.447,0.352-0.348,0.606-0.71c0.629,0.143,1.327,0.495,2.084,0.457
		c0.533-0.224,0.155-0.379,0.395-0.645c0.04,0.407,0.795,0.369,0.404,0.661c0.909-0.065,1.161-0.081,2.312-0.412
		c-0.126-0.167-0.266-0.239-0.193-0.378c0.208-0.067,0.474,0.171,0.444,0.367l-0.054,0.041c1.29-0.611,2.978,1.188,4.007,0.34
		l-0.058,0.042l1.064-0.443c0.491,0.069-0.293,0.307,0.07,0.558c1.148-0.679,1.817,0.1,2.763-0.354
		c0.732,1.203,2.601-0.083,3.589,0.685l-0.056-0.284c0.255-0.277,0.31,0.163,0.498,0.228c-0.026-0.221-0.277-0.255-0.118-0.408
		c2.166-0.342,4.471,0.413,6.691,0.669c0.812,0.075,0.46-1.465,1.484-0.789l-0.29,0.525c1.64-0.631,3.351,0.022,4.956-0.513
		c-0.097,0.121-0.1,0.278-0.255,0.276c0.339,0.383,1.253,0.019,1.259-0.293c0.249,0.035,0.058,0.282,0.212,0.441
		c0.339,0.225,0.853-0.488,1.033-0.108c0.031,0.062-0.095,0.123-0.157,0.153c0.221-0.186,1.032,0.047,0.819-0.394
		c0.602,0.21,1.151-0.195,1.632,0.065c0.314-0.493,1.03,0.236,1.13-0.46c-0.042,0.72,1.057,0.58,1.438,0.242
		c-0.127,0.218,0.331,0.226,0.183,0.527c0.434-0.012,0.833-0.145,0.757-0.515c0.8,0.861,1.608-0.693,2.059,0.411
		c1.29-0.388,2.485-0.648,3.646-0.818c-0.042,0.719-1.283,0.072-1.233,0.826c1.102-0.296,1.737-0.912,2.828-0.739
		c0.283,0.098-0.16,0.312-0.255,0.435c1.101-0.297,2.128,0.065,3.107-0.326c-0.004,0.067-0.109,0.141-0.209,0.194
		c0.193-0.023,0.449,0.106,0.428-0.22l-0.189,0.088c-0.308-0.475,0.768-0.989,0.802-1.239c-0.328,0.934,0.967,0.235,0.446,1.416
		c0.127-0.061,0.287-0.216,0.258-0.435c0.188,0.064,0.247,0.191,0.058,0.439c0.69-0.177,0.444-0.523,1.071-0.517
		c-0.002,0.157-0.13,0.22-0.193,0.405c0.317-0.309,0.636-0.617,1.164-0.482c-0.031,0.096,0.03,0.219-0.127,0.217
		c0.907-0.049,1.548-0.821,2.546-0.523c-0.294,0.685,0.339,0.226,0.392,0.819l0.536-0.177l-0.215-0.287
		c0.47,0.009,0.885-0.423,1.289-0.228l-0.35,0.244l0.881-0.112l-0.499-0.225c0.476-0.306-0.051-0.752,0.573-0.586
		c-0.126,0.06,0.472,0.007,0.715,0.357c0,0-0.001,0-0.001,0.002c0.233-0.19,0.471-0.389,0.819-0.241
		c0.09,0.19-0.073,0.657-0.015,0.783c0.229-0.497,1.101-0.138,1.392-0.666c-0.099,0.125-0.103,0.435-0.071,0.499l0.192-0.403
		c0.218,0.129,0.25,0.191,0.215,0.44c0.654,0.073-0.209-0.754,0.568-0.429c-0.061,0.032-0.031,0.093-0.158,0.154
		c0.78,0.17,1.508-0.256,2.224-0.058c0.212,0.598-0.626,0.147-0.384,0.651c1.032-0.109,2.139-0.716,3.14-0.576l-0.187-0.066
		c0.139-0.843,0.744,0.417,1.251,0.02c-0.124,0.063-0.163,0.468-0.129,0.374c0.684,0.136,1.4-0.206,2.438-0.472l-0.128,0.217
		c0.404,0.193,1.063,0.11,1.498,0.209c0.131-0.216,0.38-0.181,0.228-0.497c1.346,1.235,2.564-0.662,3.758,0.368
		c-0.143,0.002-0.34,0.189-0.227,0.189l1.017-0.199c-0.081-0.368-0.134-0.223-0.347-0.508c0.129-0.219,0.415-0.387,0.667-0.387
		c-0.457,0.243,0.004,0.591,0.201,0.796c-0.034-0.113,0.034-0.238,0.018-0.352c0.531,0.654,0.089-0.74,0.814-0.299l-0.039,0.193
		c0.271-0.098,0.521-0.354,0.814-0.298c0.121,0.426-0.289,0.199-0.308,0.548c0.41-0.025,0.81-0.806,1.182-0.382
		c-0.175,0.119-0.425,0.122-0.601,0.239c0.406,0.499,0.452,0.372,0.754,0.452l-0.029-0.012l0.694,0.226l-0.177-0.136
		c0.515-1.108,1.048-0.202,1.739-0.928c-0.673,0.688-0.11,0.398-0.162,0.88c0.176,0.133,0.445,0.284,0.369,0.418
		c0.327-0.389,0.545,0.307,1.008-0.262c0.021,0.154,0.351,0.016,0.277,0.404c0.424-0.121-0.102-0.27-0.065-0.465
		c0.656-0.529,1.542,0.644,2.485-0.084c0.813-0.299,0.964-0.823,1.719-1.083c0.255,0.248-0.21,0.565-0.21,0.565
		c0.412,0.229,0.722,0.187,1.108,0.009c-0.078,0.135,0.003,0.25,0.121,0.424c0.311-0.04,0.207-0.565,0.617-0.336
		c-0.07,0.173-0.16,0.449-0.311,0.623c0.366-0.143,0.729-0.432,1.107-0.572c0.102,0.271-0.229,0.41-0.361,0.587
		c0.426-0.121,1.104-0.246,1.235-0.673l-0.273-0.152c0.155-0.022,0.079,0.367-0.034,0.445c-0.365,0.335-0.527-0.148-0.549-0.303
		l0.271-0.1c-0.276-0.911-1.085,0.146-1.629,0.093l0.227-0.662l-0.556,0.548c-0.12-0.172-0.201-0.542,0.068-0.64
		c-0.391-0.328-0.346,0.235-0.682-0.13c-0.037-0.057-0.02-0.088,0.015-0.115l-0.381,0.197c0.074-0.139-0.063-0.467,0.171-0.372
		c-0.684-0.382-1.103,0.497-1.36-0.005l0.058-0.041c-0.948,0.224-0.092,0.486-0.804,1.056l-0.479-1.199l-0.093,0.487
		c-0.099-0.018-0.291-0.055-0.255-0.249c-0.365,0.333,0.062,0.211-0.149,0.525c-0.471-0.443-1.3,0.207-1.405-0.567
		c-0.169,0.37,0.451,0.286-0.053,0.542c-0.143-0.833-0.581,0.143-1.012-0.239c0.134-0.431,0.541-0.202,0.11-0.586
		c-0.26,0.726-0.838-0.159-1.201-0.02c-0.018,0.578-0.79,0.241-1.397,0.434c0.039-0.194-1.146-0.317-1.713-0.527l0.017-0.097
		c-0.11,0.584-0.694,0.474-1.119,0.595c0.016-0.351,0.094-0.487,0.324-0.644l-0.401,0.003c-0.094,0.187-0.218,0.286-0.479,0.353
		l0.101-0.437c-0.531,0.023-1.07,0.515-1.756,0.222c-0.039,0.407,0.544,1.135-0.181,1.407c-0.026-0.22-0.053-0.597,0.137-0.687
		c-0.063,0.028-0.222,0.184-0.347,0.088l0.289-0.37c-0.313-0.163-0.163,0.309-0.413,0.275c0.006-0.314-0.184-0.225-0.147-0.474
		c0.063-0.03,0.218,0.13,0.313,0.006c-0.281-0.056-0.622-0.242-0.734-0.48c0.025,0.179,0,0.422-0.205,0.464
		c-0.533,0.022-0.184-0.378-0.492-0.54c-0.129,0.219-0.47-0.008-0.478,0.462c-0.157-0.002-0.185-0.222-0.245-0.349
		c-0.275,0.208-1.287,0.059-0.977,0.56l0.07,0.033c-0.013,0.009-0.028,0.01-0.045,0.02c0.003,0,0,0,0.003,0h-0.003
		c-0.903,0.468-1.876-0.266-2.771-0.065l0.002-0.157c-0.535,0.18-1.191,0.106-1.573,0.444c-0.158,0-0.373-0.288-0.307-0.474
		c-0.408,0.118-0.453,0.295-1.044,0.036c0.41-0.275-0.142-0.243,0.421-0.202c-0.531-0.136-0.652-0.388-1.222,0.042
		c0.193-0.402-0.4-0.506-0.652-0.386l0.371,0.288c-0.284,0.059-0.531,0.023-0.785-0.011l0.137-0.53
		c-1.086-0.644-1.96,1.096-2.788,0.019c-0.287,0.37,0.591,0.26,0.334,0.693c-0.5-0.071-1.021-0.832-1.178-0.833
		c-0.686-0.293-0.639,0.774-1.356,0.574c0.093,0.188,0.179,0.693-0.358,0.87c-0.5-0.07-0.613-0.792-0.298-0.943
		c0.119-0.016,0.177,0.044,0.173,0.108c0.161-0.069,0.374-0.15,0.175-0.354l-0.064,0.188c-0.247-0.192-0.937-0.172-0.774-0.482
		c-0.379,0.18-0.162,0.31,0.118,0.408c-0.642-0.274-1.003-0.008-1.663-0.192c0.104,0.104,0.202,0.325,0.097,0.324
		c-0.969-0.234-0.426,0.358-1.084,0.441c-0.373-0.288,0.134-0.688-0.526-0.446c-0.404-0.196-0.086-0.502,0.074-0.656
		c-0.602,0.365-1.125-0.239-1.469-0.306l0.317-0.152c-0.189,0.091-0.345,0.089-0.504,0.087l0.182,0.377
		c-0.187-0.065-0.345-0.067-0.34-0.224c-0.193,0.247,0.146,0.628-0.234,0.967c-0.249-0.193-0.756,0.205-0.843-0.295
		c0.781,0.169-0.086-0.503,0.575-0.584c-0.128,0.059-0.283,0.058-0.47-0.009c-0.028-0.056,0.026-0.104,0.078-0.132
		c-0.748-0.448-0.344,0.567-1.119,0.555c0.1-0.283-0.179-0.536-0.305-0.476c0.311,0.006,0.149,0.471-0.137,0.688
		c-0.498-0.22-0.541,0.164-0.801,0.138l0.297,0.104c-0.101,0.282-0.348,0.246-0.694,0.334c-0.03-0.22,0.313-0.152,0.19-0.249
		c-0.385,0.498-0.868-0.514-1.404-0.179c-0.249-0.192-0.025-0.531-0.243-0.661c-0.6,0.366-0.649-0.387-1.28-0.084
		c0.181,0.38,0.213,0.287-0.231,0.657l1.038-0.268l-0.667,0.553c0.314,0.005,0.662-0.239,0.849-0.174
		c-0.316,0.31-0.284,0.215-0.134,0.531c-0.429-0.57-0.85,0.331-1.346-0.053l0.016-0.94c-0.746-0.419-1.324,0.482-2.291,0.246
		l0.311,0.164c-0.13,0.374-0.597,0.053-0.91,0.204c0.029-0.314-0.167-0.428-0.3-0.624c0.017,0.233-0.708-0.021-0.796,0.606
		l-0.433-0.415c-0.78-0.169-0.891,0.896-1.642,0.789c0.226-0.342-0.114-0.564,0.388-0.809c-0.25-0.003-0.476-0.061-0.479,0.157
		c-0.148-0.196-0.696,0.424-0.927,0.125c-0.105,0.138-0.14,0.467-0.421,0.441c-0.031-0.064,0.001-0.156,0.001-0.156
		c-0.001,0.156-0.441,0.211-0.195,0.559c-0.771-0.98-2.157,0.07-2.83-0.771c-0.548,0.105-1.206,0.206-1.702,0.229
		c0.031-0.093,0.001-0.156,0.095-0.124c-0.686-0.292-0.421,0.902-1.2,0.576c-0.399-0.508,0.414-0.275,0.165-0.467
		c-0.107-1.034-0.94,0.141-1.466-0.462l0.128-0.061c-0.401-0.351-0.978,0.392-1.634,0.317c0,0,0.032-0.091,0.005-0.155
		c-0.448,0.527-1.297,0.701-1.928,0.848c0.196-0.405,0.286-0.213,0.168-0.625c-0.283,0.059,0.082,0.661-0.481,0.776
		c-0.184-0.222-0.591-0.415-0.644-0.854l0.531-0.024c-0.273-0.568-0.688,0.019-0.97-0.08l0.037-0.248
		c-0.815,0.081-0.827,0.706-1.703,0.66l0.09,0.188c-0.479,0.619-0.401-0.348-0.878,0.112L78.881,8.79
		c-0.317,0.151-1.106,0.607-1.674,0.726c0.321-0.466,0.983-0.704,1.394-0.98c-0.313-0.005-1.063,0.046-1.228,0.356
		c0.128-0.061,0.286-0.215,0.41-0.118c-0.384,0.494-0.889,0.737-1.514,0.726c0.112-1.218-1.626-0.306-2.08-1.252
		c-1.104,0.451-2.188-0.192-3.475-0.12c0.457,0.947-0.376,0.026-0.297,0.999c-0.3,0.063-0.414,0.047-0.44-0.016L69.07,8.528
		c-0.216-0.283,0.284-0.214,0.256-0.433c-0.656-0.075-0.275-0.413-0.708-0.671c0.088,0.348-0.229,0.499-0.602,0.366l0.525,0.449
		c-0.916,0.518-0.792-0.816-1.716-0.303l0.292-0.306c-0.474,0.18-1.749-0.006-2.213,0.775c-0.084-0.112-0.194-0.379,0.014-0.449
		c-1.133-0.117-2.522,0.832-3.402,0.351l0.085-0.238c-0.211,0.069-0.368,0.447-0.632,0.208c0.014-0.098,0.085-0.238-0.013-0.251
		c-0.112,0.082-0.563,0.417-0.842,0.278l0.239-0.267c-1.105-0.312-1.696,0.652-2.622,0.815c0.001-0.7-0.867-0.929-1.301-1.042
		l0.014-0.099c-1.287-0.086-2.186,0.581-3.377,0.855c-0.74-0.76-2.506-0.318-3.695-0.744c0.182,0.126-0.029,0.545-0.241,0.615
		c-0.28-0.142-0.771,0.486-0.728-0.156l0.1,0.013c-0.21-0.63-0.783-0.462-1.231-0.479l-0.075,0.84
		c-1.17-1.222-3.068,0.449-3.707-0.646c-0.283,0.209-0.633,0.207-0.914,0.418l0.015-0.451c-0.783-0.115-1.174-0.173-2.142-0.064
		l0.198-0.323c-0.546-0.029-0.688,1.299-1.192,1.326l-0.152-0.672c-0.952,0.01-1.917-0.581-2.856,0.03
		c0.016-0.1,0.043-0.294,0.197-0.32c-0.448-0.018-1.734-0.456-1.571,0.468c-0.011-0.602-0.982-0.059-1.497,0.206l0.08-0.444
		c-0.434,0.567-0.448,0.722-1.054,0.879c-0.144-0.058-0.126-0.355,0.065-0.242c-0.479-0.232-0.373,0.42-0.954,0.184l0.217-0.283
		c-0.493-0.034-0.453,0.118-0.725,0.448c-0.309,0.179-0.934-0.112-1.007-0.513c-0.066,0.245-0.335,0.572-0.626,0.456
		c-0.039-0.151,0.066-0.246,0.12-0.292c-0.824-0.301-1.225,0.516-1.791,0.08c-0.013-0.147-0.049-0.22-0.097-0.265
		c0.655,0.011,1.182,0.036,1.132,0.068c0-0.409-0.528-0.481-0.108-1.045c-0.424,0.308-1.15,0.978-1.665,0.786
		c-0.025-0.04-0.05-0.079-0.068-0.141l0.053-0.046C27.03,8.213,26.923,8.25,26.824,8.32c-0.165-0.068-0.269-0.117-0.427-0.124
		c-0.061-0.337-0.606-0.182-0.869-0.198c0.022,0.447-0.323,0.375,0,0.745c-0.042-0.032,0.05-0.054,0.225-0.072
		c0.04-0.013,0.086-0.02,0.113-0.046c-0.005,0.012-0.012,0.026-0.019,0.04c0.173-0.013,0.399-0.023,0.656-0.03
		c-0.208,0.228-0.426,0.419-0.718,0.17c-0.135,0.288-0.284,0.583-0.367,0.722c-0.361-0.624-1.056-0.961-1.153-1.346
		c-0.805,0.251-1.896,0.166-2.401,1.007c-0.229,0.107-0.263-0.241-0.349-0.373c0.132-0.085,0.289-0.072,0.36-0.193
		c-0.458,0.216-1.355,0.084-1.465,0.671c-0.577-0.266,0.325-0.541-0.468-0.444l0.107-0.181c-1.559-0.938-2.534,1.499-4.262,0.295
		c0.12,0.074,0.179,0.108,0.204,0.206c-1.97-0.531-4.06,0.499-6.004-0.343c-0.552-0.169-0.612,0.205-0.95,0.49l-0.12-0.481
		L8.34,9.388C7.523,9.794,6.925,8.208,5.89,8.977L6.023,9.3C5.652,9.239,4.846,9.491,4.908,9.12C4.87,9.179,4.786,9.455,4.641,9.287
		L4.629,9.036l-0.912,0.43c-0.709-0.182,0.11-0.998-0.923-1.046C2.41,8.517,1.701,9.151,1.845,9.32
		C1.999,9.333,2.24,9.476,2.252,9.729L1.901,9.859c-0.064,0.741-0.334,1.499,0.528,2.017l0.6-0.452l0.194,0.359l-0.506,0.021
		c0.287,0.339,0.468,0.039,0.672-0.166c0.048,0.19,0.132,0.324,0.252,0.396l0.59-0.709c0.071,0.291-0.265,0.576,0.131,0.736
		c0.276-0.329-0.265-0.65,0.193-0.866c0.287,0.337,0.204,0.611,0.541,0.324c0.047,0.19-0.025,0.313-0.158,0.396
		c0.301-0.229,0.795-0.098,0.949-0.491c0.3,0.415,1.014-0.108,0.985,0.594c0.094-0.168,0.529-0.551,0.804-0.58
		c-0.503,0.839,1.033,0.049,0.9,0.949c0.373-0.755,1.347-0.335,2.007-0.754c-0.037,0.06-0.109,0.181-0.168,0.143
		c0.373,0.063,0.479,0.29,0.719,0.433c0.048-0.623,0.626-0.766,0.938-1.15c0.456,0.602-0.276,0.731-0.134,1.311
		c-0.023-0.506,0.792-0.505,0.638-0.926c0.348,0.372,0.3,0.181,0.479,0.697c0.061-0.78,0.324-0.132,0.613-0.61
		c0.505,0.384,0.131,0.73,0.684,0.492C14.618,12.264,14.125,12.539,14.125,12.539z M27.302,11.191c0,0.004,0,0.008,0,0.009
		c-0.113,0.009-0.21,0.019-0.272,0.024C27.086,11.219,27.166,11.209,27.302,11.191z M28.409,11.184
		c-0.135-0.018-0.302-0.021-0.48-0.018c-0.039-0.154,0.003-0.313,0.115-0.304C27.983,10.964,28.244,11.053,28.409,11.184z
		 M26.067,8.084c0.175-0.064,0.234,0.024,0.258,0.116c-0.083,0.008-0.179,0.022-0.306,0.054c-0.004,0.017-0.016,0.036-0.02,0.054
		C26.015,8.223,26.034,8.144,26.067,8.084z"/>
	<path fill="#FFFFFF" d="M25.752,8.67c-0.025,0.01-0.04,0.029-0.072,0.033c0.036,0.04,0.07,0.073,0.104,0.101
		c0.022-0.047,0.044-0.095,0.063-0.14C25.815,8.667,25.782,8.667,25.752,8.67z"/>
	<path fill="#FFFFFF" d="M126.133,9.334l-0.023-0.011c0.019,0.018,0.038,0.036,0.049,0.063l0,0
		C126.143,9.365,126.143,9.351,126.133,9.334z"/>
	<polygon fill="#FFFFFF" points="43.7,12.039 43.698,11.927 43.602,12.025 	"/>
	<path fill="#FFFFFF" d="M132.231,10.87c0.012,0.039,0.034,0.079,0.08,0.113C132.308,10.954,132.273,10.913,132.231,10.87z"/>
	<path fill="#FFFFFF" d="M134.866,10.969l0.372,0.16C135.078,11.037,134.96,10.996,134.866,10.969z"/>
	<path fill="#FFFFFF" d="M136.892,11.191c0.024-0.079,0.032-0.139,0.04-0.192c-0.003-0.001-0.003-0.001-0.004-0.003L136.892,11.191z
		"/>
	<path fill="#FFFFFF" d="M104.686,11.716c-0.027,0.003-0.054,0.009-0.079,0.021C104.423,11.823,104.549,11.789,104.686,11.716z"/>
	<path fill="#FFFFFF" d="M114.27,10.672c-0.102,0.08-0.202,0.16-0.308,0.211C114.133,10.917,114.265,10.926,114.27,10.672z"/>
	<path fill="#FFFFFF" d="M93.983,12.256c0.002-0.004,0-0.005,0.002-0.008c-0.023,0.001-0.044,0-0.067,0L93.983,12.256z"/>
	<path fill="#FFFFFF" d="M113.516,10.875c0.171,0.089,0.313,0.07,0.446,0.008C113.822,10.853,113.657,10.807,113.516,10.875z"/>
	<path fill="#FFFFFF" d="M145.67,11.394l0.098,0.019c-0.001-0.029,0.005-0.054,0.013-0.072L145.67,11.394z"/>
	<path fill="#FFFFFF" d="M145.78,11.34l0.107-0.053C145.838,11.287,145.796,11.291,145.78,11.34z"/>
	<path fill="#FFFFFF" d="M146.116,11.176l-0.229,0.111C145.967,11.289,146.064,11.303,146.116,11.176z"/>
	<path fill="#FFFFFF" d="M142.989,11.188l-0.03,0.162C142.975,11.314,142.985,11.264,142.989,11.188z"/>
	<path fill="#FFFFFF" d="M142.175,11.234c0.194,0.037,0.487,0.346,0.758,0.244l0.026-0.129
		C142.832,11.59,142.359,10.961,142.175,11.234z"/>
	<path fill="#FFFFFF" d="M138.773,9.229l0.683,0.13c-0.12-0.172-0.276-0.406,0.034-0.447C138.629,8.396,139.667,9.298,138.773,9.229
		z"/>
	<path fill="#FFFFFF" d="M136.655,8.978c0.367-0.08-0.003-0.25,0.016-0.348C136.438,8.787,136.382,8.827,136.655,8.978z"/>
	<path fill="#FFFFFF" d="M121.355,8.977l0.037-0.407C121.109,8.628,121.39,8.728,121.355,8.977z"/>
	<polygon fill="#FFFFFF" points="118.43,11.08 118.707,11.334 118.837,10.961 	"/>
	<polygon fill="#FFFFFF" points="116.703,8.181 116.826,8.123 116.355,8.271 	"/>
	<path fill="#FFFFFF" d="M91.007,8.325l0.084,0.502C91.283,8.737,91.322,8.174,91.007,8.325z"/>
	<path fill="#FFFFFF" d="M79.913,8.836c-0.122-0.251-0.433-0.412-0.625-0.166C79.536,8.705,79.785,8.9,79.913,8.836z"/>
	<polygon fill="#FFFFFF" points="46.642,8.019 46.866,7.851 46.444,7.991 	"/>
</g>
</svg>
