<?xml version="1.0" encoding="utf-8"?>
<!-- Generator: Adobe Illustrator 16.0.0, SVG Export Plug-In . SVG Version: 6.00 Build 0)  -->
<!DOCTYPE svg PUBLIC "-//W3C//DTD SVG 1.1//EN" "http://www.w3.org/Graphics/SVG/1.1/DTD/svg11.dtd">
<svg version="1.1" id="Layer_1" xmlns="http://www.w3.org/2000/svg" xmlns:xlink="http://www.w3.org/1999/xlink" x="0px" y="0px"
	 width="2500px" height="1000px" viewBox="0 0 2500 1000" enable-background="new 0 0 2500 1000" xml:space="preserve">
<g>
	<linearGradient id="SVGID_1_" gradientUnits="userSpaceOnUse" x1="254.0068" y1="389.1499" x2="254.0068" y2="614.4497">
		<stop  offset="0" style="stop-color:#CBE0F4"/>
		<stop  offset="0.5" style="stop-color:#2BA1D9"/>
		<stop  offset="1" style="stop-color:#005E9B"/>
	</linearGradient>
	<path fill="url(#SVGID_1_)" d="M337.106,445.25c0,13.8-2.85,25.251-8.55,34.35c-5.7,9.104-13.153,16.453-22.35,22.05
		c-9.202,5.602-19.65,9.6-31.351,12c-11.699,2.4-23.652,3.801-35.85,4.199v63.301c0,4.604,0.45,8.451,1.35,11.549
		c0.9,3.104,2.648,5.602,5.25,7.5c2.598,1.904,6.047,3.254,10.351,4.051c4.298,0.801,9.946,1.199,16.95,1.199v9
		c-8.804-0.797-17.602-1.35-26.4-1.648c-8.803-0.301-17.302-0.451-25.5-0.451c-8.4,0-16.65,0.15-24.75,0.451
		c-8.1,0.299-16.552,0.852-25.35,1.648v-9c5.798,0,10.547-0.398,14.25-1.199c3.698-0.797,6.646-2.146,8.85-4.051
		c2.198-1.898,3.698-4.396,4.5-7.5c0.797-3.098,1.2-7.049,1.2-11.85V422.75c0-4.801-0.352-8.747-1.05-11.851
		c-0.703-3.099-2.101-5.55-4.2-7.35c-2.101-1.8-4.95-3.099-8.55-3.9c-3.601-0.797-8.302-1.2-14.101-1.2v-9
		c8.799,1.004,16.847,1.801,24.15,2.4c7.298,0.6,15.047,0.703,23.25,0.3l51.3-3c9,0.601,17.55,2.054,25.65,4.351
		c8.1,2.301,15.196,5.699,21.3,10.199c6.099,4.5,10.898,10.153,14.399,16.95C335.354,427.452,337.106,435.65,337.106,445.25z
		 M239.007,405.95v96.601c9.998-0.398,18.549-1.75,25.65-4.05c7.097-2.297,12.848-5.7,17.25-10.2c4.396-4.5,7.598-10.2,9.6-17.101
		c1.997-6.899,3-15.248,3-25.05c0-11.399-1.903-20.648-5.7-27.75c-3.802-7.097-9.201-12.646-16.2-16.649L239.007,405.95z"/>
	<linearGradient id="SVGID_2_" gradientUnits="userSpaceOnUse" x1="454.106" y1="389.1499" x2="454.106" y2="614.4497">
		<stop  offset="0" style="stop-color:#CBE0F4"/>
		<stop  offset="0.5" style="stop-color:#2BA1D9"/>
		<stop  offset="1" style="stop-color:#005E9B"/>
	</linearGradient>
	<path fill="url(#SVGID_2_)" d="M434.605,513.65c-2.399,0.201-4.852,0.402-7.35,0.6c-2.503,0.201-4.95,0.301-7.35,0.301v66.6
		c0,4.604,0.398,8.451,1.199,11.549c0.797,3.104,2.147,5.602,4.051,7.5c1.898,1.904,4.547,3.254,7.949,4.051
		c3.398,0.801,7.697,1.199,12.9,1.199v9c-4.401-0.398-8.4-0.75-12-1.049c-3.6-0.301-7.102-0.498-10.5-0.6
		c-3.403-0.1-6.854-0.197-10.35-0.301c-3.502-0.098-7.252-0.15-11.25-0.15c-8.4,0-16.65,0.15-24.75,0.451
		c-8.101,0.299-16.552,0.852-25.351,1.648v-9c5.799,0,10.547-0.398,14.25-1.199c3.698-0.797,6.647-2.146,8.851-4.051
		c2.198-1.898,3.698-4.396,4.5-7.5c0.797-3.098,1.199-7.049,1.199-11.85V422.75c0-4.801-0.352-8.747-1.05-11.851
		c-0.703-3.099-2.1-5.55-4.2-7.35c-2.1-1.8-4.949-3.099-8.55-3.9c-3.6-0.797-8.302-1.2-14.1-1.2v-9
		c8.798,1.004,16.847,1.801,24.149,2.4c7.299,0.6,15.047,0.703,23.25,0.3l51.301-3c9,0.601,17.55,2.054,25.649,4.351
		c8.101,2.301,15.197,5.602,21.3,9.899c6.099,4.304,10.898,9.75,14.4,16.351c3.497,6.6,5.25,14.503,5.25,23.699
		c0,8.4-1.153,15.854-3.45,22.351c-2.302,6.501-5.503,12.3-9.6,17.399c-4.102,5.101-8.953,9.502-14.55,13.2
		c-5.602,3.703-11.7,6.75-18.301,9.151l40.801,66.898c2.399,4.004,5.1,7.951,8.1,11.852c3,3.898,6.3,7.4,9.9,10.5
		c3.6,3.102,7.5,5.652,11.699,7.648c4.2,2.002,8.799,3,13.801,3v9c-7.004-0.797-14.7-1.35-23.101-1.648
		c-8.399-0.301-15.802-0.451-22.2-0.451c-6.6,0-13.102,0.15-19.5,0.451c-6.402,0.299-14.001,0.852-22.8,1.648v-9
		c6,0,9.75-0.697,11.25-2.1c1.5-1.396,2.25-3.197,2.25-5.4c0-2.797-0.853-5.746-2.55-8.85c-1.701-3.098-3.352-6.047-4.95-8.85
		L434.605,513.65z M419.906,405.95v93.601c19.996-0.999,34.246-5.799,42.75-14.4c8.498-8.597,12.75-22.2,12.75-40.8
		c0-10.8-1.903-19.599-5.7-26.4c-3.802-6.797-9.202-12.196-16.2-16.199L419.906,405.95z"/>
	<linearGradient id="SVGID_3_" gradientUnits="userSpaceOnUse" x1="668.7559" y1="387.9497" x2="668.7559" y2="616.5513">
		<stop  offset="0" style="stop-color:#CBE0F4"/>
		<stop  offset="0.5" style="stop-color:#2BA1D9"/>
		<stop  offset="1" style="stop-color:#005E9B"/>
	</linearGradient>
	<path fill="url(#SVGID_3_)" d="M696.506,609.949c-5.803,2.203-11.7,3.854-17.7,4.951c-6,1.102-11.602,1.65-16.8,1.65
		c-13.603,0-26.751-2.297-39.45-6.9c-12.703-4.6-23.953-11.4-33.75-20.4c-9.801-9-17.602-20.146-23.399-33.449
		c-5.804-13.299-8.7-28.65-8.7-46.051c0-15.796,2.349-29.897,7.05-42.3c4.697-12.398,10.5-23.1,17.4-32.1
		c6.899-9,14.25-16.35,22.05-22.05s14.896-9.849,21.3-12.45l16.5-6.3c5.799-2.4,11.7-4.097,17.7-5.101c6-0.998,11.597-1.5,16.8-1.5
		c13.599,0,26.747,2.25,39.45,6.75c12.698,4.5,23.896,11.25,33.6,20.25c9.699,9,17.499,20.101,23.4,33.301
		c5.896,13.199,8.85,28.5,8.85,45.899c0,16.002-2.353,30.202-7.05,42.6c-4.701,12.402-10.5,23.1-17.399,32.1
		c-6.9,9-14.25,16.35-22.051,22.051c-7.8,5.699-14.901,9.854-21.3,12.449L696.506,609.949z M707.606,593.15
		c10.199-9.197,18-21.197,23.399-36c5.4-14.799,8.101-31.801,8.101-51c0-15.399-2.152-29.297-6.45-41.701
		c-4.304-12.398-10.102-22.898-17.4-31.5c-7.303-8.597-15.899-15.149-25.8-19.649s-20.451-6.75-31.65-6.75
		c-8.803,0-18.103,1.5-27.899,4.5c-10.2,9.201-18,21.201-23.4,36c-5.399,14.803-8.1,31.701-8.1,50.7c0,15.402,2.1,29.3,6.3,41.699
		c4.2,12.404,9.998,22.852,17.4,31.352c7.396,8.502,15.998,15.051,25.8,19.648c9.797,4.604,20.297,6.803,31.5,6.602
		c4.599,0,9.196-0.25,13.8-0.75C697.805,595.803,702.604,594.754,707.606,593.15z"/>
	<linearGradient id="SVGID_4_" gradientUnits="userSpaceOnUse" x1="906.9551" y1="389.4497" x2="906.9551" y2="614.4497">
		<stop  offset="0" style="stop-color:#CBE0F4"/>
		<stop  offset="0.5" style="stop-color:#2BA1D9"/>
		<stop  offset="1" style="stop-color:#005E9B"/>
	</linearGradient>
	<path fill="url(#SVGID_4_)" d="M848.305,611.75c-8.203,0-16.251,0.254-24.149,0.75c-7.903,0.502-16.252,1.152-25.05,1.949v-9
		c10.396-0.195,17.798-1.996,22.199-5.398c4.397-3.398,6.601-9.797,6.601-19.201V422.75c0-9.398-2.054-15.75-6.15-19.051
		c-4.102-3.3-11.353-5.048-21.75-5.25v-9c8.799,1.004,16.847,1.801,24.15,2.4c7.298,0.6,15.047,0.703,23.25,0.3l57.3-2.1
		c15.998-0.601,30.75,1.2,44.25,5.399c13.5,4.2,25.097,10.5,34.8,18.9c9.698,8.4,17.297,18.9,22.8,31.5
		c5.499,12.6,8.25,27.104,8.25,43.5c0,16.603-2.1,31.154-6.3,43.65c-4.2,12.502-9.502,23.152-15.9,31.949
		c-6.402,8.805-13.35,15.953-20.85,21.451c-7.5,5.502-14.653,9.553-21.45,12.15l-16.5,6.6c-2.803,1.199-6.253,2.203-10.35,3
		c-4.102,0.801-9.403,1.453-15.9,1.949c-6.501,0.502-14.55,0.9-24.149,1.201C873.805,611.6,862.105,611.75,848.305,611.75z
		 M867.205,592.85c6.398,0.803,13.05,1.402,19.95,1.801c6.899,0.402,13.649,0.553,20.25,0.449c6.6-0.098,12.849-0.449,18.75-1.049
		c5.896-0.602,10.95-1.5,15.149-2.701c10.2-9.197,18.099-21.496,23.7-36.9c5.597-15.398,8.4-33.998,8.4-55.799
		c0-13.599-1.754-26.048-5.25-37.35c-3.502-11.297-8.504-21.047-15-29.25c-6.502-8.198-14.452-14.55-23.851-19.05
		c-9.402-4.5-20.1-6.647-32.1-6.45l-30,1.2V592.85z"/>
	<linearGradient id="SVGID_5_" gradientUnits="userSpaceOnUse" x1="1151.9009" y1="389.4497" x2="1151.9009" y2="618.6509">
		<stop  offset="0" style="stop-color:#CBE0F4"/>
		<stop  offset="0.5" style="stop-color:#2BA1D9"/>
		<stop  offset="1" style="stop-color:#005E9B"/>
	</linearGradient>
	<path fill="url(#SVGID_5_)" d="M1241.9,529.25c0,13.801-1.902,26.25-5.699,37.35c-3.802,11.1-9.301,20.504-16.5,28.201
		c-7.2,7.701-16.102,13.602-26.7,17.699c-10.604,4.102-22.8,6.15-36.601,6.15c-15.201,0-28.8-1.697-40.8-5.1
		c-12-3.398-22.153-8.701-30.45-15.9c-8.301-7.201-14.652-16.35-19.05-27.451c-4.401-11.1-6.6-24.346-6.6-39.75V422.75
		c0-4.801-0.352-8.747-1.05-11.851c-0.703-3.099-2.203-5.55-4.5-7.35c-2.302-1.8-5.452-3.099-9.45-3.9
		c-4.003-0.797-9.3-1.2-15.9-1.2v-9c17.4,1.801,34.299,2.7,50.7,2.7c16.599,0,33.6-0.899,51-2.7v9c-7.003,0-12.553,0.403-16.65,1.2
		c-4.102,0.802-7.199,2.101-9.3,3.9c-2.1,1.8-3.501,4.251-4.2,7.35c-0.703,3.104-1.05,6.952-1.05,11.55v99.601
		c0,13.602,1.5,25.199,4.5,34.799s7.2,17.504,12.601,23.701c5.399,6.201,11.746,10.752,19.05,13.648
		c7.298,2.902,15.347,4.352,24.149,4.352c11.199,0,20.648-1.75,28.351-5.25c7.696-3.498,13.95-8.35,18.75-14.551
		c4.8-6.197,8.25-13.5,10.35-21.9c2.101-8.4,3.15-17.596,3.15-27.6v-106.8c0-9.398-2.55-15.698-7.65-18.899
		c-5.1-3.197-13.753-4.898-25.95-5.101v-9c8.799,1.004,16.801,1.702,24,2.101c7.2,0.403,14.101,0.6,20.7,0.6
		c6.398,0,13.148-0.196,20.25-0.6c7.097-0.398,15.047-1.097,23.851-2.101v9c-11.804,0.202-20.302,1.95-25.5,5.25
		c-5.203,3.301-7.801,9.652-7.801,19.051V529.25z"/>
	<linearGradient id="SVGID_6_" gradientUnits="userSpaceOnUse" x1="1391.4492" y1="384.6499" x2="1391.4492" y2="616.5513">
		<stop  offset="0" style="stop-color:#CBE0F4"/>
		<stop  offset="0.5" style="stop-color:#2BA1D9"/>
		<stop  offset="1" style="stop-color:#005E9B"/>
	</linearGradient>
	<path fill="url(#SVGID_6_)" d="M1408.099,597.051c6.797,0,13.5-0.85,20.101-2.551c6.6-1.697,13.05-4.547,19.35-8.551
		c6.3-3.998,12.497-9.398,18.601-16.199c6.098-6.797,12.047-15.301,17.85-25.5l8.7,4.5c-3,4.199-5.602,8.85-7.8,13.949
		c-2.203,5.102-4.153,10.402-5.851,15.9c-1.701,5.504-3.052,11.1-4.05,16.801c-1.003,5.699-1.8,11.15-2.4,16.35
		c-3.801-2.799-7.303-4.748-10.5-5.85c-3.201-1.098-6.801-1.65-10.8-1.65c-5.001,0-9.802,0.652-14.399,1.949
		c-4.604,1.305-9.301,2.701-14.101,4.201s-9.703,2.9-14.7,4.199c-5.001,1.303-10.401,1.951-16.199,1.951
		c-13.004,0-25.604-2.148-37.801-6.451c-12.201-4.299-23.001-10.898-32.399-19.799c-9.403-8.898-17.002-20.049-22.8-33.451
		c-5.804-13.396-8.7-29.1-8.7-47.1c0-15.6,2.048-29.296,6.149-41.1c4.098-11.798,9.301-21.899,15.601-30.3s13.247-15.3,20.85-20.7
		c7.599-5.399,15-9.6,22.2-12.6l16.8-6.9c6-2.597,12.047-4.95,18.15-7.05c6.099-2.1,12.347-3.15,18.75-3.15
		c10.8,0,20.297,0.952,28.5,2.851c8.198,1.903,14.7,3.951,19.5,6.149c2.399-0.6,4.599-2.048,6.6-4.35c1.997-2.297,3.3-4.95,3.9-7.95
		h9c-1.003,4.003-1.65,8.203-1.95,12.601c-0.3,4.401-0.45,8.503-0.45,12.3c0,13.401,2.4,28.603,7.2,45.6h-9.3
		c-7.604-16.997-17.953-29.297-31.05-36.899c-13.102-7.599-28.453-11.4-46.051-11.4c-4.8,0-10.152,0.6-16.05,1.8
		c-5.901,1.2-12.052,3.202-18.45,6c-8.803,9-15.703,20.151-20.699,33.45c-5.002,13.303-7.5,30.253-7.5,50.85
		c0,14.4,1.847,27.601,5.55,39.601c3.698,12,8.85,22.35,15.45,31.049c6.6,8.701,14.597,15.451,24,20.25
		C1386.298,594.65,1396.699,597.051,1408.099,597.051z"/>
	<linearGradient id="SVGID_7_" gradientUnits="userSpaceOnUse" x1="1606.5469" y1="381.3501" x2="1606.5469" y2="614.4497">
		<stop  offset="0" style="stop-color:#CBE0F4"/>
		<stop  offset="0.5" style="stop-color:#2BA1D9"/>
		<stop  offset="1" style="stop-color:#005E9B"/>
	</linearGradient>
	<path fill="url(#SVGID_7_)" d="M1671.797,392.15c7.8,0,13.448-0.946,16.949-2.85c3.497-1.898,5.747-4.547,6.75-7.95h7.2
		c-0.403,3.201-0.75,6.253-1.05,9.15c-0.3,2.901-0.45,6.051-0.45,9.449c0,3.802,0.197,8.101,0.601,12.9
		c0.398,4.8,0.998,9.703,1.8,14.7c0.797,5.001,1.696,9.899,2.7,14.7c0.998,4.8,1.996,9.103,3,12.899h-9
		c-2.203-9-4.5-16.547-6.9-22.649c-2.4-6.099-5.302-10.95-8.7-14.551c-3.403-3.6-7.453-6.196-12.149-7.8
		c-4.702-1.599-10.351-2.399-16.95-2.399h-29.101v173.4c0,4.604,0.398,8.451,1.2,11.549c0.797,3.104,2.297,5.602,4.5,7.5
		c2.198,1.904,5.4,3.254,9.601,4.051c4.199,0.801,9.797,1.199,16.8,1.199v9c-8.804-0.797-17.602-1.35-26.4-1.648
		c-8.803-0.301-17.399-0.451-25.8-0.451c-8.203,0-16.65,0.15-25.35,0.451c-8.7,0.299-17.452,0.852-26.25,1.648v-9
		c6.6,0,12-0.398,16.199-1.199c4.2-0.797,7.449-2.146,9.75-4.051c2.297-1.898,3.9-4.396,4.801-7.5
		c0.899-3.098,1.35-7.049,1.35-11.85V407.75h-29.1c-6.601,0-12.254,0.801-16.95,2.399c-4.702,1.604-8.804,4.2-12.3,7.8
		c-3.502,3.601-6.45,8.452-8.851,14.551c-2.399,6.103-4.701,13.649-6.899,22.649h-9c0.998-3.797,1.996-8.1,3-12.899
		c0.998-4.801,1.898-9.699,2.699-14.7c0.797-4.997,1.397-9.9,1.801-14.7c0.398-4.8,0.6-9.099,0.6-12.9
		c0-3.398-0.104-6.548-0.3-9.449c-0.202-2.897-0.502-5.949-0.9-9.15h7.2c0.998,3.403,3.248,6.052,6.75,7.95
		c3.497,1.903,9.047,2.85,16.65,2.85H1671.797z"/>
	<linearGradient id="SVGID_8_" gradientUnits="userSpaceOnUse" x1="1771.5459" y1="389.4497" x2="1771.5459" y2="614.4497">
		<stop  offset="0" style="stop-color:#CBE0F4"/>
		<stop  offset="0.5" style="stop-color:#2BA1D9"/>
		<stop  offset="1" style="stop-color:#005E9B"/>
	</linearGradient>
	<path fill="url(#SVGID_8_)" d="M1751.896,422.75c0-4.801-0.403-8.747-1.2-11.851c-0.802-3.099-2.302-5.55-4.5-7.35
		c-2.203-1.8-5.354-3.099-9.45-3.9c-4.102-0.797-9.45-1.2-16.05-1.2v-9c17.4,1.801,34.299,2.7,50.7,2.7c16.599,0,33.6-0.899,51-2.7
		v9c-7.003,0-12.502,0.403-16.5,1.2c-4.003,0.802-7.102,2.101-9.3,3.9c-2.203,1.8-3.601,4.251-4.2,7.35
		c-0.601,3.104-0.9,6.952-0.9,11.55V581.15c0,4.604,0.398,8.451,1.2,11.549c0.797,3.104,2.297,5.602,4.5,7.5
		c2.198,1.904,5.4,3.254,9.6,4.051c4.2,0.801,9.699,1.199,16.5,1.199v9c-8.602-0.797-17.301-1.35-26.1-1.648
		c-8.803-0.301-17.4-0.451-25.8-0.451c-8.203,0-16.65,0.15-25.351,0.451c-8.699,0.299-17.451,0.852-26.25,1.648v-9
		c6.601,0,12-0.398,16.2-1.199c4.2-0.797,7.448-2.146,9.75-4.051c2.297-1.898,3.9-4.396,4.8-7.5c0.9-3.098,1.351-7.049,1.351-11.85
		V422.75z"/>
	<linearGradient id="SVGID_9_" gradientUnits="userSpaceOnUse" x1="1953.6436" y1="387.9497" x2="1953.6436" y2="616.5513">
		<stop  offset="0" style="stop-color:#CBE0F4"/>
		<stop  offset="0.5" style="stop-color:#2BA1D9"/>
		<stop  offset="1" style="stop-color:#005E9B"/>
	</linearGradient>
	<path fill="url(#SVGID_9_)" d="M1981.394,609.949c-5.803,2.203-11.7,3.854-17.7,4.951c-6,1.102-11.602,1.65-16.8,1.65
		c-13.604,0-26.752-2.297-39.45-6.9c-12.703-4.6-23.953-11.4-33.75-20.4c-9.802-9-17.602-20.146-23.399-33.449
		c-5.804-13.299-8.7-28.65-8.7-46.051c0-15.796,2.349-29.897,7.05-42.3c4.697-12.398,10.5-23.1,17.4-32.1
		c6.899-9,14.25-16.35,22.05-22.05s14.896-9.849,21.3-12.45l16.5-6.3c5.799-2.4,11.7-4.097,17.7-5.101c6-0.998,11.597-1.5,16.8-1.5
		c13.599,0,26.747,2.25,39.45,6.75c12.698,4.5,23.896,11.25,33.6,20.25c9.698,9,17.499,20.101,23.4,33.301
		c5.896,13.199,8.85,28.5,8.85,45.899c0,16.002-2.353,30.202-7.05,42.6c-4.701,12.402-10.5,23.1-17.4,32.1
		c-6.899,9-14.25,16.35-22.05,22.051c-7.8,5.699-14.901,9.854-21.3,12.449L1981.394,609.949z M1992.493,593.15
		c10.2-9.197,18-21.197,23.4-36c5.4-14.799,8.1-31.801,8.1-51c0-15.399-2.151-29.297-6.449-41.701
		c-4.304-12.398-10.102-22.898-17.4-31.5c-7.303-8.597-15.9-15.149-25.8-19.649c-9.9-4.5-20.452-6.75-31.65-6.75
		c-8.803,0-18.103,1.5-27.899,4.5c-10.2,9.201-18,21.201-23.4,36c-5.4,14.803-8.1,31.701-8.1,50.7c0,15.402,2.1,29.3,6.3,41.699
		c4.2,12.404,9.998,22.852,17.399,31.352c7.397,8.502,15.999,15.051,25.801,19.648c9.797,4.604,20.297,6.803,31.5,6.602
		c4.598,0,9.196-0.25,13.8-0.75C1982.692,595.803,1987.492,594.754,1992.493,593.15z"/>
	<linearGradient id="SVGID_10_" gradientUnits="userSpaceOnUse" x1="2206.543" y1="389.4497" x2="2206.543" y2="616.5513">
		<stop  offset="0" style="stop-color:#CBE0F4"/>
		<stop  offset="0.5" style="stop-color:#2BA1D9"/>
		<stop  offset="1" style="stop-color:#005E9B"/>
	</linearGradient>
	<path fill="url(#SVGID_10_)" d="M2139.793,446.75v134.4c0,9.402,2.648,15.75,7.949,19.049c5.297,3.301,14.049,5.055,26.25,5.25v9
		c-8.803-0.797-16.902-1.35-24.3-1.648c-7.401-0.301-14.399-0.451-21-0.451c-6.403,0-13.251,0.15-20.55,0.451
		c-7.303,0.299-15.352,0.852-24.15,1.648v-9c11.598-0.195,20.147-1.949,25.65-5.25c5.498-3.299,8.25-9.75,8.25-19.35V422.75
		c0-4.801-0.45-8.747-1.35-11.851c-0.9-3.099-2.504-5.55-4.801-7.35c-2.301-1.8-5.353-3.099-9.149-3.9
		c-3.802-0.797-8.602-1.2-14.4-1.2v-9c7.397,0.802,15,1.453,22.8,1.95c7.801,0.502,15.699,0.75,23.7,0.75h9.3l129.301,149.401
		V422.45c0-9.398-2.653-15.698-7.95-18.899c-5.302-3.197-13.95-4.898-25.95-5.101v-9c16.997,1.801,31.997,2.7,45,2.7
		c6.6,0,13.547-0.196,20.85-0.6c7.299-0.398,15.249-1.097,23.851-2.101v9c-11.602,0.202-20.151,1.95-25.65,5.25
		c-5.503,3.301-8.25,9.652-8.25,19.051v193.8h-9.899L2139.793,446.75z"/>
</g>
<text transform="matrix(1 0 0 1 -792.7051 -574.0596)" font-family="'HeirofLightBold'" font-size="300">PRODUCTION</text>
<g>
	
		<radialGradient id="SVGID_11_" cx="-16011.6289" cy="351.4854" r="188.7642" gradientTransform="matrix(0.0184 -0.0362 -0.8867 -0.4516 836.8931 -39.2336)" gradientUnits="userSpaceOnUse">
		<stop  offset="0" style="stop-color:#CBE0F4"/>
		<stop  offset="1" style="stop-color:#FFFFFF;stop-opacity:0"/>
	</radialGradient>
	<path fill="url(#SVGID_11_)" d="M233.783,374.523c92.438,47.076,165.816,88.297,163.896,92.068
		c-1.92,3.771-78.414-31.334-170.853-78.409c-92.439-47.077-165.819-88.299-163.897-92.069
		C64.85,292.34,141.343,327.446,233.783,374.523z"/>
	
		<radialGradient id="SVGID_12_" cx="26126.8477" cy="746.3281" r="188.7675" gradientTransform="matrix(0.0355 0.0181 0.4516 -0.8867 -1032.7302 571.9931)" gradientUnits="userSpaceOnUse">
		<stop  offset="0" style="stop-color:#CBE0F4"/>
		<stop  offset="1" style="stop-color:#FFFFFF;stop-opacity:0"/>
	</radialGradient>
	<path fill="url(#SVGID_12_)" d="M237,384.76c-47.078,92.438-88.238,165.848-91.936,163.965s31.469-78.348,78.545-170.785
		c47.076-92.439,88.237-165.849,91.936-163.966C319.242,215.857,284.076,292.322,237,384.76z"/>
	
		<radialGradient id="SVGID_13_" cx="576.2646" cy="347.9893" r="99.0291" gradientTransform="matrix(1 0 0 -1 -345.96 729.3398)" gradientUnits="userSpaceOnUse">
		<stop  offset="0" style="stop-color:#CBE0F4"/>
		<stop  offset="1" style="stop-color:#FFFFFF;stop-opacity:0"/>
	</radialGradient>
	<circle fill="url(#SVGID_13_)" cx="230.305" cy="381.351" r="99.029"/>
</g>
</svg>
