<?xml version="1.0" encoding="utf-8"?>
<!-- Generator: Adobe Illustrator 16.0.0, SVG Export Plug-In . SVG Version: 6.00 Build 0)  -->
<!DOCTYPE svg PUBLIC "-//W3C//DTD SVG 1.1//EN" "http://www.w3.org/Graphics/SVG/1.1/DTD/svg11.dtd">
<svg version="1.1" id="Layer_1" xmlns="http://www.w3.org/2000/svg" xmlns:xlink="http://www.w3.org/1999/xlink" x="0px" y="0px"
	 width="100px" height="80px" viewBox="0 0 100 80" enable-background="new 0 0 100 80" xml:space="preserve">
<title>logo_20cs</title>
<g>
	<g>
		<path fill="#FFFFFF" d="M50,12.092c27.019,0,49,12.52,49,27.908S77.019,67.908,50,67.908S1,55.389,1,40S22.981,12.092,50,12.092
			 M50,11.092C22.386,11.092,0,24.034,0,40s22.386,28.908,50,28.908S100,55.966,100,40S77.614,11.092,50,11.092L50,11.092z"/>
	</g>
	<g>
		<path fill="#FFFFFF" d="M37.822,29.221l0.239,5.056h-0.604c-0.117-0.89-0.275-1.526-0.477-1.908
			c-0.329-0.615-0.766-1.068-1.312-1.359c-0.545-0.292-1.264-0.437-2.154-0.437h-3.037v16.47c0,1.325,0.143,2.151,0.429,2.479
			c0.403,0.445,1.023,0.668,1.86,0.668h0.747v0.588h-9.141V50.19h0.763c0.911,0,1.558-0.275,1.939-0.827
			c0.233-0.339,0.35-1.112,0.35-2.32v-16.47h-2.591c-1.007,0-1.723,0.074-2.146,0.223c-0.551,0.201-1.023,0.588-1.415,1.16
			c-0.392,0.573-0.625,1.346-0.7,2.321h-0.604l0.254-5.056H37.822z"/>
		<path fill="#FFFFFF" d="M53.8,28.729v7.456h-0.589c-0.19-1.431-0.532-2.57-1.025-3.418c-0.492-0.848-1.194-1.521-2.106-2.019
			C49.168,30.25,48.225,30,47.25,30c-1.102,0-2.014,0.336-2.734,1.009c-0.721,0.673-1.081,1.439-1.081,2.297
			c0,0.657,0.228,1.256,0.684,1.796c0.657,0.795,2.22,1.855,4.69,3.18c2.014,1.081,3.389,1.911,4.126,2.488
			c0.736,0.577,1.304,1.258,1.7,2.042c0.398,0.785,0.597,1.606,0.597,2.465c0,1.632-0.634,3.039-1.9,4.221
			c-1.266,1.182-2.896,1.772-4.888,1.772c-0.625,0-1.213-0.048-1.765-0.144c-0.329-0.053-1.009-0.246-2.042-0.58
			c-1.034-0.333-1.688-0.501-1.963-0.501c-0.265,0-0.475,0.08-0.628,0.239c-0.153,0.158-0.268,0.487-0.342,0.985h-0.588v-7.393
			h0.588c0.276,1.548,0.646,2.706,1.113,3.474c0.466,0.769,1.179,1.407,2.138,1.916c0.959,0.509,2.011,0.763,3.156,0.763
			c1.325,0,2.371-0.35,3.14-1.049c0.769-0.7,1.152-1.526,1.152-2.48c0-0.529-0.146-1.064-0.438-1.605
			c-0.291-0.54-0.744-1.044-1.358-1.511c-0.414-0.317-1.542-0.993-3.387-2.026s-3.155-1.857-3.935-2.472
			c-0.779-0.615-1.37-1.293-1.772-2.035c-0.403-0.742-0.604-1.558-0.604-2.448c0-1.547,0.593-2.88,1.78-3.998
			s2.697-1.677,4.531-1.677c1.145,0,2.358,0.281,3.641,0.843c0.594,0.265,1.012,0.397,1.256,0.397c0.275,0,0.501-0.082,0.676-0.247
			c0.175-0.164,0.315-0.495,0.421-0.994H53.8z"/>
		<path fill="#FFFFFF" d="M76.963,28.729l0.556,6.804h-0.556c-0.563-1.695-1.288-2.973-2.179-3.832
			c-1.282-1.24-2.931-1.86-4.944-1.86c-2.744,0-4.832,1.086-6.264,3.259c-1.197,1.833-1.796,4.017-1.796,6.55
			c0,2.057,0.397,3.932,1.192,5.628c0.795,1.695,1.836,2.938,3.124,3.728c1.288,0.79,2.609,1.185,3.966,1.185
			c0.795,0,1.563-0.101,2.306-0.302c0.741-0.201,1.457-0.498,2.146-0.891v-6.231c0-1.081-0.082-1.789-0.247-2.123
			c-0.164-0.333-0.418-0.588-0.763-0.763s-0.951-0.262-1.82-0.262v-0.604h8.346v0.604h-0.396c-0.827,0-1.395,0.275-1.701,0.827
			c-0.213,0.392-0.318,1.166-0.318,2.321v6.597c-1.219,0.658-2.422,1.14-3.608,1.447c-1.188,0.308-2.507,0.461-3.959,0.461
			c-4.165,0-7.329-1.335-9.491-4.006c-1.621-2.004-2.432-4.313-2.432-6.932c0-1.897,0.455-3.715,1.367-5.453
			c1.081-2.066,2.564-3.656,4.451-4.769c1.579-0.922,3.444-1.383,5.596-1.383c0.784,0,1.497,0.063,2.139,0.191
			c0.641,0.127,1.55,0.408,2.727,0.842c0.593,0.223,0.99,0.334,1.192,0.334c0.201,0,0.373-0.093,0.517-0.278
			c0.143-0.185,0.23-0.548,0.262-1.089H76.963z"/>
	</g>
</g>
</svg>
