<?xml version="1.0" encoding="utf-8"?>
<!-- Generator: Adobe Illustrator 16.0.0, SVG Export Plug-In . SVG Version: 6.00 Build 0)  -->
<!DOCTYPE svg PUBLIC "-//W3C//DTD SVG 1.1//EN" "http://www.w3.org/Graphics/SVG/1.1/DTD/svg11.dtd">
<svg version="1.1" id="Layer_1" xmlns="http://www.w3.org/2000/svg" xmlns:xlink="http://www.w3.org/1999/xlink" x="0px" y="0px"
	 width="2500px" height="1000px" viewBox="0 0 2500 1000" enable-background="new 0 0 2500 1000" xml:space="preserve">
<g enable-background="new    ">
	<path fill="#FFFFFF" d="M748.708,360.949v82.8c2.198-0.197,4.247-0.398,6.149-0.6c1.898-0.197,3.947-0.497,6.15-0.9l20.1-9.6
		l21.301,25.8l-1.5,5.7l-32.7-1.5l-19.5,1.2v61.8c-5.203,3.6-9.854,8.203-13.95,13.8c-4.102,5.602-7.552,11.803-10.35,18.6h-7.801
		v-48.3c-5.602,2.804-10.102,7.102-13.5,12.9c-4.003-1.599-11.203-2.198-21.6-1.8c-10.401,0.402-22.252,1.5-35.55,3.3
		c-13.304,1.8-27.253,4.05-41.851,6.75c-14.602,2.7-28.2,5.653-40.8,8.85l-16.2,9.9l-26.1-25.8c-2.602-2.799-4.702-6.497-6.3-11.101
		c-1.604-4.599-2.602-8.896-3-12.9l7.8-2.4c-0.202,1.603-0.3,3.201-0.3,4.8c0,1.604,0.497,3.104,1.5,4.5
		c0.998,1.604,2.498,2.804,4.5,3.601c1.997,0.801,3.9,1.701,5.7,2.699c6.6,2.203,14.897,3.301,24.9,3.301l45.601-5.4l-0.9-18.3
		c-12.802-1.397-23.55-5.7-32.25-12.9c-8.7-7.2-13.453-16.598-14.25-28.2c-0.403-6,0.3-11.447,2.1-16.35
		c1.8-4.898,4.35-9.249,7.65-13.05c3.3-3.797,7.148-7.05,11.55-9.75c4.397-2.7,9-4.749,13.8-6.15c5.4-1.598,8.7-4.5,9.9-8.7l4.2-2.1
		l8.1,11.4c6.601-1.2,13.547-1.5,20.851-0.9c7.298,0.6,14.1,2.302,20.399,5.1c6.3,2.803,11.597,6.801,15.9,12
		c4.298,5.203,6.849,11.7,7.649,19.5c0.601,6.403-0.103,12.15-2.1,17.25c-2.002,5.1-4.95,9.651-8.85,13.65
		c-3.9,4.003-8.653,7.401-14.25,10.2c-5.602,2.803-11.602,5.001-18,6.6l-0.301,17.4c14.4-1.599,28.547-3,42.45-4.2
		c13.898-1.2,27.75-2.597,41.55-4.2v-137.7c0-3.398-0.853-6.497-2.55-9.3c-1.701-2.798-3.899-5.25-6.6-7.35
		c-2.7-2.1-5.752-3.999-9.15-5.7c-3.403-1.697-6.802-3.15-10.2-4.35l2.7-6.9l66,14.4L748.708,360.949z M662.608,390.649
		c-15.402,0-32.503,0.6-51.3,1.8c-18.802,1.2-37.102,2.602-54.9,4.2l-14.7,7.2l-17.1-20.4c-1.8-2.198-3.253-4.8-4.35-7.8
		c-1.102-3-1.852-5.799-2.25-8.4l3.9-2.1c0.797,2.203,2.1,3.9,3.9,5.1c1.8,1.2,3.699,2.302,5.7,3.3c3.398,0.403,7.05,0.9,10.95,1.5
		c3.9,0.6,7.547,0.9,10.95,0.9c15.197,0,30.9-0.3,47.1-0.9v-12.9c0-4.599-1.903-8.349-5.7-11.25c-3.802-2.897-8.302-5.147-13.5-6.75
		l2.101-5.1l56.1,7.8l-9,13.5l-0.6,13.2l34.8-2.7l16.2-7.2l19.8,27.6l-3.3,5.4c-3.802-0.999-8.953-2.147-15.45-3.45
		C675.457,391.901,669.006,391.052,662.608,390.649z M737.008,611.749c-8.203,0-17.053,0.099-26.55,0.3
		c-9.502,0.197-19.102,0.45-28.8,0.75c-9.703,0.301-19.351,0.601-28.95,0.9c-9.601,0.3-18.601,0.646-27,1.05
		c-5.203,0.197-10.95,0.549-17.25,1.05c-6.3,0.497-11.851,1.051-16.65,1.65c0.197-1.604,0.497-3.502,0.9-5.7
		c0.398-2.203,0.75-4.5,1.05-6.899c0.3-2.4,0.549-4.702,0.75-6.9c0.197-2.203,0.3-4.2,0.3-6c0-4.2-0.103-8.349-0.3-12.45
		c-0.201-4.097-0.703-8.146-1.5-12.149c-1.401-4.599-4.05-8.147-7.95-10.65c-3.899-2.498-8.25-4.748-13.05-6.75l2.4-5.1l58.5,6.3
		l-6,13.5v30c16.8,0,33.548-0.202,50.25-0.601c16.696-0.402,31.748-1.199,45.149-2.399l26.101-11.4l25.8,29.101l-1.5,5.399
		L737.008,611.749z M618.208,426.649c-2.002-0.999-3.75-1.65-5.25-1.95s-3.554-0.249-6.15,0.15c-7.401,1.402-13.003,4.65-16.8,9.75
		c-3.802,5.1-5.203,10.852-4.2,17.25c0.999,6.202,4.397,11.152,10.2,14.85c5.799,3.703,13.2,5.151,22.2,4.35
		c9.797-0.6,16.997-3.9,21.6-9.9c4.599-6,6.698-12.6,6.3-19.8c-0.402-2.798-1.35-5.798-2.85-9c-1.5-3.197-3.502-6.15-6-8.85
		c-2.503-2.7-5.503-4.95-9-6.75c-3.502-1.8-7.453-2.798-11.85-3l6.6,8.4L618.208,426.649z"/>
	<path fill="#FFFFFF" d="M912.505,378.649c-6.403,0.403-12.601,1.65-18.601,3.75c-6,2.1-11.353,5.151-16.05,9.15
		c-4.701,4.003-8.451,8.901-11.25,14.7c-2.803,5.803-4.2,12.502-4.2,20.1c0,5.602,0.999,10.8,3,15.6
		c1.997,4.8,4.697,8.953,8.101,12.45c3.398,3.501,7.298,6.253,11.699,8.25c4.397,2.001,9,3,13.801,3
		c5.597,0,10.649-0.947,15.149-2.85c4.5-1.898,8.349-4.5,11.55-7.8c3.197-3.3,5.747-7.148,7.65-11.55c1.898-4.397,2.948-9,3.15-13.8
		c0.196-5.799-0.352-10.997-1.65-15.6c-1.303-4.599-3.15-8.447-5.55-11.55c-2.4-3.098-5.151-5.597-8.25-7.5
		c-3.104-1.898-6.352-3.047-9.75-3.45c-1.2-0.197-2.503-0.249-3.9-0.15c-1.401,0.103-2.602,0.15-3.6,0.15
		c1.599-4.997,5.498-7.997,11.7-9c7.199-0.999,14.146-0.6,20.85,1.2c6.698,1.8,12.6,4.8,17.7,9c5.1,4.2,9.149,9.502,12.149,15.9
		c3,6.403,4.397,13.701,4.2,21.9c-0.201,2.203-0.403,4.2-0.6,6c-0.202,1.8-0.502,3.703-0.9,5.7l0.9-0.9
		c0.998,1.603,2.498,2.803,4.5,3.6c1.997,0.802,3.899,1.8,5.7,3c3.196,0.202,6.548,0.202,10.05,0c3.497-0.197,6.946-0.3,10.35-0.3
		l27.3-2.1v-42.3l-28.5,3.3l-12.3,6l-17.1-17.7c-1.401-1.598-2.901-3.698-4.5-6.3c-1.604-2.597-2.602-4.997-3-7.2l2.7-1.8
		c0.998,1.603,2.498,2.803,4.5,3.6c1.996,0.801,3.899,1.8,5.699,3c3.398,0.201,6.849,0.253,10.351,0.15
		c3.497-0.099,6.946-0.15,10.35-0.15l31.8-2.1v-22.5c0-3.398-0.853-6.497-2.55-9.3c-1.701-2.798-3.899-5.25-6.6-7.35
		c-2.7-2.1-5.752-3.999-9.15-5.7c-3.403-1.697-6.802-3.15-10.2-4.35l2.7-6.9l66.601,14.4l-8.101,18.6v119.1
		c-5.203,3.6-10.003,8.203-14.399,13.8c-4.402,5.602-7.903,11.7-10.5,18.3h-7.801v-47.7l-24,2.7l-12,6l-18-16.5
		c-2.399-2.4-4.603-5.597-6.6-9.6c-2.4,6.403-5.901,12.202-10.5,17.4c-4.604,5.203-10.003,9.6-16.2,13.2
		c-6.201,3.6-12.899,6.3-20.1,8.1c-7.2,1.8-14.602,2.7-22.2,2.7c-9.802,0-18.951-1.5-27.45-4.5c-8.503-3-15.899-7.2-22.2-12.6
		c-6.3-5.4-11.25-11.897-14.85-19.5c-3.6-7.598-5.4-16.097-5.4-25.5c0-8.4,1.749-16.247,5.25-23.55
		c3.497-7.298,8.297-13.697,14.4-19.2c6.099-5.499,13.299-9.797,21.6-12.9c8.297-3.099,17.349-4.65,27.15-4.65
		c-0.802-2.798-3.201-6-7.2-9.6c-4.003-3.6-8.602-6.3-13.8-8.1l3-6.3l44.7,14.4L912.505,378.649z M971.905,495.949l8.4,12.6
		c8.597-0.797,17.198-0.149,25.8,1.95c8.597,2.101,16.35,5.4,23.25,9.9s12.549,10.153,16.95,16.95
		c4.396,6.801,6.698,14.399,6.899,22.8c0.197,9.6-1.649,18.253-5.55,25.95c-3.899,7.696-9.052,14.25-15.45,19.649
		c-6.402,5.4-13.8,9.549-22.199,12.45c-8.4,2.896-17.002,4.448-25.801,4.65c-9.6,0.196-18.703-1.153-27.3-4.051
		c-8.602-2.901-16.102-6.951-22.5-12.149c-6.403-5.203-11.55-11.4-15.45-18.601c-3.899-7.199-5.953-15-6.149-23.399
		c-0.202-7.2,0.899-13.898,3.3-20.101c2.4-6.196,5.648-11.746,9.75-16.649c4.097-4.898,8.85-9.047,14.25-12.45
		c5.4-3.398,10.997-6,16.8-7.8c6.197-1.599,9.698-4.997,10.5-10.2L971.905,495.949z M987.805,530.749
		c-2.002-0.998-3.802-1.748-5.4-2.25c-1.603-0.497-3.899-0.548-6.899-0.149c-4.604,0.402-8.752,1.701-12.45,3.899
		c-3.703,2.203-6.854,5.002-9.45,8.4c-2.602,3.403-4.604,7.2-6,11.399c-1.401,4.2-2.1,8.504-2.1,12.9c0,4.604,1.097,9,3.3,13.2
		c2.198,4.2,5.1,7.8,8.7,10.8c3.6,3,7.748,5.4,12.449,7.2c4.697,1.8,9.75,2.597,15.15,2.399c5.799-0.201,10.997-1.5,15.6-3.899
		c4.599-2.4,8.551-5.55,11.851-9.45s5.747-8.297,7.35-13.2c1.599-4.898,2.297-9.946,2.101-15.149c-0.202-4.397-1.2-8.7-3-12.9
		c-1.801-4.2-4.2-8.1-7.2-11.7c-3-3.6-6.601-6.6-10.8-9c-4.2-2.399-8.804-3.998-13.801-4.8l5.4,7.8L987.805,530.749z"/>
	<path fill="#FFFFFF" d="M1250.301,392.449c-7.603,0-15.853,0.052-24.75,0.15c-8.901,0.103-18.103,0.352-27.6,0.75
		c-9.502,0.403-19.003,0.952-28.5,1.65c-9.502,0.703-18.651,1.453-27.45,2.25l-15,5.4l-15-20.1c-1.8-2.199-3.352-4.8-4.649-7.8
		c-1.304-3-2.152-5.896-2.551-8.7l3.9-1.8c0.998,2.203,2.447,3.952,4.35,5.25c1.898,1.303,3.849,2.452,5.851,3.45
		c3.398,0.403,6.998,0.952,10.8,1.65c3.797,0.703,7.396,1.05,10.8,1.05c6.797,0,13.95,0,21.45,0s15.047-0.197,22.65-0.6v-14.1
		c0-4.997-1.852-8.948-5.551-11.85c-3.703-2.897-8.151-5.147-13.35-6.75l2.4-5.4l55.8,8.1l-8.7,14.1l-0.9,14.7
		c6.999-0.398,13.65-0.797,19.95-1.2c6.3-0.398,12.347-0.797,18.151-1.2l17.398-6.9l18.602,27.9l-3.301,5.4
		c-3.801-0.999-8.953-2.048-15.449-3.15C1263.15,393.603,1256.699,392.853,1250.301,392.449z M1190.301,398.449l9,12.3
		c6.797-1.2,13.848-1.097,21.15,0.3c7.299,1.401,13.997,3.853,20.1,7.35c6.099,3.501,11.148,8.053,15.15,13.65
		c3.998,5.602,6.197,12,6.6,19.2c0.197,8.203-1.199,15.6-4.199,22.2s-7.252,12.3-12.75,17.1c-5.504,4.8-11.902,8.55-19.2,11.25
		c-7.304,2.7-15.15,4.153-23.55,4.351c-8.602,0.403-16.702-0.549-24.301-2.851c-7.603-2.297-14.25-5.55-19.949-9.75
		c-5.7-4.2-10.304-9.3-13.801-15.3c-3.501-6-5.353-12.497-5.55-19.5c-0.201-6,0.698-11.597,2.7-16.8c1.997-5.198,4.697-9.9,8.1-14.1
		c3.398-4.2,7.351-7.749,11.851-10.65c4.5-2.897,9.047-5.048,13.649-6.45c6-1.598,9.497-5.198,10.5-10.8L1190.301,398.449z
		 M1219.102,548.449c5.399,0,10.996-0.099,16.8-0.3c5.798-0.197,11.446-0.497,16.95-0.9c5.498-0.398,10.598-0.899,15.301-1.5
		c4.695-0.6,8.746-1.396,12.148-2.399c0.602,1.003,1.5,2.001,2.701,3c1.199,1.003,2.549,1.852,4.049,2.55
		c1.5,0.703,3.047,1.251,4.65,1.649c1.6,0.403,3,0.301,4.201-0.3l9.898-3.3v-15.9c0-3.998-2.1-7.949-6.299-11.85
		c-4.201-3.9-9-6.646-14.4-8.25l2.1-7.2l58.801,11.7l-8.701,13.8l-2.398,81.3c-3.404,0.999-7.352,3.099-11.852,6.301
		c-4.5,3.196-7.852,6.6-10.049,10.199h-6.6v-13.8c-6.404,0.197-13.305,0.347-20.701,0.45c-7.4,0.099-15,0.197-22.799,0.3
		c-7.801,0.099-15.601,0.249-23.401,0.45c-7.8,0.197-15.103,0.497-21.899,0.9c-4.604,1.598-8.902,3.899-12.9,6.899
		c-4.003,3-6.403,6.398-7.2,10.2h-6.6l-3.9-90.6c-0.403-4.599-2.55-8.949-6.45-13.051c-3.899-4.097-8.353-6.75-13.35-7.949l2.4-5.4
		l58.5,10.5l-9,13.2V548.449z M1205.602,431.749c-2.002-0.797-3.802-1.298-5.4-1.5c-1.604-0.197-3.9-0.098-6.9,0.3
		c-3.201,0.403-6.253,1.35-9.149,2.85c-2.901,1.5-5.4,3.501-7.5,6c-2.101,2.503-3.703,5.353-4.8,8.55
		c-1.102,3.202-1.65,6.501-1.65,9.9c0,3.6,0.9,7.003,2.7,10.2c1.8,3.202,4.2,5.953,7.2,8.25c3,2.301,6.449,4.102,10.35,5.4
		c3.9,1.303,7.95,1.852,12.15,1.65c4.996-0.197,9.347-1.247,13.05-3.15c3.698-1.898,6.797-4.35,9.3-7.35
		c2.498-3,4.35-6.347,5.55-10.05c1.2-3.699,1.8-7.547,1.8-11.55c0-2.798-0.553-5.896-1.649-9.3c-1.102-3.398-2.804-6.6-5.101-9.6
		c-2.301-3-5.1-5.7-8.399-8.1c-3.3-2.4-7.05-3.998-11.25-4.8l4.8,6.3L1205.602,431.749z M1292.602,567.35
		c-10.604-0.197-22.5-0.047-35.699,0.449c-13.201,0.502-25.8,1.051-37.8,1.65l0.3,25.2c5.798,0,12.45-0.052,19.95-0.15
		c7.5-0.103,15.197-0.253,23.099-0.45c7.898-0.201,15.646-0.449,23.25-0.75c7.6-0.3,14.4-0.651,20.4-1.05l-0.301-38.1
		L1292.602,567.35z M1340.301,360.949v63c2.799,0,5.447-0.15,7.951-0.45c2.498-0.3,5.146-0.646,7.949-1.05l20.1-9.9l21.301,25.8
		l-1.801,6l-29.1-1.8c-3.201,0.202-7.199,0.45-12,0.75c-4.799,0.3-9.6,0.651-14.4,1.05v29.7c-10.602,5.803-18.801,14.901-24.6,27.3
		h-7.799v-139.8c0-3.398-0.854-6.497-2.551-9.3c-1.701-2.798-3.9-5.25-6.6-7.35c-2.701-2.1-5.752-3.999-9.15-5.7
		c-3.402-1.697-6.801-3.15-10.199-4.35l2.699-6.9l66.301,14.4L1340.301,360.949z"/>
	<path fill="#FFFFFF" d="M1444.098,540.049c0.602-3.797,0.947-7.8,1.051-12c0.098-4.199,0.15-7.996,0.15-11.399v-104.7
		c0-5.4-2.4-10.148-7.201-14.25c-4.799-4.097-10.102-6.647-15.898-7.65l1.5-6.6l62.699,9.9l-7.5,16.5v102.9
		c6.797-0.398,13.949-0.899,21.449-1.5c7.5-0.6,14.949-1.35,22.352-2.25c7.396-0.899,14.445-1.847,21.148-2.85
		c6.699-0.999,12.75-1.997,18.15-3c3-0.601,6.197-1.397,9.6-2.4c3.398-0.998,6.75-2.146,10.051-3.45
		c3.301-1.298,6.398-2.648,9.301-4.05c2.896-1.396,5.348-2.798,7.35-4.2l7.799,0.3c-1.799,3.6-4.4,7.153-7.799,10.65
		c-3.404,3.502-7.252,6.75-11.551,9.75c-4.303,3-8.953,5.7-13.949,8.101c-5.002,2.399-10.004,4.303-15,5.699
		c-11.4,3-24.854,5.653-40.35,7.95c-15.502,2.302-31.252,4.252-47.25,5.851L1444.098,540.049z M1654.398,579.049
		c-5.803,4.2-10.701,10.604-14.699,19.2c-4.004,8.597-6.703,18.601-8.102,30h-8.398c0-5.602-0.104-10.8-0.301-15.6
		c-0.201-4.8-0.402-9.403-0.6-13.8c-0.201-4.402-0.404-8.799-0.6-13.2c-0.203-4.397-0.301-9.099-0.301-14.101v-210
		c0-3.398-0.854-6.497-2.551-9.3c-1.701-2.798-3.898-5.25-6.6-7.35c-2.699-2.1-5.752-3.999-9.15-5.7
		c-3.402-1.697-6.801-3.15-10.199-4.35l2.699-6.9l66.602,14.4l-7.801,18.6V579.049z"/>
	<path fill="#FFFFFF" d="M1834.994,409.849c-9.801,0.403-20.699,1.003-32.699,1.8c-12,0.801-23.4,1.5-34.199,2.1v103.2
		c6.797-0.398,13.898-0.9,21.299-1.5c7.396-0.6,14.701-1.299,21.9-2.1c7.199-0.797,14.1-1.697,20.699-2.7
		c6.602-0.999,12.602-2.101,18-3.3c6.398-1.397,13-3.497,19.801-6.301c6.797-2.798,12.197-5.597,16.199-8.399l7.801,0.3
		c-1.801,3.6-4.402,7.153-7.801,10.65c-3.402,3.501-7.199,6.75-11.398,9.75c-4.201,3-8.805,5.751-13.801,8.25
		c-5.002,2.503-10.004,4.453-15,5.85c-5.4,1.604-11.451,3.052-18.15,4.35c-6.703,1.304-13.799,2.551-21.299,3.75
		c-7.5,1.2-15.203,2.354-23.102,3.45c-7.902,1.102-15.75,2.054-23.549,2.851l-26.1,2.699c0.6-3.797,0.945-7.8,1.049-12
		c0.1-4.199,0.15-7.996,0.15-11.399v-106.5l-16.199-16.8c-2.4-2.4-4.252-4.8-5.551-7.2c-1.303-2.4-2.354-4.8-3.15-7.2l3.9-2.7
		c0.797,2.203,1.996,3.802,3.6,4.8c1.6,1.003,3.398,1.903,5.4,2.7c2.598,0.6,5.4,1.2,8.4,1.8s6.098,1.003,9.299,1.2
		c6,0.403,12.85,0.6,20.551,0.6c7.697,0,15.6-0.098,23.699-0.3c8.102-0.197,15.947-0.497,23.551-0.9c7.598-0.398,14.1-0.9,19.5-1.5
		l18.6-6.6l19.801,25.2l-2.701,4.2L1834.994,409.849z M1934.895,459.049c5.799,0,11.598-0.6,17.4-1.8l20.1-9.6l21.301,25.8l-1.5,5.7
		l-32.701-1.5c-3.402,0.201-7.199,0.45-11.398,0.75c-4.201,0.3-8.602,0.75-13.201,1.35v99.3c-5.803,4.2-10.752,10.604-14.85,19.2
		c-4.102,8.597-6.854,18.601-8.25,30h-8.4c0-5.602-0.104-10.8-0.299-15.6c-0.203-4.8-0.352-9.403-0.451-13.8
		c-0.104-4.402-0.252-8.799-0.449-13.2c-0.201-4.397-0.301-9.099-0.301-14.101v-210c0-3.398-0.854-6.497-2.549-9.3
		c-1.703-2.798-3.953-5.25-6.75-7.35c-2.805-2.1-5.902-3.999-9.301-5.7c-3.402-1.697-6.703-3.15-9.9-4.35l2.4-6.9l66.9,14.4
		l-7.801,18.6V459.049z"/>
</g>
</svg>
